<svg width="13" height="13" viewBox="0 0 13 13" fill="none" xmlns="http://www.w3.org/2000/svg">
<path d="M6.51562 0.792969C6.71454 0.792969 6.9053 0.871987 7.04596 1.01264C7.18661 1.15329 7.26562 1.34406 7.26562 1.54297V6.04297H11.7656C11.9645 6.04297 12.1553 6.12199 12.296 6.26264C12.4366 6.40329 12.5156 6.59406 12.5156 6.79297C12.5156 6.99188 12.4366 7.18265 12.296 7.3233C12.1553 7.46395 11.9645 7.54297 11.7656 7.54297H7.26562V12.043C7.26562 12.2419 7.18661 12.4326 7.04596 12.5733C6.9053 12.714 6.71454 12.793 6.51562 12.793C6.31671 12.793 6.12595 12.714 5.9853 12.5733C5.84464 12.4326 5.76562 12.2419 5.76562 12.043V7.54297H1.26562C1.06671 7.54297 0.875947 7.46395 0.735295 7.3233C0.594643 7.18265 0.515625 6.99188 0.515625 6.79297C0.515625 6.59406 0.594643 6.40329 0.735295 6.26264C0.875947 6.12199 1.06671 6.04297 1.26562 6.04297H5.76562V1.54297C5.76562 1.34406 5.84464 1.15329 5.9853 1.01264C6.12595 0.871987 6.31671 0.792969 6.51562 0.792969Z" fill="white"/>
</svg>
