<svg width="29" height="21" viewBox="0 0 29 21" fill="none" xmlns="http://www.w3.org/2000/svg">
<path d="M22.117 2.10181L22.117 2.1018L22.1122 2.09925C21.8054 1.93541 21.4994 1.87354 21.2081 1.84645C20.9472 1.82219 20.6417 1.82223 20.3201 1.82226L20.2833 1.82227H5.54459C5.52456 1.82227 5.50459 1.82226 5.48468 1.82226C4.90053 1.82219 4.36614 1.82213 3.93166 1.88058C3.45341 1.94492 2.94982 2.09609 2.53565 2.51026C2.12148 2.92443 1.97031 3.42802 1.90597 3.90627C1.84752 4.34075 1.84758 4.87514 1.84765 5.45929C1.84765 5.4792 1.84766 5.49917 1.84766 5.5192V16.3069L1.84765 16.3668C1.84758 16.951 1.84752 17.4854 1.90597 17.9199C1.97031 18.3981 2.12148 18.9017 2.53565 19.3159C2.94982 19.73 3.45341 19.8812 3.93166 19.9455C4.36614 20.004 4.90053 20.0039 5.48467 20.0039L5.54459 20.0039H20.2833L20.3201 20.0039C20.6417 20.0039 20.9472 20.0039 21.2081 19.9797C21.4994 19.9526 21.8054 19.8907 22.1122 19.7269L22.1153 19.7252C22.4207 19.5608 22.6416 19.3412 22.8259 19.114C22.9923 18.9088 23.163 18.6529 23.3426 18.3833L23.3592 18.3584L23.3593 18.3583L26.9543 12.9645L26.9547 12.9638L26.984 12.9198C27.2022 12.5921 27.4078 12.2832 27.5529 12.0044C27.7159 11.6915 27.8477 11.336 27.8477 10.9131C27.8477 10.4911 27.7168 10.1359 27.5536 9.82209C27.4061 9.53875 27.1967 9.22559 26.9741 8.8927L26.9543 8.86301L26.9535 8.86184L23.3593 3.46914L23.3589 3.46861L23.3415 3.44243C23.1615 3.17275 22.991 2.91729 22.8252 2.71271C22.6415 2.48593 22.4213 2.26641 22.117 2.10181Z" stroke="#283760" stroke-width="2"/>
<path d="M19.0282 13.2614C20.3252 13.2614 21.3766 12.2099 21.3766 10.9129C21.3766 9.6159 20.3252 8.56445 19.0282 8.56445C17.7311 8.56445 16.6797 9.6159 16.6797 10.9129C16.6797 12.2099 17.7311 13.2614 19.0282 13.2614Z" stroke="#283760" stroke-width="2"/>
</svg>
