<svg width="27" height="27" viewBox="0 0 27 27" fill="none" xmlns="http://www.w3.org/2000/svg">
<path d="M20.513 20.3629C20.513 19.7264 20.2321 19.1159 19.732 18.6658C19.2319 18.2157 18.5536 17.9629 17.8464 17.9629H9.84635C9.13911 17.9629 8.46083 18.2157 7.96074 18.6658C7.46064 19.1159 7.17969 19.7264 7.17969 20.3629" stroke="#283760" stroke-width="2" stroke-linecap="round" stroke-linejoin="round"/>
<path d="M23.181 3.56348H4.51432C3.04156 3.56348 1.84766 4.63799 1.84766 5.96348V22.7635C1.84766 24.089 3.04156 25.1635 4.51432 25.1635H23.181C24.6537 25.1635 25.8477 24.089 25.8477 22.7635V5.96348C25.8477 4.63799 24.6537 3.56348 23.181 3.56348Z" stroke="#283760" stroke-width="2" stroke-linecap="round" stroke-linejoin="round"/>
<path d="M13.8464 13.1633C15.3191 13.1633 16.513 12.0888 16.513 10.7633C16.513 9.4378 15.3191 8.36328 13.8464 8.36328C12.3736 8.36328 11.1797 9.4378 11.1797 10.7633C11.1797 12.0888 12.3736 13.1633 13.8464 13.1633Z" stroke="#283760" stroke-width="2" stroke-linecap="round" stroke-linejoin="round"/>
<path d="M8.51562 1.16309V3.56309M19.1823 1.16309V3.56309" stroke="#283760" stroke-width="2" stroke-linecap="round" stroke-linejoin="round"/>
</svg>
