<svg width="28" height="28" viewBox="0 0 28 28" fill="none" xmlns="http://www.w3.org/2000/svg">
<path d="M13.3035 1.88685C12.8519 2.0734 12.4481 2.47841 11.6394 3.28597C10.8306 4.09599 10.4257 4.49977 10.2403 4.95019C10.117 5.24804 10.0534 5.56728 10.0534 5.88968C10.0534 6.21208 10.117 6.53133 10.2403 6.82918C10.4257 7.28082 10.8294 7.6846 11.6394 8.49339C12.4469 9.30218 12.8519 9.70719 13.3035 9.89251C13.9046 10.1414 14.58 10.1414 15.1811 9.89251C15.6328 9.70719 16.0365 9.30341 16.8452 8.49339C17.6552 7.6846 18.0577 7.28082 18.2443 6.82918C18.4931 6.22799 18.4931 5.55259 18.2443 4.95141C18.0577 4.49977 17.6552 4.09599 16.8452 3.2872C16.0365 2.47718 15.6328 2.0734 15.1811 1.88685C14.58 1.63798 13.9046 1.63798 13.3035 1.88685ZM5.49223 9.69737C5.04184 9.88392 4.63686 10.2877 3.82935 11.0965C3.01938 11.9065 2.61563 12.3103 2.42909 12.7607C2.3057 13.0586 2.24219 13.3778 2.24219 13.7002C2.24219 14.0226 2.3057 14.3418 2.42909 14.6397C2.61563 15.0913 3.02061 15.4951 3.82812 16.3039C4.63809 17.1127 5.04184 17.5165 5.49223 17.703C5.79006 17.8264 6.10929 17.8899 6.43167 17.8899C6.75405 17.8899 7.07327 17.8264 7.37111 17.703C7.82272 17.5165 8.22648 17.1127 9.03522 16.3039C9.84518 15.4951 10.2477 15.0913 10.4342 14.6397C10.6831 14.0385 10.6831 13.3631 10.4342 12.7619C10.2477 12.3103 9.84518 11.9053 9.03522 11.0965C8.22648 10.2877 7.82272 9.88392 7.37111 9.69737C6.76996 9.44849 6.09338 9.44849 5.49223 9.69737ZM19.4494 11.0965C18.6407 11.9065 18.2369 12.3103 18.0504 12.7607C17.927 13.0586 17.8635 13.3778 17.8635 13.7002C17.8635 14.0226 17.927 14.3418 18.0504 14.6397C18.2369 15.0913 18.6407 15.4951 19.4494 16.3039C20.2581 17.1127 20.6631 17.5165 21.1135 17.703C21.7147 17.9519 22.39 17.9519 22.9912 17.703C23.4428 17.5165 23.8478 17.1127 24.6565 16.3039C25.4652 15.4951 25.8678 15.0913 26.0555 14.6397C26.3044 14.0385 26.3044 13.3631 26.0555 12.7619C25.8678 12.3103 25.4652 11.9053 24.6565 11.0965C23.8465 10.2877 23.4428 9.88392 22.9924 9.69737C22.6946 9.57397 22.3753 9.51046 22.053 9.51046C21.7306 9.51046 21.4114 9.57397 21.1135 9.69737C20.6631 9.88392 20.2581 10.2877 19.4494 11.0965ZM13.3035 17.5079C12.8519 17.6944 12.4481 18.0994 11.6394 18.907C10.8306 19.717 10.4257 20.1208 10.2403 20.5724C9.99149 21.1736 9.99149 21.849 10.2403 22.4502C10.4257 22.9019 10.8294 23.3056 11.6394 24.1144C12.4469 24.9232 12.8519 25.3282 13.3035 25.5135C13.9046 25.7624 14.58 25.7624 15.1811 25.5135C15.6328 25.3282 16.0365 24.9244 16.8452 24.1144C17.6552 23.3056 18.0577 22.9019 18.2443 22.4502C18.4934 21.8488 18.4934 21.1738 18.2443 20.5724C18.0577 20.1208 17.6552 19.7158 16.8452 18.9082C16.0365 18.0982 15.6328 17.6944 15.1811 17.5079C14.58 17.259 13.9046 17.259 13.3035 17.5079Z" stroke="#283760" stroke-width="3" stroke-linecap="round" stroke-linejoin="round"/>
</svg>
