<svg width="25" height="25" viewBox="0 0 25 25" fill="none" xmlns="http://www.w3.org/2000/svg">
<path fill-rule="evenodd" clip-rule="evenodd" d="M10.8735 1.85364C11.1504 1.85364 11.3748 2.07806 11.3748 2.35493V11.8795C11.3748 12.1563 11.1504 12.3808 10.8735 12.3808H1.34895C1.07208 12.3808 0.847656 12.1563 0.847656 11.8795V2.35493C0.847656 2.07806 1.07208 1.85364 1.34895 1.85364H10.8735ZM9.24432 3.98413H2.97815V10.2503H9.24432V3.98413ZM24.7008 6.7314C24.8966 6.92715 24.8966 7.24457 24.7008 7.44032L19.0293 13.1118C18.8336 13.3076 18.5162 13.3076 18.3204 13.1118L12.6489 7.44032C12.4532 7.24457 12.4532 6.92715 12.6489 6.7314L18.3204 1.0599C18.5162 0.864147 18.8336 0.864147 19.0294 1.0599L24.7008 6.7314ZM22.0423 7.08584L18.6749 3.71844L15.3075 7.08588L18.6749 10.4533L22.0423 7.08584ZM10.8735 14.3859C11.1504 14.3859 11.3748 14.6104 11.3748 14.8872V24.4118C11.3748 24.6887 11.1504 24.9131 10.8735 24.9131H1.34895C1.07208 24.9131 0.847656 24.6887 0.847656 24.4118V14.8872C0.847656 14.6104 1.07208 14.3859 1.34895 14.3859H10.8735ZM9.24432 16.5164H2.97815V22.7826H9.24432V16.5164ZM23.4058 14.3859C23.6827 14.3859 23.9071 14.6104 23.9071 14.8872V24.4118C23.9071 24.6887 23.6827 24.9131 23.4058 24.9131H13.8813C13.6044 24.9131 13.38 24.6887 13.38 24.4118V14.8872C13.38 14.6104 13.6044 14.3859 13.8813 14.3859H23.4058ZM21.7766 16.5164H15.5105V22.7826H21.7766V16.5164Z" fill="#283760"/>
</svg>
