<svg width="25" height="25" viewBox="0 0 25 25" fill="none" xmlns="http://www.w3.org/2000/svg">
<path d="M12.8477 24.1631C6.22006 24.1631 0.847656 18.7907 0.847656 12.1631C0.847656 5.53549 6.22006 0.163086 12.8477 0.163086C19.4753 0.163086 24.8477 5.53549 24.8477 12.1631C24.8477 18.7907 19.4753 24.1631 12.8477 24.1631ZM12.8477 21.7631C15.3937 21.7631 17.8355 20.7517 19.6359 18.9513C21.4362 17.151 22.4477 14.7092 22.4477 12.1631C22.4477 9.61701 21.4362 7.17521 19.6359 5.37486C17.8355 3.57451 15.3937 2.56309 12.8477 2.56309C10.3016 2.56309 7.85978 3.57451 6.05943 5.37486C4.25908 7.17521 3.24766 9.61701 3.24766 12.1631C3.24766 14.7092 4.25908 17.151 6.05943 18.9513C7.85978 20.7517 10.3016 21.7631 12.8477 21.7631ZM11.6477 6.16309H14.0477V8.56309H11.6477V6.16309ZM11.6477 10.9631H14.0477V18.1631H11.6477V10.9631Z" fill="#283760"/>
</svg>
