<svg width="28" height="28" viewBox="0 0 28 28" fill="none" xmlns="http://www.w3.org/2000/svg">
<path d="M12.909 2.59974C12.4573 2.78629 12.0536 3.1913 11.2448 3.99886C10.4361 4.80888 10.0311 5.21266 9.84582 5.66308C9.72243 5.96093 9.65892 6.28017 9.65892 6.60257C9.65892 6.92497 9.72243 7.24422 9.84582 7.54207C10.0311 7.99371 10.4349 8.39749 11.2448 9.20628C12.0524 10.0151 12.4573 10.4201 12.909 10.6054C13.5101 10.8543 14.1855 10.8543 14.7866 10.6054C15.2382 10.4201 15.642 10.0163 16.4507 9.20628C17.2607 8.39749 17.6632 7.99371 17.8497 7.54207C18.0986 6.94089 18.0986 6.26548 17.8497 5.6643C17.6632 5.21266 17.2607 4.80888 16.4507 4.00009C15.642 3.19007 15.2382 2.78629 14.7866 2.59974C14.1855 2.35087 13.5101 2.35087 12.909 2.59974ZM5.0977 10.4103C4.64731 10.5968 4.24233 11.0006 3.43482 11.8094C2.62485 12.6194 2.22109 13.0232 2.03456 13.4736C1.91117 13.7714 1.84766 14.0907 1.84766 14.4131C1.84766 14.7355 1.91117 15.0547 2.03456 15.3526C2.22109 15.8042 2.62608 16.208 3.43359 17.0168C4.24355 17.8256 4.64731 18.2294 5.0977 18.4159C5.39553 18.5393 5.71476 18.6028 6.03714 18.6028C6.35952 18.6028 6.67874 18.5393 6.97657 18.4159C7.42819 18.2294 7.83195 17.8256 8.64069 17.0168C9.45065 16.208 9.85318 15.8042 10.0397 15.3526C10.2886 14.7514 10.2886 14.076 10.0397 13.4748C9.85318 13.0232 9.45065 12.6182 8.64069 11.8094C7.83195 11.0006 7.42819 10.5968 6.97657 10.4103C6.37543 10.1614 5.69884 10.1614 5.0977 10.4103ZM19.0549 11.8094C18.2461 12.6194 17.8424 13.0232 17.6558 13.4736C17.5325 13.7714 17.4689 14.0907 17.4689 14.4131C17.4689 14.7355 17.5325 15.0547 17.6558 15.3526C17.8424 15.8042 18.2461 16.208 19.0549 17.0168C19.8636 17.8256 20.2686 18.2294 20.719 18.4159C21.3201 18.6648 21.9955 18.6648 22.5966 18.4159C23.0483 18.2294 23.4532 17.8256 24.262 17.0168C25.0707 16.208 25.4732 15.8042 25.661 15.3526C25.9099 14.7514 25.9099 14.076 25.661 13.4748C25.4732 13.0232 25.0707 12.6182 24.262 11.8094C23.452 11.0006 23.0483 10.5968 22.5979 10.4103C22.3 10.2869 21.9808 10.2233 21.6584 10.2233C21.336 10.2233 21.0168 10.2869 20.719 10.4103C20.2686 10.5968 19.8636 11.0006 19.0549 11.8094ZM12.909 18.2208C12.4573 18.4073 12.0536 18.8123 11.2448 19.6199C10.4361 20.4299 10.0311 20.8337 9.84582 21.2853C9.59695 21.8865 9.59695 22.5619 9.84582 23.1631C10.0311 23.6147 10.4349 24.0185 11.2448 24.8273C12.0524 25.6361 12.4573 26.0411 12.909 26.2264C13.5101 26.4753 14.1855 26.4753 14.7866 26.2264C15.2382 26.0411 15.642 25.6373 16.4507 24.8273C17.2607 24.0185 17.6632 23.6147 17.8497 23.1631C18.0989 22.5617 18.0989 21.8867 17.8497 21.2853C17.6632 20.8337 17.2607 20.4287 16.4507 19.6211C15.642 18.8111 15.2382 18.4073 14.7866 18.2208C14.1855 17.9719 13.5101 17.9719 12.909 18.2208Z" stroke="white" stroke-width="3" stroke-linecap="round" stroke-linejoin="round"/>
</svg>
