<svg width="63" height="63" viewBox="0 0 63 63" fill="none" xmlns="http://www.w3.org/2000/svg">
<path fill-rule="evenodd" clip-rule="evenodd" d="M36.8556 2.61635C36.1406 2.61635 35.5611 3.19589 35.5611 3.91087V28.5068C35.5611 29.2217 36.1406 29.8014 36.8556 29.8014H61.4516C62.1666 29.8014 62.7461 29.2217 62.7461 28.5068V3.91087C62.7461 3.19589 62.1666 2.61635 61.4516 2.61635H36.8556ZM41.0628 8.11808H57.2444V24.2996H41.0628V8.11808ZM1.14835 15.2126C0.642845 15.7181 0.642845 16.5377 1.14835 17.0433L15.7943 31.6892C16.2998 32.1947 17.1194 32.1947 17.625 31.6892L32.2708 17.0433C32.7763 16.5377 32.7763 15.7181 32.2708 15.2126L17.6249 0.566634C17.1194 0.0611221 16.2998 0.0611221 15.7942 0.566634L1.14835 15.2126ZM8.01362 16.1279L16.7096 7.43198L25.4055 16.1279L16.7096 24.8239L8.01362 16.1279ZM36.8556 34.9795C36.1406 34.9795 35.5611 35.5591 35.5611 36.274V60.8699C35.5611 61.5849 36.1406 62.1645 36.8556 62.1645H61.4516C62.1666 62.1645 62.7461 61.5849 62.7461 60.8699V36.274C62.7461 35.5591 62.1666 34.9795 61.4516 34.9795H36.8556ZM41.0628 40.4812H57.2444V56.6627H41.0628V40.4812ZM4.49252 34.9795C3.77753 34.9795 3.19799 35.5591 3.19799 36.274V60.8699C3.19799 61.5849 3.77753 62.1645 4.49252 62.1645H29.0885C29.8035 62.1645 30.383 61.5849 30.383 60.8699V36.274C30.383 35.5591 29.8035 34.9795 29.0885 34.9795H4.49252ZM8.69972 40.4812H24.8813V56.6627H8.69972V40.4812Z" fill="#ECEDEF"/>
</svg>
