<svg width="25" height="25" viewBox="0 0 25 25" fill="none" xmlns="http://www.w3.org/2000/svg">
<path d="M10.4096 0.00683594C10.2234 0.00684181 10.042 0.0659466 9.89154 0.175638C9.74107 0.28533 9.62929 0.439948 9.57231 0.617224L8.60484 3.62343C8.1985 3.8222 7.80975 4.0456 7.43859 4.29714L4.34971 3.63223C4.16759 3.59334 3.97783 3.61327 3.80775 3.68914C3.63768 3.76501 3.49608 3.8929 3.40335 4.0544L0.965311 8.27434C0.872211 8.43575 0.832779 8.62255 0.852695 8.80781C0.872614 8.99307 0.950851 9.16722 1.07613 9.30514L3.19578 11.6447C3.1649 12.0933 3.1649 12.5435 3.19578 12.9921L1.07613 15.3351C0.950851 15.4731 0.872614 15.6472 0.852695 15.8325C0.832779 16.0177 0.872211 16.2045 0.965311 16.3659L3.40335 20.5877C3.49633 20.7488 3.63805 20.8764 3.8081 20.9519C3.97815 21.0274 4.16778 21.0471 4.34971 21.0081L7.43859 20.3431C7.80799 20.5929 8.1985 20.8181 8.60308 21.0169L9.57231 24.0231C9.62929 24.2003 9.74107 24.355 9.89154 24.4647C10.042 24.5743 10.2234 24.6335 10.4096 24.6335H15.2857C15.4719 24.6335 15.6533 24.5743 15.8038 24.4647C15.9542 24.355 16.066 24.2003 16.123 24.0231L17.0887 21.0186C17.4939 20.8204 17.8848 20.5941 18.2585 20.3414L21.3456 21.0081C21.5277 21.047 21.7175 21.027 21.8876 20.9512C22.0576 20.8753 22.1992 20.7474 22.292 20.5859L24.73 16.3659C24.8231 16.2045 24.8625 16.0177 24.8426 15.8325C24.8227 15.6472 24.7445 15.4731 24.6192 15.3351L22.4995 12.9921C22.5302 12.5447 22.5302 12.0956 22.4995 11.6482L24.6192 9.30514C24.7445 9.16722 24.8227 8.99307 24.8426 8.80781C24.8625 8.62255 24.8231 8.43575 24.73 8.27434L22.292 4.05264C22.199 3.89146 22.0573 3.76393 21.8872 3.68839C21.7172 3.61285 21.5275 3.59318 21.3456 3.63223L18.2585 4.2989C17.8856 4.04736 17.4951 3.82044 17.0887 3.62167L16.1212 0.617224C16.0644 0.440519 15.9532 0.28631 15.8034 0.176672C15.6537 0.0670329 15.4731 0.00758471 15.2875 0.00683594H10.4114H10.4096ZM11.0534 1.76588H14.6419L15.641 4.87411L16.3147 5.20305C16.6459 5.36512 16.9657 5.54966 17.2717 5.75539L17.8944 6.17756L21.0888 5.48802L22.883 8.59801L20.693 11.022L20.7458 11.7678C20.7711 12.1356 20.7711 12.5047 20.7458 12.8725L20.693 13.6183L22.8865 16.0423L21.0905 19.1523L17.8961 18.4645L17.2734 18.8849C16.9674 19.0906 16.6477 19.2752 16.3165 19.4372L15.6428 19.7662L14.6419 22.8744H11.0499L10.0473 19.7644L9.3753 19.4372C9.04446 19.2756 8.72529 19.091 8.42014 18.8849L7.7992 18.4645L4.60301 19.1523L2.80879 16.0423L5.00056 13.6183L4.94779 12.8725C4.92242 12.5041 4.92242 12.1344 4.94779 11.766L5.00056 11.0202L2.80703 8.59801L4.60301 5.48802L7.7992 6.17405L8.42014 5.75539C8.72529 5.54929 9.04446 5.36473 9.3753 5.20305L10.0473 4.87587L11.0517 1.76588H11.0534ZM12.8477 7.04301C11.4481 7.04301 10.1058 7.599 9.11616 8.58865C8.1265 9.5783 7.57052 10.9206 7.57052 12.3201C7.57052 13.7197 8.1265 15.062 9.11616 16.0516C10.1058 17.0413 11.4481 17.5973 12.8477 17.5973C14.2472 17.5973 15.5895 17.0413 16.5792 16.0516C17.5688 15.062 18.1248 13.7197 18.1248 12.3201C18.1248 10.9206 17.5688 9.5783 16.5792 8.58865C15.5895 7.599 14.2472 7.04301 12.8477 7.04301ZM12.8477 8.80206C13.7807 8.80206 14.6756 9.17271 15.3353 9.83248C15.9951 10.4923 16.3657 11.3871 16.3657 12.3201C16.3657 13.2532 15.9951 14.148 15.3353 14.8078C14.6756 15.4676 13.7807 15.8382 12.8477 15.8382C11.9146 15.8382 11.0198 15.4676 10.36 14.8078C9.70022 14.148 9.32957 13.2532 9.32957 12.3201C9.32957 11.3871 9.70022 10.4923 10.36 9.83248C11.0198 9.17271 11.9146 8.80206 12.8477 8.80206Z" fill="#283760"/>
</svg>
