<svg width="25" height="25" viewBox="0 0 25 25" fill="none" xmlns="http://www.w3.org/2000/svg">
<path d="M17.6477 15.1631C16.1102 15.1631 15.3709 15.9131 12.8477 15.9131C10.3244 15.9131 9.59051 15.1631 8.04766 15.1631C4.07266 15.1631 0.847656 17.985 0.847656 21.4631V22.6631C0.847656 23.9053 1.99944 24.9131 3.41908 24.9131H22.2762C23.6959 24.9131 24.8477 23.9053 24.8477 22.6631V21.4631C24.8477 17.985 21.6227 15.1631 17.6477 15.1631ZM22.2762 22.6631H3.41908V21.4631C3.41908 19.2318 5.49766 17.4131 8.04766 17.4131C8.8298 17.4131 10.0994 18.1631 12.8477 18.1631C15.6173 18.1631 16.8602 17.4131 17.6477 17.4131C20.1977 17.4131 22.2762 19.2318 22.2762 21.4631V22.6631ZM12.8477 14.4131C17.1066 14.4131 20.5619 11.3896 20.5619 7.66309C20.5619 3.93652 17.1066 0.913086 12.8477 0.913086C8.58873 0.913086 5.13337 3.93652 5.13337 7.66309C5.13337 11.3896 8.58873 14.4131 12.8477 14.4131ZM12.8477 3.16309C15.6816 3.16309 17.9905 5.1834 17.9905 7.66309C17.9905 10.1428 15.6816 12.1631 12.8477 12.1631C10.0137 12.1631 7.7048 10.1428 7.7048 7.66309C7.7048 5.1834 10.0137 3.16309 12.8477 3.16309Z" fill="#283760"/>
</svg>
