<svg width="25" height="25" viewBox="0 0 25 25" fill="none" xmlns="http://www.w3.org/2000/svg">
<path d="M17.0422 14.831C15.5047 14.831 14.7654 15.5812 12.2422 15.5812C9.71897 15.5812 8.98504 14.831 7.44219 14.831C3.46719 14.831 0.242188 17.6535 0.242188 21.1325V22.3328C0.242188 23.5753 1.39397 24.5833 2.81362 24.5833H21.6708C23.0904 24.5833 24.2422 23.5753 24.2422 22.3328V21.1325C24.2422 17.6535 21.0172 14.831 17.0422 14.831ZM21.6708 22.3328H2.81362V21.1325C2.81362 18.9007 4.89219 17.0815 7.44219 17.0815C8.22433 17.0815 9.49397 17.8317 12.2422 17.8317C15.0118 17.8317 16.2547 17.0815 17.0422 17.0815C19.5922 17.0815 21.6708 18.9007 21.6708 21.1325V22.3328ZM12.2422 14.0808C16.5011 14.0808 19.9565 11.0567 19.9565 7.32923C19.9565 3.60179 16.5011 0.577637 12.2422 0.577637C7.98326 0.577637 4.5279 3.60179 4.5279 7.32923C4.5279 11.0567 7.98326 14.0808 12.2422 14.0808ZM12.2422 2.82817C15.0761 2.82817 17.385 4.84896 17.385 7.32923C17.385 9.80951 15.0761 11.8303 12.2422 11.8303C9.40826 11.8303 7.09933 9.80951 7.09933 7.32923C7.09933 4.84896 9.40826 2.82817 12.2422 2.82817Z" fill="white"/>
</svg>
