<svg width="192" height="56" viewBox="0 0 192 56" fill="none" xmlns="http://www.w3.org/2000/svg">
<path d="M55.8461 26.2218C55.8461 34.4484 52.4423 41.8701 46.9656 47.1433C44.4334 46.3976 42.0955 45.2021 40.0461 43.6396C45.2931 39.6625 48.6852 33.3357 48.6852 26.2218C48.6852 19.1079 45.2931 12.7871 40.0461 8.80992C34.7932 12.7871 31.4012 19.1079 31.4012 26.2218C31.4012 32.0041 33.639 37.2596 37.2901 41.1658C33.9864 37.6798 29.8347 35.0284 25.1648 33.537C24.5641 31.1992 24.2402 28.749 24.2402 26.2218C24.2402 18.0012 27.644 10.5736 33.1207 5.30031C35.1642 3.32357 37.4962 1.65459 40.0461 0.352539C42.6019 1.65459 44.928 3.32949 46.9715 5.30031C52.4364 10.5795 55.8461 18.0012 55.8461 26.2218Z" fill="#A4C241"/>
<path d="M40.0434 52.0908C38.9775 52.6353 37.8704 53.1147 36.722 53.523C33.6834 54.6238 30.4091 55.2216 26.9935 55.2216C17.4711 55.2216 9.03231 50.5875 3.77939 43.444C2.35427 41.5087 1.16471 39.3958 0.257812 37.1409C2.23649 35.7974 4.38595 34.6966 6.67085 33.8799C7.54242 36.2117 8.79676 38.3601 10.3632 40.2362C14.3441 45.0005 20.3155 48.0367 26.9935 48.0367C29.0841 48.0367 31.1099 47.7408 33.0297 47.1785C33.0297 47.1785 33.0827 47.1667 33.1121 47.1489C35.1556 49.1257 37.4876 50.7946 40.0375 52.0967L40.0434 52.0908Z" fill="#A4C241"/>
<path d="M75.0934 44.9719C69.811 51.2395 61.9081 55.2166 53.0864 55.2166C50.0301 55.2166 47.0915 54.7372 44.3237 53.8554C42.8397 53.376 41.4028 52.7901 40.0366 52.0858C37.4808 50.7897 35.1547 49.1148 33.1112 47.138C33.0818 47.1499 33.0582 47.1617 33.0288 47.1676C29.0537 42.4033 23.0824 39.3672 16.4043 39.3672C14.3079 39.3672 12.2821 39.6631 10.3623 40.2253C8.79582 38.3492 7.54148 36.2008 6.66992 33.869C9.70861 32.7682 12.9887 32.1704 16.4043 32.1704C19.4607 32.1704 22.3992 32.6498 25.167 33.5316C29.837 35.0231 33.9887 37.6804 37.2923 41.1604C37.3218 41.196 37.3571 41.2315 37.3866 41.2611C38.2051 42.1251 39.0943 42.9182 40.0425 43.6343C42.0918 45.1909 44.4356 46.3864 46.962 47.138C48.9053 47.718 50.9605 48.0199 53.0864 48.0199C59.8293 48.0199 65.8595 44.9245 69.8345 40.0774L75.0934 44.9601V44.9719Z" fill="url(#paint0_linear_1_14653)"/>
<path d="M91.1473 47.2388V53.3229H90.4053L87.5432 48.8545V53.3229H86.7129V47.2388H87.4667L90.3287 51.7072V47.2388H91.1473Z" fill="white"/>
<path d="M97.459 51.6894H95.0446L94.4734 53.3229H93.5547L95.7748 47.2388H96.7288L98.9489 53.3229H98.0303L97.4532 51.6894H97.459ZM97.1882 50.9082L96.2518 48.2567L95.3155 50.9082H97.1823H97.1882Z" fill="white"/>
<path d="M104.704 48.02H102.896V53.3229H102.066V48.02H100.258V47.2388H104.704V48.02Z" fill="white"/>
<path d="M107.113 50.5531V47.2388H107.967V50.5531C107.967 52.0623 108.356 52.6363 109.375 52.6363C110.393 52.6363 110.776 52.08 110.776 50.5531V47.2388H111.63V50.5531C111.63 52.2102 111.13 53.4353 109.375 53.4353C107.62 53.4353 107.107 52.2457 107.107 50.5531H107.113Z" fill="white"/>
<path d="M116.327 50.8016H115.391V53.3229H114.561V47.2388H116.91C118.017 47.2388 118.695 47.9667 118.695 49.0202C118.695 49.9494 118.159 50.6359 117.269 50.778L118.818 53.3229H117.782L116.327 50.8016ZM115.391 50.0027H116.904C117.511 50.0027 117.829 49.6535 117.829 49.0202C117.829 48.3869 117.511 48.0378 116.904 48.0378H115.391V50.0027Z" fill="white"/>
<path d="M124.609 51.6894H122.195L121.624 53.3229H120.705L122.925 47.2388H123.879L126.099 53.3229H125.181L124.604 51.6894H124.609ZM124.344 50.9082L123.408 48.2567L122.472 50.9082H124.339H124.344Z" fill="white"/>
<path d="M132.161 52.5416V53.3229H128.521V47.2388H129.352V52.5416H132.161Z" fill="white"/>
<path d="M142.251 49.2392C142.251 50.4229 141.497 51.2455 140.272 51.2455H139V53.3229H138.17V47.2388H140.272C141.497 47.2388 142.251 48.0555 142.251 49.2392ZM141.385 49.2392C141.385 48.4757 140.985 48.0378 140.26 48.0378H139V50.4465H140.26C140.985 50.4465 141.385 50.0145 141.385 49.2392Z" fill="white"/>
<path d="M146.587 50.8016H145.651V53.3229H144.82V47.2388H147.17C148.277 47.2388 148.954 47.9667 148.954 49.0202C148.954 49.9494 148.418 50.6359 147.529 50.778L149.078 53.3229H148.042L146.587 50.8016ZM145.651 50.0027H147.164C147.771 50.0027 148.089 49.6535 148.089 49.0202C148.089 48.3869 147.771 48.0378 147.164 48.0378H145.651V50.0027Z" fill="white"/>
<path d="M151.129 50.2805C151.129 48.4221 152.33 47.126 153.956 47.126C155.581 47.126 156.794 48.4221 156.794 50.2805C156.794 52.1389 155.593 53.435 153.956 53.435C152.318 53.435 151.129 52.1389 151.129 50.2805ZM155.928 50.2805C155.928 48.8837 155.122 47.925 153.956 47.925C152.79 47.925 151.995 48.8837 151.995 50.2805C151.995 51.6772 152.79 52.636 153.956 52.636C155.122 52.636 155.928 51.6831 155.928 50.2805Z" fill="white"/>
<path d="M164.235 50.2808C164.235 52.1392 163.034 53.3229 161.397 53.3229H159.365V47.2388H161.397C163.034 47.2388 164.235 48.4224 164.235 50.2808ZM163.37 50.2808C163.37 48.9137 162.598 48.0378 161.397 48.0378H160.196V52.5239H161.397C162.598 52.5239 163.37 51.648 163.37 50.2808Z" fill="white"/>
<path d="M166.766 50.5531V47.2388H167.62V50.5531C167.62 52.0623 168.008 52.6363 169.027 52.6363C170.046 52.6363 170.429 52.08 170.429 50.5531V47.2388H171.282V50.5531C171.282 52.2102 170.782 53.4353 169.027 53.4353C167.272 53.4353 166.76 52.2457 166.76 50.5531H166.766Z" fill="white"/>
<path d="M173.822 50.2805C173.822 48.4103 175.024 47.126 176.614 47.126C177.627 47.126 178.422 47.6468 178.851 48.2801L178.162 48.7654C177.809 48.215 177.244 47.925 176.614 47.925C175.501 47.925 174.67 48.8719 174.67 50.2805C174.67 51.6891 175.477 52.636 176.614 52.636C177.261 52.636 177.85 52.3223 178.204 51.7305L178.887 52.2158C178.369 53.0503 177.497 53.435 176.602 53.435C175 53.435 173.816 52.1329 173.816 50.2805H173.822Z" fill="white"/>
<path d="M185.372 48.02H183.564V53.3229H182.734V48.02H180.926V47.2388H185.372V48.02Z" fill="white"/>
<path d="M187.33 52.6833L187.736 51.9553C188.231 52.3637 188.955 52.6359 189.621 52.6419C190.357 52.6537 190.863 52.3104 190.863 51.6712C190.863 50.9314 190.204 50.8427 189.556 50.7065C187.954 50.3574 187.483 49.9253 187.483 49.0198C187.483 47.558 188.696 47.1318 189.697 47.1318C190.422 47.1318 191.064 47.3508 191.611 47.7118L191.211 48.4161C190.71 48.0788 190.227 47.9308 189.674 47.9308C188.802 47.9308 188.361 48.3214 188.361 48.9665C188.361 49.4814 188.643 49.7123 189.709 49.9253C190.392 50.0555 191.741 50.2804 191.741 51.6476C191.741 52.707 190.911 53.4704 189.603 53.4468C188.643 53.429 187.719 53.0147 187.33 52.6892V52.6833Z" fill="white"/>
<path d="M90.4067 37.2009V40.7934C90.4067 40.9058 90.4361 40.9946 90.5009 41.0597C90.5598 41.1248 90.6187 41.1544 90.6893 41.1544H90.8778V41.8291H90.4832C90.1947 41.8291 89.965 41.7166 89.7942 41.4977C89.382 41.7877 88.9462 41.9356 88.4692 41.9356C87.8096 41.9356 87.2855 41.6752 86.9028 41.1544C86.5848 40.7283 86.4316 40.2252 86.4316 39.6334C86.4316 38.9409 86.6613 38.3728 87.1148 37.917C87.5152 37.5027 88.0099 37.3015 88.5988 37.3015C88.9344 37.3015 89.2701 37.3785 89.6117 37.5264L90.018 37.2009H90.4126H90.4067ZM89.6058 38.1893C89.329 38.0472 89.0463 37.9821 88.7637 37.9821C88.2866 37.9821 87.898 38.1715 87.6035 38.5503C87.3562 38.8581 87.2325 39.2309 87.2325 39.6511C87.2325 40.1601 87.3503 40.5566 87.5918 40.8466C87.8273 41.113 88.1394 41.2432 88.534 41.2432C88.8755 41.2432 89.2289 41.1544 89.5999 40.965V38.1834L89.6058 38.1893ZM88.7931 35.3662C88.9168 35.3662 89.0287 35.4136 89.117 35.5023C89.2053 35.597 89.2524 35.7036 89.2524 35.8278C89.2524 35.958 89.2053 36.0764 89.117 36.1652C89.0228 36.254 88.9168 36.3013 88.7931 36.3013C88.6694 36.3013 88.5575 36.254 88.4692 36.1652C88.375 36.0764 88.3338 35.958 88.3338 35.8278C88.3338 35.6976 88.3809 35.5911 88.4692 35.5023C88.5575 35.4136 88.6694 35.3662 88.7931 35.3662ZM89.9355 35.3662C90.0651 35.3662 90.177 35.4136 90.2712 35.5023C90.3596 35.597 90.4067 35.7036 90.4067 35.8278C90.4067 35.958 90.3596 36.0764 90.2712 36.1652C90.177 36.254 90.0651 36.3013 89.9355 36.3013C89.806 36.3013 89.7 36.254 89.6117 36.1652C89.5174 36.0764 89.4762 35.958 89.4762 35.8278C89.4762 35.6976 89.5233 35.5911 89.6117 35.5023C89.7 35.4136 89.8119 35.3662 89.9355 35.3662Z" fill="white"/>
<path d="M92.5596 41.1479V41.8226H90.8105V41.1479H92.5596Z" fill="white"/>
<path d="M100.823 14.533C98.8443 13.9826 96.8715 13.4322 94.8928 12.8818C94.1802 12.6806 93.45 12.4793 92.8435 12.0473C91.383 11.0175 91.6362 9.48463 92.9377 8.56728C94.5689 7.41911 96.7773 7.17054 98.7088 7.17054C100.964 7.17054 104.833 7.75646 107.678 11.1418L111.27 8.03462C111.346 7.9636 110.192 6.6438 110.122 6.56686C105.988 2.09848 99.0622 1.25215 93.4618 2.95664C93.2204 3.03358 92.973 3.11052 92.7375 3.19338C90.0521 4.1344 87.6376 5.89808 86.9369 8.80993C86.136 12.1242 87.9733 15.0598 90.8177 16.6281C93.3558 18.0249 96.2649 18.4392 99.0386 19.1257C100.517 19.4926 102.007 19.8418 103.426 20.4041C104.321 20.7592 106.983 21.7357 106.535 23.0969C106.064 24.5173 104.386 25.0737 103.078 25.3459C100.57 25.8667 97.9315 25.7898 95.4581 25.121C94.457 24.8547 93.4971 24.4463 92.6079 23.9137C92.3429 23.7539 89.7812 21.7771 89.9402 21.641C87.8261 23.4343 86.2655 24.831 86.2655 24.831C86.1477 24.9375 87.8732 26.6124 87.9792 26.7012C89.6399 28.1572 91.6362 29.2047 93.7327 29.8735C98.6617 31.4359 105.452 31.3353 109.409 27.4884C110.728 26.21 111.494 24.4996 111.494 22.653C111.494 17.1371 104.986 15.6989 100.823 14.5389V14.533Z" fill="white"/>
<path d="M120.444 2.35889H115.557V30.3588H120.444V2.35889Z" fill="white"/>
<path d="M158.079 2.35889H153.191V30.3588H158.079V2.35889Z" fill="white"/>
<path d="M186.013 30.3588H191.714L179.005 4.38298L178.646 3.6491L178.016 2.35889H174.483L173.853 3.65501L173.493 4.38298L160.785 30.3588H166.486L170.09 22.8839H182.333L186.019 30.3588H186.013ZM172.528 17.8296L176.143 10.331L179.842 17.8296H172.534H172.528Z" fill="white"/>
<path d="M143.766 3.89079C140.775 2.29874 137.448 2.3165 135.021 2.32833L129.168 2.35793H125.711V30.3578H130.599V22.0366C131.806 22.0366 133.007 22.0366 134.215 22.0366C134.627 22.0366 135.045 22.0366 135.457 22.0425C135.84 22.0425 136.223 22.0543 136.611 22.0543C136.682 22.0543 136.753 22.0543 136.829 22.0543C138.396 23.2321 139.568 24.2915 140.41 25.6231C140.551 25.8421 140.698 26.1084 140.851 26.3866C141.364 27.3099 142.006 28.458 143.13 29.334C144.791 30.6182 146.699 30.7958 148.348 30.7958H148.36V25.6468H148.348C147.524 25.6468 146.699 25.5995 146.263 25.2562C145.969 25.0254 145.645 24.4394 145.327 23.8772C145.144 23.5458 144.95 23.2025 144.726 22.8533C144.255 22.1135 143.725 21.4507 143.166 20.8351C145.645 19.6278 147.588 17.4262 148.401 14.8812C149.161 12.4961 148.99 9.98081 147.93 7.9804C147.035 6.2759 145.592 4.86732 143.766 3.89079ZM143.519 13.3129C143.119 14.5794 142.1 15.6802 140.798 16.2661C140.368 16.4615 139.909 16.6035 139.426 16.6982C138.225 16.9349 136.906 16.9172 135.516 16.8994C135.068 16.8994 134.627 16.8876 134.185 16.8876C132.99 16.8876 131.788 16.8876 130.593 16.8876V7.50101L135.045 7.47733C137.489 7.4655 139.65 7.5306 141.37 8.44203C142.271 8.92142 142.995 9.61388 143.401 10.3892C143.802 11.1527 143.849 12.2712 143.519 13.3129Z" fill="white"/>
<path d="M94.2392 41.1479V41.8226H92.4902V41.1479H94.2392Z" fill="white"/>
<path d="M95.9209 41.1479V41.8226H94.1719V41.1479H95.9209Z" fill="white"/>
<path d="M97.1726 38.9995C97.3905 38.4432 97.7615 38.0111 98.2797 37.6974C98.6978 37.4548 99.1277 37.3364 99.5753 37.3364C100.023 37.3364 100.453 37.4548 100.859 37.6974C101.383 38.0052 101.748 38.4432 101.966 38.9995L101.884 39.2303C101.448 39.4138 101.095 39.6624 100.818 39.9819C100.535 40.3134 100.353 40.6981 100.282 41.1479H102.066V41.8226H100.146C99.958 41.8226 99.7755 41.7338 99.5988 41.5444H99.5694C99.3986 41.7279 99.216 41.8226 99.0217 41.8226H95.8652V41.1479H98.8804C98.8097 40.7632 98.6566 40.3962 98.4092 40.053C98.1266 39.6979 97.7497 39.4256 97.2727 39.2244L97.1785 38.9936L97.1726 38.9995ZM101.095 38.9048C100.888 38.603 100.653 38.3721 100.388 38.2183C100.135 38.0881 99.8638 38.017 99.5753 38.017C99.2867 38.017 99.0217 38.0762 98.792 38.2005C98.5153 38.3426 98.2679 38.5734 98.0559 38.9048C98.3857 39.0528 98.6625 39.254 98.898 39.5203C99.1866 39.8517 99.4104 40.2601 99.5576 40.7573H99.587C99.746 40.2424 99.9698 39.8221 100.27 39.4966C100.512 39.2421 100.788 39.0468 101.1 38.9107L101.095 38.9048Z" fill="white"/>
<path d="M103.737 41.1479V41.8226H101.988V41.1479H103.737Z" fill="white"/>
<path d="M106.179 37.4546V40.9228C106.179 40.9997 106.167 41.0766 106.149 41.1477H106.65V41.8224H106.279L106.002 41.4909H105.972C105.802 41.7099 105.584 41.8224 105.313 41.8224H103.67V41.1477H105.013C105.113 41.1477 105.195 41.1181 105.26 41.053C105.336 40.982 105.372 40.8932 105.372 40.7866V37.4546H106.173H106.179ZM104.565 42.8107C104.689 42.8107 104.801 42.8581 104.889 42.9469C104.977 43.0356 105.024 43.1481 105.024 43.2724C105.024 43.4026 104.977 43.515 104.889 43.6097C104.795 43.6985 104.689 43.7458 104.565 43.7458C104.441 43.7458 104.329 43.6985 104.241 43.6097C104.153 43.5209 104.106 43.4026 104.106 43.2724C104.106 43.1422 104.153 43.0356 104.241 42.9469C104.329 42.8522 104.441 42.8107 104.565 42.8107ZM105.707 42.8107C105.837 42.8107 105.949 42.8581 106.043 42.9469C106.137 43.0356 106.179 43.1481 106.179 43.2724C106.179 43.4026 106.131 43.515 106.043 43.6097C105.949 43.6985 105.837 43.7458 105.707 43.7458C105.578 43.7458 105.472 43.6985 105.384 43.6097C105.295 43.5209 105.248 43.4026 105.248 43.2724C105.248 43.1422 105.295 43.0356 105.384 42.9469C105.472 42.8522 105.584 42.8107 105.707 42.8107Z" fill="white"/>
<path d="M109.085 37.4546V40.9228C109.085 40.9997 109.073 41.0766 109.055 41.1477H109.556V41.8224H109.185L108.908 41.4909H108.879C108.708 41.7099 108.49 41.8224 108.219 41.8224H106.576V41.1477H107.919C108.019 41.1477 108.101 41.1181 108.166 41.053C108.243 40.982 108.278 40.8932 108.278 40.7866V37.4546H109.079H109.085ZM108.614 42.8107C108.743 42.8107 108.855 42.8581 108.949 42.9469C109.044 43.0356 109.085 43.1481 109.085 43.2724C109.085 43.4026 109.038 43.515 108.949 43.6097C108.855 43.6985 108.743 43.7458 108.614 43.7458C108.484 43.7458 108.378 43.6985 108.29 43.6097C108.202 43.5209 108.154 43.4026 108.154 43.2724C108.154 43.1422 108.202 43.0356 108.29 42.9469C108.378 42.8522 108.49 42.8107 108.614 42.8107Z" fill="white"/>
<path d="M111.989 35.022V39.5437C112.843 38.0759 113.98 37.342 115.381 37.342C116.135 37.342 116.747 37.5729 117.207 38.0345C117.625 38.4606 117.831 38.9992 117.831 39.6561V40.9167C117.831 40.9996 117.819 41.0765 117.801 41.1416H118.131V41.8163H117.931L117.654 41.4849H117.625C117.448 41.7039 117.23 41.8163 116.965 41.8163H109.492V41.1416H111.194V35.0161H111.989V35.022ZM117.018 39.5733C117.018 39.0465 116.824 38.6441 116.429 38.3659C116.129 38.1469 115.74 38.0345 115.269 38.0345C114.733 38.0345 114.227 38.2002 113.756 38.5257C113.026 39.0465 112.437 39.9165 111.989 41.1476H116.665C116.9 41.1476 117.012 41.0292 117.012 40.7865V39.5733H117.018Z" fill="white"/>
<path d="M120.557 35.0225V40.9231C120.557 41.1717 120.475 41.3788 120.31 41.5504C120.139 41.7339 119.933 41.8286 119.698 41.8286H118.055V41.1539H119.397C119.515 41.1539 119.609 41.1125 119.674 41.0296C119.733 40.9586 119.757 40.8817 119.757 40.7929V35.0284H120.557V35.0225Z" fill="white"/>
<path d="M122.666 35.022V41.7275L122.26 42.0589H121.865V35.022H122.666Z" fill="white"/>
<path d="M133.445 37.4552V40.9234C133.445 41.1483 133.374 41.3495 133.239 41.5152C133.062 41.7223 132.85 41.8289 132.597 41.8289H127.191C126.826 41.8289 126.508 41.7105 126.249 41.4678C125.89 41.1601 125.713 40.7576 125.713 40.2605V38.4731L126.119 38.1417H126.514V40.2605C126.514 40.5091 126.602 40.7162 126.779 40.8878C126.95 41.0654 127.162 41.1542 127.421 41.1542H132.285C132.526 41.1542 132.644 41.0358 132.644 40.7931V37.4611H133.445V37.4552ZM129.011 37.2007C129.134 37.2007 129.246 37.248 129.335 37.3368C129.423 37.4256 129.47 37.538 129.47 37.6742C129.47 37.8103 129.423 37.9109 129.335 37.9997C129.246 38.0884 129.134 38.1358 129.011 38.1358C128.887 38.1358 128.769 38.0884 128.681 37.9997C128.593 37.9109 128.551 37.7984 128.551 37.6742C128.551 37.5439 128.598 37.4315 128.681 37.3368C128.769 37.2421 128.881 37.2007 129.011 37.2007ZM130.153 37.2007C130.283 37.2007 130.395 37.248 130.489 37.3368C130.583 37.4256 130.624 37.538 130.624 37.6742C130.624 37.8103 130.577 37.9109 130.489 37.9997C130.4 38.0884 130.283 38.1358 130.153 38.1358C130.024 38.1358 129.918 38.0884 129.829 37.9997C129.735 37.9109 129.694 37.7984 129.694 37.6742C129.694 37.5439 129.741 37.4315 129.829 37.3368C129.918 37.2421 130.029 37.2007 130.153 37.2007Z" fill="white"/>
<path d="M135.555 35.022V40.7865C135.555 40.8872 135.584 40.9759 135.649 41.041C135.72 41.1121 135.808 41.1476 135.914 41.1476H136.038V41.8223H135.602C135.402 41.8223 135.225 41.7572 135.072 41.621C134.86 41.4376 134.748 41.2008 134.748 40.9167V35.0161H135.549L135.555 35.022Z" fill="white"/>
<path d="M137.726 41.1479V41.8226H135.977V41.1479H137.726Z" fill="white"/>
<path d="M138.913 37.6146C139.49 37.4311 140.031 37.3364 140.538 37.3364C141.321 37.3364 141.916 37.5791 142.322 38.0703C142.676 38.4905 142.852 39.035 142.852 39.7156V40.923C142.852 40.9999 142.84 41.0768 142.823 41.1479H143.153V41.8226H142.952L142.687 41.4911H142.658C142.481 41.7101 142.263 41.8226 141.998 41.8226H137.652V41.1479H141.686C141.928 41.1479 142.045 41.0295 142.045 40.7868V39.686C142.045 39.1948 141.916 38.8042 141.657 38.5201C141.374 38.2064 140.962 38.0466 140.42 38.0466C140.09 38.0466 139.59 38.1177 138.907 38.2538V37.6146H138.913ZM140.037 42.8109C140.167 42.8109 140.279 42.8583 140.373 42.9471C140.467 43.0358 140.508 43.1483 140.508 43.2726C140.508 43.4028 140.461 43.5152 140.373 43.6099C140.279 43.6987 140.167 43.746 140.037 43.746C139.908 43.746 139.802 43.6987 139.713 43.6099C139.625 43.5152 139.578 43.4028 139.578 43.2726C139.578 43.1424 139.625 43.0358 139.713 42.9471C139.802 42.8524 139.914 42.8109 140.037 42.8109Z" fill="white"/>
<path d="M144.839 41.1479V41.8226H143.09V41.1479H144.839Z" fill="white"/>
<path d="M147.276 37.4554V40.9236C147.276 41.0005 147.264 41.0775 147.247 41.1485H147.747V41.8232H147.376L147.1 41.4917H147.07C146.899 41.7107 146.681 41.8232 146.411 41.8232H144.768V41.1485H146.11C146.21 41.1485 146.293 41.1189 146.358 41.0538C146.434 40.9828 146.469 40.894 146.469 40.7875V37.4554H147.27H147.276ZM145.745 35.3662C145.875 35.3662 145.987 35.4136 146.075 35.5023C146.163 35.597 146.204 35.7036 146.204 35.8278C146.204 35.958 146.163 36.0764 146.075 36.1652C145.987 36.254 145.875 36.3013 145.745 36.3013C145.616 36.3013 145.51 36.254 145.421 36.1652C145.327 36.0764 145.286 35.958 145.286 35.8278C145.286 35.6976 145.333 35.5911 145.421 35.5023C145.51 35.4136 145.621 35.3662 145.745 35.3662ZM146.899 35.3662C147.023 35.3662 147.135 35.4136 147.223 35.5023C147.312 35.5911 147.359 35.7036 147.359 35.8278C147.359 35.958 147.312 36.0764 147.223 36.1652C147.135 36.254 147.023 36.3013 146.899 36.3013C146.77 36.3013 146.658 36.254 146.564 36.1652C146.469 36.0764 146.428 35.958 146.428 35.8278C146.428 35.6976 146.475 35.5911 146.564 35.5023C146.652 35.4136 146.764 35.3662 146.899 35.3662Z" fill="white"/>
<path d="M150.183 37.4554V40.9236C150.183 41.0005 150.171 41.0775 150.153 41.1485H150.654V41.8232H150.283L150.006 41.4917H149.976C149.806 41.7107 149.588 41.8232 149.317 41.8232H147.674V41.1485H149.017C149.117 41.1485 149.199 41.1189 149.264 41.0538C149.34 40.9828 149.376 40.894 149.376 40.7875V37.4554H150.177H150.183ZM149.776 35.3662C149.906 35.3662 150.018 35.4136 150.112 35.5023C150.206 35.5911 150.247 35.7036 150.247 35.8278C150.247 35.958 150.2 36.0764 150.112 36.1652C150.024 36.254 149.912 36.3013 149.776 36.3013C149.641 36.3013 149.541 36.254 149.452 36.1652C149.358 36.0764 149.317 35.958 149.317 35.8278C149.317 35.6976 149.364 35.5911 149.452 35.5023C149.541 35.4136 149.653 35.3662 149.776 35.3662Z" fill="white"/>
<path d="M152.457 41.1478C152.198 40.7216 152.068 40.2422 152.068 39.6918C152.068 38.9284 152.28 38.3365 152.71 37.9163C153.093 37.5494 153.599 37.36 154.229 37.3481C154.683 37.3481 155.06 37.4488 155.354 37.6441C155.807 37.9459 156.037 38.4253 156.037 39.0704V40.7867C156.037 40.8755 156.061 40.9524 156.102 41.0175C156.161 41.1004 156.231 41.1418 156.326 41.1478H156.343V41.8224H156.108C155.825 41.8224 155.595 41.71 155.431 41.491C155.089 41.9053 154.659 42.1065 154.135 42.1065C153.611 42.1065 153.11 41.8994 152.71 41.491H152.692L152.427 41.8224H150.596V41.1478H152.457ZM155.236 39.0704C155.236 38.739 155.13 38.4786 154.924 38.2833C154.742 38.1116 154.506 38.0288 154.217 38.0288C153.817 38.0288 153.487 38.1767 153.246 38.4786C152.998 38.7804 152.875 39.171 152.875 39.6622C152.875 40.1771 153.004 40.6033 153.263 40.9465C153.511 41.278 153.817 41.4378 154.188 41.4378C154.559 41.4378 154.901 41.272 155.236 40.9347V39.0704Z" fill="white"/>
<path d="M158.774 35.022V40.9226C158.774 41.1712 158.692 41.3783 158.527 41.55C158.356 41.7334 158.15 41.8281 157.914 41.8281H156.271V41.1534H157.614C157.732 41.1534 157.826 41.112 157.891 41.0291C157.95 40.9581 157.973 40.8812 157.973 40.7924V35.0279H158.774V35.022Z" fill="white"/>
<path d="M162.621 35.022V40.7865C162.621 40.8872 162.651 40.9759 162.715 41.041C162.786 41.1121 162.874 41.1476 162.98 41.1476H163.104V41.8223H162.668C162.468 41.8223 162.291 41.7572 162.138 41.621C161.926 41.4376 161.814 41.2008 161.814 40.9167V35.0161H162.615L162.621 35.022Z" fill="white"/>
<path d="M164.786 41.1479V41.8226H163.037V41.1479H164.786Z" fill="white"/>
<path d="M166.472 41.1479V41.8226H164.723V41.1479H166.472Z" fill="white"/>
<path d="M168.911 37.4541V40.9223C168.911 41.159 168.834 41.3602 168.687 41.5319C168.516 41.7272 168.304 41.8278 168.051 41.8278H166.408V41.1531H167.751C167.857 41.1531 167.945 41.1176 168.016 41.0406C168.081 40.9755 168.11 40.8927 168.11 40.7921V37.46H168.911V37.4541ZM167.209 42.8102C167.333 42.8102 167.445 42.8576 167.533 42.9464C167.621 43.0351 167.668 43.1476 167.668 43.2719C167.668 43.4021 167.621 43.5145 167.533 43.6092C167.439 43.698 167.333 43.7453 167.209 43.7453C167.08 43.7453 166.962 43.698 166.873 43.6092C166.785 43.5145 166.738 43.4021 166.738 43.2719C166.738 43.1417 166.785 43.0351 166.873 42.9464C166.962 42.8517 167.08 42.8102 167.209 42.8102ZM168.352 42.8102C168.481 42.8102 168.593 42.8576 168.681 42.9464C168.77 43.0351 168.811 43.1476 168.811 43.2719C168.811 43.4021 168.77 43.5145 168.681 43.6092C168.593 43.698 168.481 43.7453 168.352 43.7453C168.222 43.7453 168.116 43.698 168.028 43.6092C167.939 43.5205 167.892 43.4021 167.892 43.2719C167.892 43.1417 167.939 43.0351 168.028 42.9464C168.116 42.8517 168.228 42.8102 168.352 42.8102Z" fill="white"/>
<path d="M172.696 37.4551V41.1482H173.179V41.8229H172.696C172.678 42.616 172.396 43.2078 171.854 43.5984C171.418 43.9239 170.853 44.0837 170.164 44.0837C170.058 44.0837 169.922 44.0837 169.757 44.0719L169.445 43.6813V43.3794C169.628 43.4031 169.828 43.415 170.04 43.415C171.277 43.415 171.895 42.8468 171.895 41.7045V37.4492H172.696V37.4551Z" fill="white"/>
<path d="M174.864 41.1479V41.8226H173.115V41.1479H174.864Z" fill="white"/>
<path d="M176.544 41.1479V41.8226H174.795V41.1479H176.544Z" fill="white"/>
<path d="M178.226 41.1479V41.8226H176.477V41.1479H178.226Z" fill="white"/>
<path d="M180.667 37.4541V40.9223C180.667 40.9992 180.655 41.0762 180.637 41.1472H181.138V41.8219H180.767L180.49 41.4904H180.461C180.29 41.7094 180.072 41.8219 179.801 41.8219H178.158V41.1472H179.501C179.601 41.1472 179.683 41.1176 179.748 41.0525C179.825 40.9815 179.86 40.8927 179.86 40.7862V37.4541H180.661H180.667ZM179.053 42.8102C179.177 42.8102 179.289 42.8576 179.377 42.9464C179.466 43.0351 179.513 43.1476 179.513 43.2719C179.513 43.4021 179.466 43.5145 179.377 43.6092C179.283 43.698 179.177 43.7453 179.053 43.7453C178.93 43.7453 178.818 43.698 178.729 43.6092C178.641 43.5205 178.594 43.4021 178.594 43.2719C178.594 43.1417 178.641 43.0351 178.729 42.9464C178.818 42.8517 178.93 42.8102 179.053 42.8102ZM180.196 42.8102C180.325 42.8102 180.437 42.8576 180.531 42.9464C180.626 43.0351 180.667 43.1476 180.667 43.2719C180.667 43.4021 180.62 43.5145 180.531 43.6092C180.437 43.698 180.325 43.7453 180.196 43.7453C180.066 43.7453 179.96 43.698 179.872 43.6092C179.784 43.5205 179.736 43.4021 179.736 43.2719C179.736 43.1417 179.784 43.0351 179.872 42.9464C179.96 42.8517 180.072 42.8102 180.196 42.8102Z" fill="white"/>
<path d="M182.821 41.1479V41.8226H181.072V41.1479H182.821Z" fill="white"/>
<path d="M191.74 37.4551V40.9233C191.74 41.1719 191.658 41.385 191.487 41.5625C191.322 41.7401 191.122 41.8288 190.887 41.8288H189.061L188.761 41.4974H188.731C188.554 41.7164 188.337 41.8288 188.072 41.8288H186.258L185.946 41.4974H185.916C185.74 41.7164 185.522 41.8288 185.257 41.8288H182.754V41.1541H184.945C185.186 41.1541 185.304 41.0358 185.304 40.7931V38.55H186.105V40.9233C186.105 41.0062 186.099 41.0831 186.087 41.1482H187.759C188.001 41.1482 188.119 41.0298 188.119 40.7872V37.9937H188.92V40.9174C188.92 41.0003 188.908 41.0772 188.89 41.1423H190.574C190.816 41.1423 190.934 41.0239 190.934 40.7813V37.4492H191.735L191.74 37.4551Z" fill="white"/>
<defs>
<linearGradient id="paint0_linear_1_14653" x1="6.66992" y1="43.6994" x2="75.0934" y2="43.6994" gradientUnits="userSpaceOnUse">
<stop offset="0.06" stop-color="#A4C241"/>
<stop offset="0.32" stop-color="#58B0E0"/>
</linearGradient>
</defs>
</svg>
