<svg width="69" height="50" viewBox="0 0 69 50" fill="none" xmlns="http://www.w3.org/2000/svg">
<path d="M17.1372 3.79964L17.1372 3.79961L17.149 3.7933C17.9008 3.39191 18.6496 3.24091 19.359 3.17494C19.9931 3.11598 20.7349 3.11607 21.512 3.11616L21.6024 3.11616H57.2736C57.3229 3.11616 57.372 3.11616 57.421 3.11615C58.8326 3.11598 60.1294 3.11582 61.1849 3.25781C62.3487 3.41438 63.5816 3.78325 64.5965 4.79807C65.6113 5.81289 65.9802 7.0458 66.1367 8.20964C66.2787 9.26509 66.2786 10.5619 66.2784 11.9735C66.2784 12.0225 66.2784 12.0717 66.2784 12.1209V38.2297C66.2784 38.279 66.2784 38.3282 66.2784 38.3772C66.2786 39.7888 66.2787 41.0856 66.1367 42.1411C65.9802 43.3049 65.6113 44.5378 64.5965 45.5526C63.5816 46.5674 62.3487 46.9363 61.1849 47.0929C60.1294 47.2349 58.8326 47.2347 57.421 47.2345C57.372 47.2345 57.3229 47.2345 57.2736 47.2345H21.6024L21.5121 47.2345C20.735 47.2346 19.9931 47.2347 19.359 47.1758C18.6496 47.1098 17.9008 46.9588 17.149 46.5574L17.1414 46.5533C16.3934 46.1505 15.8531 45.613 15.4041 45.0596C14.9997 44.5609 14.5855 43.9395 14.1514 43.2882L14.1103 43.2267L14.1102 43.2264L5.40941 30.172L5.40839 30.1705L5.33639 30.0623C4.80929 29.2705 4.3102 28.5207 3.95745 27.8432C3.56069 27.0812 3.23764 26.2115 3.23764 25.1753C3.23764 24.1415 3.55832 23.2726 3.95591 22.5085C4.31419 21.8199 4.82251 21.0597 5.36028 20.2554L5.40942 20.1819L5.41134 20.179L14.1102 7.12754L14.1111 7.12621L14.1541 7.06165C14.589 6.41003 15.0029 5.78976 15.4058 5.29249C15.8533 4.74022 16.3918 4.20285 17.1372 3.79964Z" stroke="white" stroke-width="4.95517"/>
<path d="M24.64 30.9952C21.4259 30.9952 18.8203 28.3896 18.8203 25.1754C18.8203 21.9612 21.4259 19.3556 24.64 19.3556C27.8542 19.3556 30.4598 21.9612 30.4598 25.1754C30.4598 28.3896 27.8542 30.9952 24.64 30.9952Z" stroke="white" stroke-width="1.98207"/>
</svg>
