<svg width="20" height="21" viewBox="0 0 20 21" fill="none" xmlns="http://www.w3.org/2000/svg">
<rect width="20" height="20" transform="translate(0 0.287109)" fill="#58B0E0"/>
<path d="M10.7508 10.2842L16.3788 4.65073C16.478 4.55095 16.5337 4.41589 16.5337 4.27512C16.5336 4.13436 16.4777 3.99937 16.3783 3.89973C16.1793 3.70173 15.8288 3.70073 15.6278 3.90073L10.0013 9.53423L4.37276 3.89923C4.17276 3.70173 3.82226 3.70273 3.62326 3.90023C3.57387 3.94942 3.53477 4.00797 3.50824 4.07244C3.48171 4.13691 3.46829 4.20601 3.46876 4.27573C3.46876 4.41773 3.52376 4.55073 3.62326 4.64923L9.25126 10.2837L3.62376 15.9187C3.52445 16.0187 3.46884 16.1539 3.46912 16.2948C3.4694 16.4357 3.52556 16.5707 3.62526 16.6702C3.72176 16.7657 3.85826 16.8207 3.99926 16.8207H4.00226C4.14376 16.8202 4.28026 16.7647 4.37476 16.6682L10.0013 11.0347L15.6298 16.6697C15.7293 16.7687 15.8623 16.8237 16.0033 16.8237C16.073 16.8239 16.1421 16.8103 16.2065 16.7837C16.271 16.7572 16.3295 16.7181 16.3788 16.6688C16.4281 16.6195 16.4672 16.5609 16.4938 16.4965C16.5204 16.432 16.534 16.363 16.5338 16.2932C16.5338 16.1517 16.4788 16.0182 16.3788 15.9197L10.7508 10.2842Z" fill="white"/>
</svg>
