<svg width="36" height="37" viewBox="0 0 36 37" fill="none" xmlns="http://www.w3.org/2000/svg">
<rect y="0.59375" width="36" height="36" rx="5" fill="#DC3545"/>
<path d="M28 12.1706H26.4615V26.545C26.4615 26.8054 26.4014 27.0495 26.2812 27.2774C26.1611 27.5052 25.9968 27.7038 25.7885 27.8731C25.5801 28.0423 25.3357 28.1758 25.0553 28.2734C24.7748 28.3711 24.4744 28.4199 24.1538 28.4199H11.8462C11.5256 28.4199 11.2252 28.3711 10.9447 28.2734C10.6643 28.1758 10.4199 28.0423 10.2115 27.8731C10.0032 27.7038 9.83894 27.5052 9.71875 27.2774C9.59856 27.0495 9.53846 26.8054 9.53846 26.545V12.1706H8V10.9206H14.1538V9.67068C14.1538 9.49491 14.1939 9.33216 14.274 9.18242C14.3542 9.03269 14.4623 8.90249 14.5986 8.79181C14.7348 8.68114 14.899 8.59 15.0913 8.51839C15.2837 8.44678 15.484 8.41423 15.6923 8.42074H20.3077C20.524 8.42074 20.7244 8.45329 20.9087 8.51839C21.0929 8.58349 21.2532 8.67138 21.3894 8.78205C21.5256 8.89272 21.6378 9.02618 21.726 9.18242C21.8141 9.33867 21.8542 9.50142 21.8462 9.67068V10.9206H28V12.1706ZM15.6923 10.9206H20.3077V9.67068H15.6923V10.9206ZM24.9231 12.1706H11.0769V26.545C11.0769 26.7143 11.153 26.8607 11.3053 26.9844C11.4575 27.1081 11.6378 27.17 11.8462 27.17H24.1538C24.3622 27.17 24.5425 27.1081 24.6947 26.9844C24.847 26.8607 24.9231 26.7143 24.9231 26.545V12.1706ZM15.6923 24.6701H14.1538V14.6705H15.6923V24.6701ZM18.7692 24.6701H17.2308V14.6705H18.7692V24.6701ZM21.8462 24.6701H20.3077V14.6705H21.8462V24.6701Z" fill="white"/>
</svg>
