<svg width="36" height="37" viewBox="0 0 36 37" fill="none" xmlns="http://www.w3.org/2000/svg">
<rect y="0.59375" width="36" height="36" rx="5" fill="#7367F0"/>
<path d="M17.2857 8.59375H22.8259C23.3929 8.59375 23.9375 8.79297 24.3393 9.14453L27.3705 11.7969C27.7723 12.1484 28 12.625 28 13.1211V21.7188C28 22.7539 27.0402 23.5938 25.8571 23.5938H17.2857C16.1027 23.5938 15.1429 22.7539 15.1429 21.7188V10.4688C15.1429 9.43359 16.1027 8.59375 17.2857 8.59375ZM10.1429 13.5938H13.7143V16.0938H10.8571V26.0938H19.4286V24.8438H22.2857V26.7188C22.2857 27.7539 21.3259 28.5938 20.1429 28.5938H10.1429C8.95982 28.5938 8 27.7539 8 26.7188V15.4688C8 14.4336 8.95982 13.5938 10.1429 13.5938Z" fill="white"/>
</svg>
