<svg width="36" height="37" viewBox="0 0 36 37" fill="none" xmlns="http://www.w3.org/2000/svg">
<rect y="0.59375" width="36" height="36" rx="5" fill="#29C92F"/>
<path d="M21.9688 22.0679L23.0799 20.8179C23.2535 20.6226 23.5556 20.7593 23.5556 21.0405V26.7202C23.5556 27.7554 22.809 28.5952 21.8889 28.5952H9.66667C8.74653 28.5952 8 27.7554 8 26.7202V12.9702C8 11.9351 8.74653 11.0952 9.66667 11.0952H19.1632C19.4097 11.0952 19.5347 11.4312 19.3611 11.6304L18.25 12.8804C18.1979 12.939 18.1285 12.9702 18.0521 12.9702H9.66667V26.7202H21.8889V22.2866C21.8889 22.2046 21.9167 22.1265 21.9688 22.0679ZM27.4063 14.1851L18.2882 24.4429L15.1493 24.8335C14.2396 24.9468 13.4653 24.0835 13.566 23.0522L13.9132 19.521L23.0313 9.26318C23.8264 8.36865 25.1111 8.36865 25.9028 9.26318L27.4028 10.9507C28.1979 11.8452 28.1979 13.2944 27.4063 14.1851ZM23.9757 15.3921L21.9583 13.1226L15.5069 20.3843L15.2535 22.9351L17.5208 22.6499L23.9757 15.3921ZM26.2257 12.2788L24.7257 10.5913C24.5833 10.4312 24.3507 10.4312 24.2118 10.5913L23.1389 11.7983L25.1563 14.0679L26.2292 12.8608C26.3681 12.6968 26.3681 12.439 26.2257 12.2788Z" fill="white"/>
</svg>
