<svg width="36" height="36" viewBox="0 0 36 36" fill="none" xmlns="http://www.w3.org/2000/svg">
<rect width="36" height="36" rx="5" transform="matrix(-1 0 0 1 36 0)" fill="#0094C3"/>
<path d="M6.02559 17.8319C6.03309 17.8004 6.02859 17.7667 6.04059 17.7359C6.04509 17.7232 6.05634 17.7164 6.06084 17.7044C6.06834 17.6864 6.06684 17.6662 6.07659 17.6489C8.25159 13.4857 12.9863 10.5029 17.9813 10.5029C22.9771 10.5029 27.7111 13.4812 29.8876 17.6437C29.8973 17.6609 29.8958 17.6812 29.9033 17.6992C29.9086 17.7112 29.9191 17.7179 29.9236 17.7307C29.9356 17.7614 29.9311 17.7952 29.9386 17.8267C29.9521 17.8829 29.9648 17.9369 29.9648 17.9947C29.9648 18.0524 29.9513 18.1057 29.9386 18.1627C29.9311 18.1942 29.9356 18.2279 29.9236 18.2587C29.9191 18.2714 29.9078 18.2782 29.9033 18.2902C29.8958 18.3082 29.8973 18.3284 29.8876 18.3457C27.7118 22.5089 22.9771 25.4917 17.9813 25.4917C12.9863 25.4917 8.25159 22.5134 6.07659 18.3509C6.06609 18.3337 6.06759 18.3134 6.06084 18.2954C6.05634 18.2834 6.04509 18.2767 6.04059 18.2639C6.02859 18.2332 6.03309 18.1994 6.02559 18.1679C6.01284 18.1109 5.99934 18.0569 5.99934 17.9999C5.99934 17.9429 6.01284 17.8882 6.02559 17.8319ZM17.9821 23.9909C22.1933 23.9909 26.3161 21.5977 28.3703 17.9947C26.3048 14.3872 22.1881 12.0022 17.9821 12.0022C13.7723 12.0022 9.64884 14.3962 7.59459 17.9984C9.66009 21.6067 13.7761 23.9909 17.9821 23.9909Z" fill="white"/>
<path d="M17.982 14.999C17.9835 14.999 17.985 14.9998 17.9865 14.9998C19.6402 15.0028 20.9805 16.343 20.9805 17.9968C20.9805 18.2038 20.8125 18.3718 20.6055 18.3718C20.3992 18.3718 20.2312 18.2038 20.2312 17.9968C20.2312 16.7578 19.2225 15.749 17.982 15.749C17.7757 15.749 17.6085 15.5803 17.6085 15.374C17.6085 15.1663 17.775 14.999 17.982 14.999Z" fill="white"/>
<path d="M18 12.75C20.9002 12.75 23.25 15.1005 23.25 18C23.25 20.8995 20.8995 23.25 18 23.25C15.1012 23.25 12.75 20.8988 12.75 18C12.75 15.0998 15.1012 12.75 18 12.75ZM18 22.5C20.4818 22.5 22.5 20.4818 22.5 18C22.5 15.5182 20.4818 13.5 18 13.5C15.5182 13.5 13.5 15.5182 13.5 18C13.5 20.4818 15.5182 22.5 18 22.5Z" fill="white"/>
</svg>
