<svg width="19" height="19" viewBox="0 0 19 19" fill="none" xmlns="http://www.w3.org/2000/svg">
<path d="M10.2852 4.3584L9.16016 4.3584L9.16016 8.8584L4.66016 8.8584L4.66016 9.9834L9.16016 9.9834L9.16016 14.4834L10.2852 14.4834L10.2852 9.9834L14.7852 9.9834L14.7852 8.8584L10.2852 8.8584L10.2852 4.3584ZM16.9047 0.4209C17.4229 0.4209 17.8553 0.59415 18.2018 0.940651C18.5483 1.28715 18.7219 1.7199 18.7227 2.2389L18.7227 16.6029C18.7227 17.1211 18.549 17.5535 18.2018 17.9C17.8545 18.2465 17.4222 18.4201 16.9047 18.4209L2.53953 18.4209C2.02203 18.4209 1.58966 18.2473 1.24241 17.9C0.895159 17.5528 0.721909 17.1204 0.722658 16.6029L0.72266 2.23777C0.72266 1.72027 0.89591 1.2879 1.24241 0.940649C1.58891 0.593399 2.02166 0.420149 2.54066 0.420899L16.9047 0.4209ZM16.9047 1.5459L2.53954 1.5459C2.36703 1.5459 2.20841 1.6179 2.06366 1.7619C1.91891 1.9059 1.84691 2.0649 1.84766 2.2389L1.84766 16.6029C1.84766 16.7761 1.91966 16.9351 2.06366 17.0799C2.20766 17.2246 2.36666 17.2966 2.54066 17.2959L16.9047 17.2959C17.0779 17.2959 17.2369 17.2239 17.3817 17.0799C17.5264 16.9359 17.5984 16.7769 17.5977 16.6029L17.5977 2.23778C17.5977 2.06528 17.5257 1.90665 17.3817 1.7619C17.2377 1.61715 17.079 1.54515 16.9058 1.5459" fill="white"/>
</svg>
