<svg width="26" height="25" viewBox="0 0 26 25" fill="none" xmlns="http://www.w3.org/2000/svg">
<circle cx="12.7539" cy="12.5" r="12.5" fill="#283760"/>
<path d="M12.8362 9.2169C13.6361 9.35096 14.3628 9.72878 14.9428 10.3077C15.5229 10.8866 15.8985 11.6118 16.0359 12.41M12.9583 6.59961C14.3811 6.84031 15.6787 7.51368 16.7106 8.54048C17.7426 9.57033 18.4143 10.8653 18.6555 12.2851M17.5441 17.9341C17.5441 17.9341 16.7717 18.6927 16.5824 18.9152C16.274 19.2442 15.9107 19.3996 15.4344 19.3996C15.3886 19.3996 15.3397 19.3996 15.2939 19.3966C14.3872 19.3387 13.5445 18.9852 12.9125 18.6836C11.1844 17.8487 9.66703 16.6635 8.40608 15.1614C7.36496 13.9091 6.66885 12.7513 6.20783 11.5082C5.92389 10.7495 5.82008 10.1584 5.86588 9.6008C5.89641 9.24431 6.0338 8.94876 6.28721 8.69587L7.32833 7.65688C7.47793 7.51672 7.63669 7.44055 7.7924 7.44055C7.98475 7.44055 8.14046 7.55633 8.23816 7.65383C8.24121 7.65688 8.24427 7.65993 8.24732 7.66297C8.43356 7.83665 8.61064 8.01641 8.79688 8.20837C8.89153 8.30587 8.98923 8.40337 9.08693 8.50392L9.92044 9.33572C10.2441 9.65869 10.2441 9.95728 9.92044 10.2803C9.83189 10.3686 9.74641 10.457 9.65787 10.5423C9.4014 10.8043 9.60287 10.6033 9.33725 10.8409C9.33114 10.847 9.32503 10.8501 9.32198 10.8562C9.05941 11.1182 9.10826 11.3741 9.16322 11.5478C9.16627 11.5569 9.16932 11.5661 9.17238 11.5752C9.38915 12.0993 9.69446 12.5929 10.1585 13.1809L10.1616 13.184C11.0043 14.2199 11.8927 15.0274 12.8728 15.6459C12.998 15.7251 13.1262 15.7891 13.2483 15.85C13.3582 15.9049 13.462 15.9567 13.5506 16.0115C13.5628 16.0176 13.575 16.0267 13.5872 16.0328C13.691 16.0846 13.7887 16.109 13.8895 16.109C14.1429 16.109 14.3016 15.9506 14.3535 15.8988L14.952 15.3015C15.0558 15.1979 15.2207 15.073 15.413 15.073C15.6023 15.073 15.758 15.1918 15.8527 15.2954C15.8557 15.2985 15.8557 15.2985 15.8588 15.3015L17.5411 16.9804C17.8555 17.2912 17.5441 17.9341 17.5441 17.9341Z" stroke="white" stroke-width="1.5" stroke-linecap="round" stroke-linejoin="round"/>
</svg>
