<svg width="25" height="26" viewBox="0 0 25 26" fill="none" xmlns="http://www.w3.org/2000/svg">
<circle cx="12.5" cy="12.5352" r="12.5" fill="#283760"/>
<path d="M12.5823 9.25205C13.3822 9.38612 14.1088 9.76393 14.6889 10.3428C15.269 10.9218 15.6446 11.6469 15.782 12.4452M12.7044 6.63477C14.1272 6.87547 15.4248 7.54883 16.4567 8.57564C17.4887 9.60549 18.1604 10.9004 18.4016 12.3203M17.2902 17.9692C17.2902 17.9692 16.5178 18.7279 16.3285 18.9503C16.0201 19.2794 15.6568 19.4348 15.1805 19.4348C15.1347 19.4348 15.0858 19.4348 15.04 19.4317C14.1333 19.3738 13.2906 19.0204 12.6586 18.7187C10.9305 17.8839 9.41312 16.6987 8.15218 15.1965C7.11106 13.9443 6.41494 12.7864 5.95392 11.5433C5.66998 10.7846 5.56617 10.1935 5.61197 9.63595C5.6425 9.27947 5.77989 8.98392 6.0333 8.73103L7.07442 7.69204C7.22402 7.55188 7.38279 7.47571 7.5385 7.47571C7.73084 7.47571 7.88655 7.59149 7.98425 7.68899C7.98731 7.69204 7.99036 7.69508 7.99341 7.69813C8.17965 7.8718 8.35673 8.05157 8.54298 8.24352C8.63762 8.34102 8.73532 8.43852 8.83302 8.53907L9.66653 9.37087C9.99016 9.69385 9.99016 9.99244 9.66653 10.3154C9.57799 10.4038 9.4925 10.4921 9.40396 10.5774C9.1475 10.8395 9.34896 10.6384 9.08334 10.8761C9.07723 10.8822 9.07113 10.8852 9.06807 10.8913C8.80551 11.1533 8.85436 11.4093 8.90931 11.583C8.91236 11.5921 8.91542 11.6012 8.91847 11.6104C9.13524 12.1344 9.44056 12.628 9.90463 13.2161L9.90769 13.2191C10.7504 14.2551 11.6388 15.0625 12.6189 15.681C12.744 15.7602 12.8723 15.8242 12.9944 15.8852C13.1043 15.94 13.2081 15.9918 13.2967 16.0467C13.3089 16.0528 13.3211 16.0619 13.3333 16.068C13.4371 16.1198 13.5348 16.1442 13.6356 16.1442C13.889 16.1442 14.0477 15.9857 14.0996 15.9339L14.6981 15.3367C14.8019 15.2331 14.9668 15.1082 15.1591 15.1082C15.3484 15.1082 15.5041 15.227 15.5988 15.3306C15.6018 15.3336 15.6018 15.3336 15.6049 15.3367L17.2871 17.0155C17.6016 17.3263 17.2902 17.9692 17.2902 17.9692Z" stroke="white" stroke-width="1.5" stroke-linecap="round" stroke-linejoin="round"/>
</svg>
