<svg width="72" height="19" viewBox="0 0 72 19" fill="none" xmlns="http://www.w3.org/2000/svg">
<path d="M5.12696 0.522079V1.45266C4.95449 1.43331 4.78104 1.42403 4.60749 1.42486C2.77095 1.42486 1.80073 2.65637 1.80073 4.9861V7.35181H3.50229V8.22434H1.79745V18.4354H0.873047V4.88061C0.873047 3.38252 1.26163 2.20171 1.99624 1.46656C2.6376 0.827094 3.51456 0.5 4.60422 0.5C4.79401 0.5 4.96334 0.50736 5.12696 0.522079Z" fill="white"/>
<path d="M49.6236 0.558594H48.6992V18.4768H49.6236V0.558594Z" fill="white"/>
<path d="M56.7948 2.90857C56.6749 2.75952 56.586 2.58814 56.533 2.4044C56.48 2.22066 56.4641 2.02822 56.4862 1.83829C56.5083 1.64835 56.568 1.4647 56.6618 1.29802C56.7555 1.13135 56.8815 0.984965 57.0323 0.867392C57.1832 0.74982 57.3559 0.663403 57.5405 0.613168C57.7251 0.562933 57.9178 0.549882 58.1075 0.574775C58.2971 0.599667 58.48 0.662006 58.6453 0.758166C58.8107 0.854326 58.9552 0.982388 59.0706 1.1349L63.1609 6.36842C63.192 6.40848 63.2272 6.45019 63.2615 6.48699C62.7606 6.56871 62.2883 6.77503 61.888 7.08697C61.4878 7.39891 61.1724 7.80645 60.971 8.27211C60.945 8.22695 60.9157 8.18377 60.8834 8.1429L56.7948 2.90857Z" fill="white"/>
<path d="M70.807 16.1504C70.9274 16.2992 71.0169 16.4704 71.0705 16.6542C71.124 16.8379 71.1404 17.0305 71.1188 17.2207C71.0971 17.4108 71.0378 17.5948 70.9444 17.7618C70.8509 17.9288 70.7251 18.0756 70.5743 18.1935C70.4235 18.3115 70.2508 18.3982 70.0661 18.4488C69.8815 18.4993 69.6886 18.5127 69.4987 18.488C69.3089 18.4633 69.1258 18.401 68.9603 18.3049C68.7947 18.2088 68.6499 18.0807 68.5344 17.9281L64.4441 12.6946C64.3769 12.607 64.2985 12.5287 64.2109 12.4616C64.7235 12.3832 65.2073 12.1744 65.616 11.8554C66.0247 11.5364 66.3445 11.1177 66.5449 10.6396C66.5911 10.7378 66.6482 10.8305 66.715 10.916L70.807 16.1504Z" fill="white"/>
<path d="M63.3674 12.4811C63.2923 12.5436 63.2243 12.614 63.1646 12.6913L59.0743 17.9248C58.8384 18.2265 58.4924 18.4222 58.1122 18.4688C57.732 18.5154 57.3489 18.4092 57.0471 18.1734C56.7453 17.9377 56.5496 17.5917 56.5029 17.2117C56.4563 16.8317 56.5626 16.4487 56.7984 16.1471L60.8887 10.9135C60.9288 10.8616 60.9651 10.807 60.9975 10.75C61.2135 11.2156 61.5447 11.6185 61.9598 11.9206C62.3749 12.2226 62.8603 12.4139 63.3699 12.4762" fill="white"/>
<path d="M64.3094 6.51514C64.3569 6.47054 64.4009 6.42243 64.4411 6.37122L68.5314 1.13771C68.648 0.988605 68.7928 0.863908 68.9575 0.770739C69.1223 0.677571 69.3038 0.617757 69.4917 0.594711C69.6796 0.571665 69.8702 0.585839 70.0526 0.636424C70.2351 0.687009 70.4057 0.773013 70.5549 0.889528C70.704 1.00604 70.8288 1.15078 70.922 1.31549C71.0152 1.4802 71.075 1.66164 71.0981 1.84946C71.1212 2.03729 71.107 2.22781 71.0564 2.41015C71.0058 2.5925 70.9197 2.76309 70.8032 2.9122L66.7129 8.14571C66.6534 8.22189 66.6021 8.30412 66.5599 8.39103C66.374 7.91367 66.07 7.49129 65.6762 7.16348C65.2825 6.83566 64.8119 6.61315 64.3086 6.51678" fill="white"/>
<path d="M65.704 9.53014C65.7042 9.90637 65.5928 10.2742 65.3838 10.5871C65.1748 10.9 64.8777 11.1439 64.53 11.288C64.1823 11.4321 63.7997 11.4699 63.4305 11.3966C63.0614 11.3233 62.7222 11.1422 62.456 10.8762C62.1899 10.6102 62.0085 10.2713 61.9351 9.90233C61.8616 9.53335 61.8992 9.15087 62.0432 8.80326C62.1872 8.45566 62.4311 8.15855 62.744 7.94952C63.0569 7.74048 63.4249 7.62891 63.8012 7.62891C64.3058 7.62891 64.7896 7.82919 65.1464 8.18572C65.5033 8.54224 65.7038 9.02583 65.704 9.53014Z" fill="white"/>
<path d="M11.5745 7.28125C8.40209 7.28125 6.01172 9.6903 6.01172 12.8852V12.9261C6.01172 16.0973 8.40373 18.4867 11.5745 18.4867C14.7453 18.4867 17.1373 16.0785 17.1373 12.8836V12.8476C17.1373 9.6764 14.7445 7.28697 11.5745 7.28697M16.2522 12.8648V12.9056C16.2522 15.6042 14.2504 17.6412 11.5966 17.6412C8.96328 17.6412 6.90013 15.5608 6.90013 12.9056V12.8648C6.90013 10.1662 8.90111 8.12924 11.5549 8.12924C14.189 8.12924 16.2522 10.2096 16.2522 12.8648Z" fill="white"/>
<path d="M43.3831 8.49665C42.5871 7.701 41.4238 7.29785 39.926 7.29785C38.6719 7.29785 37.5282 7.58488 36.2177 8.22844L36.0304 8.32084L36.3723 9.08951L36.5744 8.9922C37.79 8.40752 38.8175 8.14666 39.9055 8.14666C42.3147 8.14666 43.5868 9.34137 43.5868 11.6016V12.1634C42.4004 11.7975 41.1659 11.6109 39.9243 11.6098C36.9965 11.6098 35.1035 12.9836 35.1035 15.108V15.1498C35.1035 17.4263 37.2174 18.4624 39.1815 18.4624C41.3633 18.4624 42.8628 17.4394 43.5868 16.4295V18.4894H44.4564V11.5803C44.4564 10.2662 44.085 9.19991 43.3815 8.49665M43.5868 13.0531V14.2216C43.5868 15.853 41.9106 17.6136 39.202 17.6136C37.7221 17.6136 35.9944 16.9635 35.9944 15.1293V15.0876C35.9944 13.1496 38.0354 12.4594 39.9456 12.4594C41.3036 12.4594 42.462 12.6483 43.5868 13.0531Z" fill="white"/>
<path d="M26.8376 8.14534C27.803 8.13522 28.7459 8.43631 29.5266 9.00397L29.5413 9.0146H30.8649L30.766 8.92219C30.0452 8.2263 28.855 7.2998 26.8573 7.2998C23.8394 7.2998 21.3828 9.80044 21.3828 12.8735V12.9127C21.3828 15.9883 23.8304 18.4897 26.8376 18.4897C28.3584 18.4897 29.6428 17.9516 30.7643 16.8444L30.86 16.7496H29.5446L29.5299 16.7602C28.7607 17.3406 27.8209 17.65 26.8573 17.6401C24.3295 17.6401 22.2761 15.514 22.2761 12.8931V12.8539C22.2761 10.2142 24.2812 8.14698 26.8409 8.14698" fill="white"/>
</svg>
