<svg width="25" height="26" viewBox="0 0 25 26" fill="none" xmlns="http://www.w3.org/2000/svg">
<circle cx="12.5" cy="12.5352" r="12.5" fill="#283760"/>
<path fill-rule="evenodd" clip-rule="evenodd" d="M12.5013 4.20215C10.2381 4.20215 9.95432 4.21174 9.06548 4.2523C8.17849 4.29275 7.57271 4.43364 7.04265 4.63965C6.49466 4.85259 6.02993 5.13753 5.56662 5.6008C5.10335 6.06411 4.81841 6.52884 4.60547 7.07683C4.39946 7.60689 4.25857 8.21267 4.21812 9.09966C4.17756 9.9885 4.16797 10.2723 4.16797 12.5355C4.16797 14.7987 4.17756 15.0825 4.21812 15.9713C4.25857 16.8583 4.39946 17.4641 4.60547 17.9941C4.81841 18.5421 5.10335 19.0069 5.56662 19.4702C6.02993 19.9334 6.49466 20.2184 7.04265 20.4313C7.57271 20.6373 8.17849 20.7782 9.06548 20.8187C9.95432 20.8592 10.2381 20.8688 12.5013 20.8688C14.7645 20.8688 15.0483 20.8592 15.9371 20.8187C16.8241 20.7782 17.4299 20.6373 17.96 20.4313C18.5079 20.2184 18.9727 19.9334 19.436 19.4702C19.8993 19.0069 20.1842 18.5421 20.3972 17.9941C20.6031 17.4641 20.744 16.8583 20.7845 15.9713C20.825 15.0825 20.8346 14.7987 20.8346 12.5355C20.8346 10.2723 20.825 9.9885 20.7845 9.09966C20.744 8.21267 20.6031 7.60689 20.3972 7.07683C20.1842 6.52884 19.8993 6.06411 19.436 5.6008C18.9727 5.13753 18.5079 4.85259 17.96 4.63965C17.4299 4.43364 16.8241 4.29275 15.9371 4.2523C15.0483 4.21174 14.7645 4.20215 12.5013 4.20215ZM12.5013 5.70365C14.7264 5.70365 14.99 5.71215 15.8687 5.75224C16.6812 5.78929 17.1224 5.92505 17.4161 6.03917C17.805 6.19034 18.0826 6.37092 18.3742 6.66255C18.6659 6.95414 18.8464 7.23174 18.9976 7.62072C19.1117 7.91436 19.2475 8.35561 19.2845 9.1681C19.3246 10.0468 19.3331 10.3104 19.3331 12.5355C19.3331 14.7606 19.3246 15.0241 19.2845 15.9029C19.2475 16.7154 19.1117 17.1566 18.9976 17.4502C18.8464 17.8392 18.6659 18.1168 18.3742 18.4084C18.0826 18.7 17.805 18.8806 17.4161 19.0318C17.1224 19.1459 16.6812 19.2817 15.8687 19.3187C14.9901 19.3588 14.7266 19.3673 12.5013 19.3673C10.276 19.3673 10.0125 19.3588 9.13392 19.3187C8.32143 19.2817 7.88019 19.1459 7.58654 19.0318C7.19756 18.8806 6.91996 18.7 6.62837 18.4084C6.33678 18.1168 6.15616 17.8392 6.00499 17.4502C5.89087 17.1566 5.75511 16.7154 5.71806 15.9029C5.67797 15.0241 5.66947 14.7606 5.66947 12.5355C5.66947 10.3104 5.67797 10.0468 5.71806 9.1681C5.75511 8.35561 5.89087 7.91436 6.00499 7.62072C6.15616 7.23174 6.33674 6.95414 6.62837 6.66255C6.91996 6.37092 7.19756 6.19034 7.58654 6.03917C7.88019 5.92505 8.32143 5.78929 9.13392 5.75224C10.0126 5.71215 10.2762 5.70365 12.5013 5.70365Z" fill="white"/>
<path fill-rule="evenodd" clip-rule="evenodd" d="M12.5019 15.3129C10.9678 15.3129 9.72416 14.0693 9.72416 12.5352C9.72416 11.001 10.9678 9.75736 12.5019 9.75736C14.0361 9.75736 15.2797 11.001 15.2797 12.5352C15.2797 14.0693 14.0361 15.3129 12.5019 15.3129ZM12.502 8.25586C10.1385 8.25586 8.22266 10.1717 8.22266 12.5352C8.22266 14.8985 10.1385 16.8144 12.502 16.8144C14.8653 16.8144 16.7812 14.8985 16.7812 12.5352C16.7812 10.1717 14.8653 8.25586 12.502 8.25586Z" fill="white"/>
<path fill-rule="evenodd" clip-rule="evenodd" d="M17.9492 8.08693C17.9492 8.63922 17.5015 9.08692 16.9492 9.08692C16.3969 9.08692 15.9492 8.63922 15.9492 8.08693C15.9492 7.53464 16.3969 7.08691 16.9492 7.08691C17.5015 7.08691 17.9492 7.53464 17.9492 8.08693Z" fill="white"/>
</svg>
