<svg width="26" height="25" viewBox="0 0 26 25" fill="none" xmlns="http://www.w3.org/2000/svg">
<circle cx="12.7539" cy="12.5" r="12.5" fill="#283760"/>
<path d="M6.75391 11.1061C6.75391 13.236 6.75391 16.56 6.75391 16.56C6.75391 16.56 6.75391 16.56 6.75391 16.56C6.75391 17.3884 7.42548 18.06 8.25391 18.06H17.2539C18.0823 18.06 18.7539 17.3884 18.7539 16.56V10.7541M6.75391 11.1061C6.75391 10.8475 6.88712 10.6072 7.10641 10.4701L12.7539 6.94043L18.3716 10.1004C18.6078 10.2332 18.7539 10.4831 18.7539 10.7541M6.75391 11.1061C7.05391 11.1061 12.7539 14.8154 12.7539 14.8154L18.7539 10.7541" stroke="white" stroke-width="1.5" stroke-linecap="round" stroke-linejoin="round"/>
</svg>
