<svg width="25" height="26" viewBox="0 0 25 26" fill="none" xmlns="http://www.w3.org/2000/svg">
<circle cx="12.5" cy="12.5352" r="12.5" fill="#283760"/>
<path d="M6.5 11.1413C6.5 13.2711 6.5 16.5952 6.5 16.5952C6.5 16.5952 6.5 16.5952 6.5 16.5952C6.5 17.4236 7.17157 18.0952 8 18.0952H17C17.8284 18.0952 18.5 17.4236 18.5 16.5951V10.7892M6.5 11.1413C6.5 10.8827 6.63321 10.6423 6.8525 10.5053L12.5 6.97559L18.1177 10.1355C18.3538 10.2684 18.5 10.5183 18.5 10.7892M6.5 11.1413C6.8 11.1413 12.5 14.8506 12.5 14.8506L18.5 10.7892" stroke="white" stroke-width="1.5" stroke-linecap="round" stroke-linejoin="round"/>
</svg>
