<svg width="58" height="43" viewBox="0 0 58 43" fill="none" xmlns="http://www.w3.org/2000/svg">
<path d="M42.8105 20.4443C42.8105 26.6973 40.2233 32.3385 36.0605 36.3467C34.1358 35.7799 32.3588 34.8711 30.8011 33.6835C34.7893 30.6605 37.3676 25.8516 37.3676 20.4443C37.3676 15.0371 34.7893 10.2327 30.8011 7.20966C26.8083 10.2327 24.2301 15.0371 24.2301 20.4443C24.2301 24.8394 25.931 28.8341 28.7062 31.8031C26.1951 29.1535 23.0394 27.1382 19.4899 26.0045C19.0333 24.2276 18.7871 22.3652 18.7871 20.4443C18.7871 14.1959 21.3743 8.55022 25.5371 4.54203C27.0903 3.03951 28.8629 1.77093 30.8011 0.78125C32.7437 1.77093 34.5118 3.04401 36.065 4.54203C40.2189 8.55472 42.8105 14.1959 42.8105 20.4443Z" fill="#A4C241"/>
<path d="M30.7994 40.1076C29.9892 40.5215 29.1477 40.8859 28.2748 41.1963C25.9652 42.033 23.4764 42.4873 20.8803 42.4873C13.6424 42.4873 7.22804 38.965 3.23533 33.5353C2.1521 32.0642 1.24792 30.4583 0.558594 28.7443C2.06258 27.7232 3.69637 26.8864 5.43311 26.2656C6.09558 28.038 7.049 29.671 8.23965 31.0971C11.2655 34.7184 15.8043 37.0261 20.8803 37.0261C22.4693 37.0261 24.0091 36.8012 25.4683 36.3738C25.4683 36.3738 25.5086 36.3648 25.531 36.3513C27.0842 37.8539 28.8567 39.1224 30.7949 40.1121L30.7994 40.1076Z" fill="#A4C241"/>
<path d="M57.4399 34.6962C53.4248 39.4601 47.4178 42.4831 40.7126 42.4831C38.3895 42.4831 36.1559 42.1187 34.0521 41.4485C32.9241 41.0841 31.8319 40.6387 30.7934 40.1034C28.8508 39.1182 27.0827 37.8451 25.5295 36.3426C25.5071 36.3516 25.4892 36.3606 25.4668 36.3651C22.4454 32.7438 17.9066 30.436 12.8307 30.436C11.2372 30.436 9.6974 30.661 8.23818 31.0883C7.04753 29.6623 6.09411 28.0293 5.43164 26.2569C7.74133 25.4202 10.2345 24.9658 12.8307 24.9658C15.1538 24.9658 17.3874 25.3302 19.4912 26.0005C23.0408 27.1341 26.1965 29.154 28.7076 31.7991C28.7299 31.8261 28.7568 31.8531 28.7792 31.8756C29.4014 32.5324 30.0773 33.1352 30.7979 33.6795C32.3556 34.8626 34.1371 35.7713 36.0574 36.3426C37.5345 36.7835 39.0967 37.0129 40.7126 37.0129C45.8378 37.0129 50.4213 34.6602 53.4427 30.9759L57.4399 34.6872V34.6962Z" fill="url(#paint0_linear_1_16054)"/>
<defs>
<linearGradient id="paint0_linear_1_16054" x1="5.43164" y1="33.729" x2="57.4399" y2="33.729" gradientUnits="userSpaceOnUse">
<stop offset="0.06" stop-color="#A4C241"/>
<stop offset="0.32" stop-color="#58B0E0"/>
</linearGradient>
</defs>
</svg>
