<svg width="128" height="63" viewBox="0 0 128 63" fill="none" xmlns="http://www.w3.org/2000/svg">
<path d="M5.98558 55.166V62.5424H5.08598L1.61608 57.1249V62.5424H0.609375V55.166H1.52326L4.99316 60.5835V55.166H5.98558Z" fill="#283760"/>
<path d="M13.6379 60.5619H10.7107L10.0181 62.5424H8.9043L11.596 55.166H12.7526L15.4443 62.5424H14.3305L13.6308 60.5619H13.6379ZM13.3095 59.6148L12.1743 56.4002L11.0391 59.6148H13.3024H13.3095Z" fill="#283760"/>
<path d="M22.4198 56.1132H20.2279V62.5424H19.2212V56.1132H17.0293V55.166H22.4198V56.1132Z" fill="#283760"/>
<path d="M25.3411 59.1843V55.166H26.3764V59.1843C26.3764 61.014 26.8476 61.71 28.0828 61.71C29.3179 61.71 29.782 61.0355 29.782 59.1843V55.166H30.8173V59.1843C30.8173 61.1934 30.2104 62.6787 28.0828 62.6787C25.9551 62.6787 25.334 61.2364 25.334 59.1843H25.3411Z" fill="#283760"/>
<path d="M36.515 59.4856H35.3797V62.5424H34.373V55.166H37.2218C38.5641 55.166 39.3851 56.0486 39.3851 57.3258C39.3851 58.4524 38.7354 59.2847 37.6573 59.4569L39.5351 62.5424H38.2785L36.515 59.4856ZM35.3797 58.5169H37.2146C37.95 58.5169 38.3356 58.0936 38.3356 57.3258C38.3356 56.5581 37.95 56.1347 37.2146 56.1347H35.3797V58.5169Z" fill="#283760"/>
<path d="M46.5539 60.5619H43.6267L42.9341 62.5424H41.8203L44.512 55.166H45.6686L48.3603 62.5424H47.2465L46.5468 60.5619H46.5539ZM46.2327 59.6148L45.0974 56.4002L43.9622 59.6148H46.2255H46.2327Z" fill="#283760"/>
<path d="M55.7092 61.5952V62.5424H51.2969V55.166H52.3036V61.5952H55.7092Z" fill="#283760"/>
<path d="M67.942 57.5913C67.942 59.0264 67.0281 60.0238 65.543 60.0238H64.0008V62.5424H62.9941V55.166H65.543C67.0281 55.166 67.942 56.1562 67.942 57.5913ZM66.8924 57.5913C66.8924 56.6657 66.4069 56.1347 65.5287 56.1347H64.0008V59.0551H65.5287C66.4069 59.0551 66.8924 58.5313 66.8924 57.5913Z" fill="#283760"/>
<path d="M73.2005 59.4856H72.0653V62.5424H71.0586V55.166H73.9073C75.2496 55.166 76.0707 56.0486 76.0707 57.3258C76.0707 58.4524 75.421 59.2847 74.3429 59.4569L76.2206 62.5424H74.964L73.2005 59.4856ZM72.0653 58.5169H73.9002C74.6356 58.5169 75.0211 58.0936 75.0211 57.3258C75.0211 56.5581 74.6356 56.1347 73.9002 56.1347H72.0653V58.5169Z" fill="#283760"/>
<path d="M78.707 58.8538C78.707 56.6007 80.1635 55.0293 82.1341 55.0293C84.1046 55.0293 85.5754 56.6007 85.5754 58.8538C85.5754 61.1069 84.1189 62.6783 82.1341 62.6783C80.1492 62.6783 78.707 61.1069 78.707 58.8538ZM84.5259 58.8538C84.5259 57.1604 83.5477 55.998 82.1341 55.998C80.7204 55.998 79.7566 57.1604 79.7566 58.8538C79.7566 60.5472 80.7204 61.7096 82.1341 61.7096C83.5477 61.7096 84.5259 60.5544 84.5259 58.8538Z" fill="#283760"/>
<path d="M94.596 58.8542C94.596 61.1073 93.1395 62.5424 91.1546 62.5424H88.6914V55.166H91.1546C93.1395 55.166 94.596 56.6011 94.596 58.8542ZM93.5464 58.8542C93.5464 57.1967 92.6111 56.1347 91.1546 56.1347H89.6981V61.5737H91.1546C92.6111 61.5737 93.5464 60.5117 93.5464 58.8542Z" fill="#283760"/>
<path d="M97.6653 59.1843V55.166H98.7006V59.1843C98.7006 61.014 99.1718 61.71 100.407 61.71C101.642 61.71 102.106 61.0355 102.106 59.1843V55.166H103.142V59.1843C103.142 61.1934 102.535 62.6787 100.407 62.6787C98.2794 62.6787 97.6582 61.2364 97.6582 59.1843H97.6653Z" fill="#283760"/>
<path d="M106.22 58.8538C106.22 56.5864 107.677 55.0293 109.604 55.0293C110.832 55.0293 111.796 55.6607 112.317 56.4285L111.482 57.0169C111.054 56.3496 110.368 55.998 109.604 55.998C108.255 55.998 107.248 57.1461 107.248 58.8538C107.248 60.5616 108.226 61.7096 109.604 61.7096C110.39 61.7096 111.104 61.3293 111.532 60.6118L112.36 61.2002C111.732 62.2119 110.675 62.6783 109.59 62.6783C107.648 62.6783 106.213 61.0997 106.213 58.8538H106.22Z" fill="#283760"/>
<path d="M120.224 56.1132H118.033V62.5424H117.026V56.1132H114.834V55.166H120.224V56.1132Z" fill="#283760"/>
<path d="M122.596 61.7677L123.088 60.8851C123.688 61.3802 124.566 61.7103 125.373 61.7174C126.266 61.7318 126.88 61.3156 126.88 60.5407C126.88 59.6437 126.08 59.5361 125.295 59.3711C123.353 58.9477 122.781 58.4239 122.781 57.3261C122.781 55.5537 124.252 55.0371 125.466 55.0371C126.344 55.0371 127.122 55.3026 127.786 55.7403L127.301 56.5942C126.694 56.1852 126.108 56.0058 125.437 56.0058C124.381 56.0058 123.845 56.4794 123.845 57.2615C123.845 57.8858 124.188 58.1656 125.48 58.4239C126.308 58.5818 127.943 58.8544 127.943 60.512C127.943 61.7964 126.937 62.722 125.352 62.6933C124.188 62.6718 123.067 62.1695 122.596 61.7748V61.7677Z" fill="#283760"/>
<path d="M5.08688 42.9959V47.3514C5.08688 47.4877 5.12258 47.5953 5.20112 47.6742C5.27252 47.7532 5.34391 47.7891 5.42959 47.7891H5.65806V48.6071H5.1797C4.82986 48.6071 4.5514 48.4707 4.34435 48.2052C3.84457 48.5568 3.31623 48.7362 2.73791 48.7362C1.93826 48.7362 1.30284 48.4205 0.838757 47.7891C0.453213 47.2724 0.267578 46.6625 0.267578 45.945C0.267578 45.1054 0.546029 44.4166 1.09579 43.8641C1.58129 43.3618 2.18102 43.1178 2.89499 43.1178C3.30195 43.1178 3.70891 43.2111 4.12302 43.3905L4.61566 42.9959H5.09402H5.08688ZM4.11588 44.1942C3.78032 44.022 3.4376 43.943 3.0949 43.943C2.51658 43.943 2.04537 44.1726 1.68838 44.6319C1.38852 45.005 1.23858 45.457 1.23858 45.9665C1.23858 46.5836 1.38137 47.0643 1.6741 47.4159C1.95969 47.7388 2.33809 47.8967 2.81645 47.8967C3.23055 47.8967 3.65894 47.7891 4.10875 47.5594V44.187L4.11588 44.1942ZM3.1306 40.7715C3.28053 40.7715 3.41619 40.8289 3.52328 40.9365C3.63038 41.0513 3.68749 41.1805 3.68749 41.3312C3.68749 41.489 3.63038 41.6325 3.52328 41.7402C3.40905 41.8478 3.28053 41.9052 3.1306 41.9052C2.98066 41.9052 2.84501 41.8478 2.73791 41.7402C2.62368 41.6325 2.5737 41.489 2.5737 41.3312C2.5737 41.1733 2.63082 41.0442 2.73791 40.9365C2.84501 40.8289 2.98066 40.7715 3.1306 40.7715ZM4.5157 40.7715C4.67278 40.7715 4.80844 40.8289 4.92267 40.9365C5.02977 41.0513 5.08688 41.1805 5.08688 41.3312C5.08688 41.489 5.02977 41.6325 4.92267 41.7402C4.80844 41.8478 4.67278 41.9052 4.5157 41.9052C4.35863 41.9052 4.23011 41.8478 4.12302 41.7402C4.00878 41.6325 3.95881 41.489 3.95881 41.3312C3.95881 41.1733 4.01592 41.0442 4.12302 40.9365C4.23011 40.8289 4.36577 40.7715 4.5157 40.7715Z" fill="#283760"/>
<path d="M7.69667 47.7822V48.6002H5.57617V47.7822H7.69667Z" fill="#283760"/>
<path d="M17.7149 15.5142C15.316 14.8468 12.9242 14.1795 10.5253 13.5122C9.66135 13.2682 8.77603 13.0243 8.04064 12.5005C6.26999 11.252 6.577 9.39351 8.15487 8.28132C10.1326 6.88929 12.81 6.58792 15.1518 6.58792C17.8863 6.58792 22.5771 7.29829 26.0256 11.4026L30.3808 7.63553C30.4736 7.54943 29.0742 5.9493 28.9885 5.85602C23.9765 0.43857 15.5802 -0.587517 8.79031 1.47901C8.49758 1.57229 8.1977 1.66557 7.91212 1.76603C4.65641 2.90692 1.72913 5.0452 0.879507 8.57551C-0.0914937 12.5938 2.13609 16.1528 5.58457 18.0543C8.66179 19.7477 12.1888 20.2499 15.5516 21.0823C17.3437 21.5272 19.15 21.9505 20.8707 22.6322C21.9559 23.0627 25.1831 24.2467 24.6405 25.897C24.0693 27.6191 22.0345 28.2936 20.4495 28.6237C17.4079 29.2551 14.2093 29.1618 11.2107 28.351C9.99692 28.0281 8.83315 27.533 7.75505 26.8872C7.43377 26.6935 4.32798 24.2969 4.52075 24.1319C1.9576 26.306 0.0655804 27.9994 0.0655804 27.9994C-0.0772139 28.1286 2.01472 30.1592 2.14324 30.2669C4.15664 32.032 6.57699 33.3021 9.11873 34.1129C15.0947 36.0072 23.3268 35.8852 28.1246 31.2212C29.7239 29.6713 30.6521 27.5976 30.6521 25.3589C30.6521 18.6713 22.7627 16.9277 17.7149 15.5213V15.5142Z" fill="#283760"/>
<path d="M41.5041 0.754883H35.5781V34.7019H41.5041V0.754883Z" fill="#283760"/>
<path d="M87.133 0.754883H81.207V34.7019H87.133V0.754883Z" fill="#283760"/>
<path d="M121.001 34.7019H127.912L112.504 3.20888L112.069 2.31913L111.305 0.754883H107.021L106.257 2.3263L105.822 3.20888L90.4141 34.7019H97.3253L101.695 25.6393H116.538L121.008 34.7019H121.001ZM104.651 19.5115L109.034 10.4202L113.518 19.5115H104.658H104.651Z" fill="#283760"/>
<path d="M69.779 2.6108C66.1521 0.680611 62.1181 0.702138 59.1766 0.716488L52.0797 0.752366H47.8887V34.6994H53.8146V24.6107C55.2783 24.6107 56.7348 24.6107 58.1984 24.6107C58.6982 24.6107 59.2051 24.6107 59.7049 24.6179C60.169 24.6179 60.6331 24.6322 61.1043 24.6322C61.1899 24.6322 61.2756 24.6322 61.3684 24.6322C63.2676 26.0601 64.6884 27.3445 65.7094 28.959C65.8807 29.2245 66.0592 29.5474 66.2449 29.8846C66.866 31.004 67.6443 32.396 69.0079 33.458C71.0213 35.0151 73.3346 35.2303 75.3337 35.2303H75.348V28.9877H75.3337C74.3342 28.9877 73.3346 28.9303 72.8063 28.5141C72.4493 28.2343 72.0566 27.5239 71.671 26.8423C71.4497 26.4404 71.2141 26.0243 70.9428 25.6009C70.3716 24.704 69.729 23.9003 69.0508 23.1541C72.0566 21.6903 74.4127 19.021 75.398 15.9356C76.319 13.0439 76.1119 9.99433 74.8268 7.56903C73.7416 5.5025 71.9923 3.79475 69.779 2.6108ZM69.4792 14.0341C68.9937 15.5696 67.7585 16.9043 66.1806 17.6146C65.6594 17.8514 65.1025 18.0236 64.5171 18.1384C63.0606 18.4255 61.4613 18.4039 59.7763 18.3824C59.2337 18.3824 58.6982 18.3681 58.1627 18.3681C56.7134 18.3681 55.2569 18.3681 53.8075 18.3681V6.98782L59.2051 6.95912C62.1681 6.94477 64.7884 7.0237 66.8732 8.12871C67.9655 8.70992 68.8437 9.54945 69.3364 10.4894C69.8219 11.4151 69.879 12.7712 69.4792 14.0341Z" fill="#283760"/>
<path d="M9.73378 47.7822V48.6002H7.61328V47.7822H9.73378Z" fill="#283760"/>
<path d="M11.7709 47.7822V48.6002H9.65039V47.7822H11.7709Z" fill="#283760"/>
<path d="M13.2901 45.1774C13.5543 44.5029 14.0041 43.9791 14.6324 43.5988C15.1393 43.3046 15.6605 43.1611 16.2031 43.1611C16.7457 43.1611 17.2669 43.3046 17.7596 43.5988C18.395 43.972 18.8377 44.5029 19.1018 45.1774L19.0019 45.4573C18.4735 45.6797 18.0451 45.9811 17.7096 46.3685C17.3669 46.7704 17.1455 47.2368 17.0599 47.7821H19.2232V48.6001H16.8956C16.6672 48.6001 16.4458 48.4925 16.2317 48.2629H16.196C15.9889 48.4853 15.7676 48.6001 15.532 48.6001H11.7051V47.7821H15.3606C15.2749 47.3157 15.0893 46.8708 14.7894 46.4547C14.4467 46.0241 13.9898 45.6941 13.4115 45.4501L13.2972 45.1703L13.2901 45.1774ZM18.0451 45.0626C17.7952 44.6967 17.5097 44.4168 17.1884 44.2303C16.8814 44.0724 16.5529 43.9863 16.2031 43.9863C15.8532 43.9863 15.532 44.0581 15.2535 44.2087C14.9179 44.381 14.6181 44.6608 14.3611 45.0626C14.7609 45.242 15.0964 45.486 15.382 45.8089C15.7319 46.2107 16.0032 46.7058 16.1817 47.3085H16.2174C16.4101 46.6843 16.6815 46.1748 17.0456 45.7802C17.3383 45.4716 17.6739 45.2348 18.0523 45.0698L18.0451 45.0626Z" fill="#283760"/>
<path d="M21.2474 47.7822V48.6002H19.127V47.7822H21.2474Z" fill="#283760"/>
<path d="M24.2075 43.3037V47.5085C24.2075 47.6018 24.1932 47.6951 24.1718 47.7812H24.7787V48.5992H24.3289L23.9933 48.1974H23.9576C23.7506 48.4628 23.4864 48.5992 23.158 48.5992H21.166V47.7812H22.7939C22.9152 47.7812 23.0152 47.7453 23.0937 47.6664C23.1866 47.5803 23.2294 47.4726 23.2294 47.3435V43.3037H24.2004H24.2075ZM22.2512 49.7975C22.4012 49.7975 22.5368 49.8549 22.6439 49.9625C22.751 50.0701 22.8081 50.2065 22.8081 50.3572C22.8081 50.515 22.751 50.6514 22.6439 50.7662C22.5297 50.8738 22.4012 50.9312 22.2512 50.9312C22.1013 50.9312 21.9657 50.8738 21.8586 50.7662C21.7515 50.6585 21.6943 50.515 21.6943 50.3572C21.6943 50.1993 21.7515 50.0701 21.8586 49.9625C21.9657 49.8477 22.1013 49.7975 22.2512 49.7975ZM23.6363 49.7975C23.7934 49.7975 23.9291 49.8549 24.0433 49.9625C24.1576 50.0701 24.2075 50.2065 24.2075 50.3572C24.2075 50.515 24.1504 50.6514 24.0433 50.7662C23.9291 50.8738 23.7934 50.9312 23.6363 50.9312C23.4793 50.9312 23.3508 50.8738 23.2437 50.7662C23.1366 50.6585 23.0795 50.515 23.0795 50.3572C23.0795 50.1993 23.1366 50.0701 23.2437 49.9625C23.3508 49.8477 23.4864 49.7975 23.6363 49.7975Z" fill="#283760"/>
<path d="M27.7329 43.3037V47.5085C27.7329 47.6018 27.7186 47.6951 27.6972 47.7812H28.3041V48.5992H27.8543L27.5187 48.1974H27.483C27.276 48.4628 27.0118 48.5992 26.6834 48.5992H24.6914V47.7812H26.3193C26.4406 47.7812 26.5406 47.7453 26.6191 47.6664C26.712 47.5803 26.7548 47.4726 26.7548 47.3435V43.3037H27.7258H27.7329ZM27.1618 49.7975C27.3188 49.7975 27.4545 49.8549 27.5687 49.9625C27.683 50.0701 27.7329 50.2065 27.7329 50.3572C27.7329 50.515 27.6758 50.6514 27.5687 50.7662C27.4545 50.8738 27.3188 50.9312 27.1618 50.9312C27.0047 50.9312 26.8762 50.8738 26.7691 50.7662C26.662 50.6585 26.6049 50.515 26.6049 50.3572C26.6049 50.1993 26.662 50.0701 26.7691 49.9625C26.8762 49.8477 27.0118 49.7975 27.1618 49.7975Z" fill="#283760"/>
<path d="M31.2538 40.3548V45.8369C32.2891 44.0574 33.667 43.1676 35.3663 43.1676C36.2802 43.1676 37.0227 43.4474 37.5796 44.0071C38.0865 44.5238 38.3364 45.1767 38.3364 45.9732V47.5016C38.3364 47.602 38.3221 47.6953 38.3007 47.7742H38.7005V48.5922H38.4578L38.1222 48.1904H38.0865C37.8723 48.4559 37.6081 48.5922 37.2868 48.5922H28.2266V47.7742H30.2899V40.3477H31.2538V40.3548ZM37.3511 45.8727C37.3511 45.2341 37.1155 44.7462 36.6371 44.409C36.273 44.1435 35.8018 44.0071 35.2306 44.0071C34.5809 44.0071 33.9669 44.208 33.3957 44.6027C32.5104 45.2341 31.7964 46.2889 31.2538 47.7814H36.9227C37.2083 47.7814 37.344 47.6379 37.344 47.3437V45.8727H37.3511Z" fill="#283760"/>
<path d="M41.6398 40.3555V47.5094C41.6398 47.8107 41.5399 48.0619 41.34 48.27C41.1329 48.4924 40.883 48.6072 40.5975 48.6072H38.6055V47.7892H40.2333C40.3761 47.7892 40.4904 47.739 40.5689 47.6385C40.6403 47.5524 40.6688 47.4591 40.6688 47.3515V40.3626H41.6398V40.3555Z" fill="#283760"/>
<path d="M44.1976 40.3555V48.4852L43.7049 48.8871H43.2266V40.3555H44.1976Z" fill="#283760"/>
<path d="M57.267 43.3046V47.5094C57.267 47.7821 57.1814 48.0261 57.0171 48.227C56.8029 48.4781 56.5459 48.6073 56.2389 48.6073H49.6847C49.242 48.6073 48.8564 48.4638 48.5423 48.1696C48.1068 47.7965 47.8926 47.3085 47.8926 46.7058V44.5388L48.3852 44.137H48.8636V46.7058C48.8636 47.0072 48.9707 47.2583 49.1849 47.4664C49.3919 47.6817 49.649 47.7893 49.9631 47.7893H55.8605C56.1532 47.7893 56.296 47.6458 56.296 47.3516V43.3118H57.267V43.3046ZM51.8908 42.9961C52.0408 42.9961 52.1764 43.0535 52.2835 43.1611C52.3906 43.2688 52.4477 43.4051 52.4477 43.5701C52.4477 43.7352 52.3906 43.8571 52.2835 43.9648C52.1764 44.0724 52.0408 44.1298 51.8908 44.1298C51.7409 44.1298 51.5981 44.0724 51.491 43.9648C51.3839 43.8571 51.3339 43.7208 51.3339 43.5701C51.3339 43.4123 51.391 43.2759 51.491 43.1611C51.5981 43.0463 51.7337 42.9961 51.8908 42.9961ZM53.2759 42.9961C53.433 42.9961 53.5686 43.0535 53.6829 43.1611C53.7971 43.2688 53.8471 43.4051 53.8471 43.5701C53.8471 43.7352 53.79 43.8571 53.6829 43.9648C53.5758 44.0724 53.433 44.1298 53.2759 44.1298C53.1189 44.1298 52.9903 44.0724 52.8832 43.9648C52.769 43.8571 52.719 43.7208 52.719 43.5701C52.719 43.4123 52.7761 43.2759 52.8832 43.1611C52.9903 43.0463 53.126 42.9961 53.2759 42.9961Z" fill="#283760"/>
<path d="M59.8238 40.3548V47.3437C59.8238 47.4657 59.8595 47.5733 59.9381 47.6522C60.0238 47.7384 60.1308 47.7814 60.2594 47.7814H60.4093V48.5994H59.881C59.6382 48.5994 59.424 48.5205 59.2384 48.3554C58.9813 48.133 58.8457 47.846 58.8457 47.5016V40.3477H59.8167L59.8238 40.3548Z" fill="#283760"/>
<path d="M62.4545 47.7822V48.6002H60.334V47.7822H62.4545Z" fill="#283760"/>
<path d="M63.8951 43.4984C64.5948 43.2759 65.2516 43.1611 65.8657 43.1611C66.8152 43.1611 67.5363 43.4553 68.029 44.0509C68.4574 44.5603 68.6716 45.2205 68.6716 46.0457V47.5094C68.6716 47.6027 68.6573 47.696 68.6359 47.7821H69.0357V48.6001H68.7929L68.4716 48.1983H68.4359C68.2218 48.4638 67.9576 48.6001 67.6363 48.6001H62.3672V47.7821H67.2579C67.5506 47.7821 67.6934 47.6386 67.6934 47.3444V46.0098C67.6934 45.4142 67.5363 44.9406 67.2222 44.5962C66.8795 44.2159 66.3797 44.0222 65.7228 44.0222C65.323 44.0222 64.7162 44.1083 63.8879 44.2733V43.4984H63.8951ZM65.2588 49.7984C65.4158 49.7984 65.5515 49.8558 65.6657 49.9634C65.78 50.0711 65.83 50.2074 65.83 50.3581C65.83 50.516 65.7728 50.6523 65.6657 50.7671C65.5515 50.8747 65.4158 50.9321 65.2588 50.9321C65.1017 50.9321 64.9732 50.8747 64.8661 50.7671C64.759 50.6523 64.7019 50.516 64.7019 50.3581C64.7019 50.2002 64.759 50.0711 64.8661 49.9634C64.9732 49.8486 65.1088 49.7984 65.2588 49.7984Z" fill="#283760"/>
<path d="M71.0795 47.7822V48.6002H68.959V47.7822H71.0795Z" fill="#283760"/>
<path d="M74.0337 43.3044V47.5092C74.0337 47.6025 74.0194 47.6958 73.998 47.7819H74.6049V48.5999H74.1551L73.8195 48.1981H73.7838C73.5768 48.4635 73.3126 48.5999 72.9842 48.5999H70.9922V47.7819H72.62C72.7414 47.7819 72.8414 47.746 72.9199 47.6671C73.0127 47.581 73.0556 47.4733 73.0556 47.3442V43.3044H74.0266H74.0337ZM72.1774 40.7715C72.3345 40.7715 72.4701 40.8289 72.5772 40.9365C72.6843 41.0513 72.7343 41.1805 72.7343 41.3312C72.7343 41.489 72.6843 41.6325 72.5772 41.7402C72.4701 41.8478 72.3345 41.9052 72.1774 41.9052C72.0203 41.9052 71.8918 41.8478 71.7847 41.7402C71.6705 41.6325 71.6205 41.489 71.6205 41.3312C71.6205 41.1733 71.6776 41.0442 71.7847 40.9365C71.8918 40.8289 72.0274 40.7715 72.1774 40.7715ZM73.5768 40.7715C73.7267 40.7715 73.8624 40.8289 73.9694 40.9365C74.0765 41.0442 74.1337 41.1805 74.1337 41.3312C74.1337 41.489 74.0765 41.6325 73.9694 41.7402C73.8624 41.8478 73.7267 41.9052 73.5768 41.9052C73.4197 41.9052 73.284 41.8478 73.1698 41.7402C73.0556 41.6325 73.0056 41.489 73.0056 41.3312C73.0056 41.1733 73.0627 41.0442 73.1698 40.9365C73.2769 40.8289 73.4125 40.7715 73.5768 40.7715Z" fill="#283760"/>
<path d="M77.5591 43.3044V47.5092C77.5591 47.6025 77.5448 47.6958 77.5234 47.7819H78.1303V48.5999H77.6805L77.3449 48.1981H77.3092C77.1022 48.4635 76.838 48.5999 76.5096 48.5999H74.5176V47.7819H76.1454C76.2668 47.7819 76.3668 47.746 76.4453 47.6671C76.5381 47.581 76.581 47.4733 76.581 47.3442V43.3044H77.552H77.5591ZM77.0664 40.7715C77.2235 40.7715 77.3592 40.8289 77.4734 40.9365C77.5877 41.0442 77.6376 41.1805 77.6376 41.3312C77.6376 41.489 77.5805 41.6325 77.4734 41.7402C77.3663 41.8478 77.2307 41.9052 77.0664 41.9052C76.9022 41.9052 76.7809 41.8478 76.6738 41.7402C76.5595 41.6325 76.5096 41.489 76.5096 41.3312C76.5096 41.1733 76.5667 41.0442 76.6738 40.9365C76.7809 40.8289 76.9165 40.7715 77.0664 40.7715Z" fill="#283760"/>
<path d="M80.3148 47.7814C80.0006 47.2648 79.8435 46.6836 79.8435 46.0163C79.8435 45.0906 80.1006 44.3731 80.6218 43.8636C81.0858 43.4188 81.6998 43.1892 82.4638 43.1748C83.0136 43.1748 83.4705 43.2968 83.8275 43.5336C84.3772 43.8995 84.6557 44.4807 84.6557 45.2629V47.3437C84.6557 47.4514 84.6843 47.5446 84.7342 47.6236C84.8056 47.724 84.8913 47.7743 85.0055 47.7814H85.0269V48.5994H84.7414C84.3987 48.5994 84.1202 48.4631 83.9203 48.1976C83.5062 48.6999 82.985 48.9439 82.3496 48.9439C81.7141 48.9439 81.1073 48.6927 80.6218 48.1976H80.6003L80.279 48.5994H78.0586V47.7814H80.3148ZM83.6847 45.2629C83.6847 44.861 83.5562 44.5453 83.3063 44.3085C83.085 44.1004 82.7994 44 82.4495 44C81.964 44 81.5642 44.1794 81.2715 44.5453C80.9716 44.9113 80.8217 45.3848 80.8217 45.9804C80.8217 46.6047 80.9787 47.1213 81.2929 47.5375C81.5928 47.9393 81.964 48.133 82.4138 48.133C82.8636 48.133 83.2777 47.9321 83.6847 47.5231V45.2629Z" fill="#283760"/>
<path d="M87.9758 40.3555V47.5094C87.9758 47.8107 87.8758 48.0619 87.6759 48.27C87.4689 48.4924 87.219 48.6072 86.9334 48.6072H84.9414V47.7892H86.5693C86.7121 47.7892 86.8263 47.739 86.9048 47.6385C86.9762 47.5524 87.0048 47.4591 87.0048 47.3515V40.3626H87.9758V40.3555Z" fill="#283760"/>
<path d="M92.6383 40.3548V47.3437C92.6383 47.4657 92.674 47.5733 92.7525 47.6522C92.8382 47.7384 92.9453 47.7814 93.0738 47.7814H93.2238V48.5994H92.6954C92.4527 48.5994 92.2385 48.5205 92.0529 48.3554C91.7958 48.133 91.6602 47.846 91.6602 47.5016V40.3477H92.6312L92.6383 40.3548Z" fill="#283760"/>
<path d="M95.2631 47.7822V48.6002H93.1426V47.7822H95.2631Z" fill="#283760"/>
<path d="M97.308 47.7822V48.6002H95.1875V47.7822H97.308Z" fill="#283760"/>
<path d="M100.265 43.3037V47.5085C100.265 47.7955 100.172 48.0395 99.9935 48.2476C99.7865 48.4844 99.5294 48.6064 99.2224 48.6064H97.2305V47.7884H98.8583C98.9868 47.7884 99.0939 47.7453 99.1796 47.652C99.2581 47.5731 99.2938 47.4726 99.2938 47.3507V43.3109H100.265V43.3037ZM98.2015 49.7975C98.3514 49.7975 98.487 49.8549 98.5941 49.9625C98.7012 50.0701 98.7584 50.2065 98.7584 50.3572C98.7584 50.515 98.7012 50.6514 98.5941 50.7662C98.4799 50.8738 98.3514 50.9312 98.2015 50.9312C98.0444 50.9312 97.9016 50.8738 97.7945 50.7662C97.6874 50.6514 97.6303 50.515 97.6303 50.3572C97.6303 50.1993 97.6874 50.0701 97.7945 49.9625C97.9016 49.8477 98.0444 49.7975 98.2015 49.7975ZM99.5866 49.7975C99.7436 49.7975 99.8793 49.8549 99.9864 49.9625C100.093 50.0701 100.143 50.2065 100.143 50.3572C100.143 50.515 100.093 50.6514 99.9864 50.7662C99.8793 50.8738 99.7436 50.9312 99.5866 50.9312C99.4295 50.9312 99.301 50.8738 99.1939 50.7662C99.0868 50.6585 99.0297 50.515 99.0297 50.3572C99.0297 50.1993 99.0868 50.0701 99.1939 49.9625C99.301 49.8477 99.4366 49.7975 99.5866 49.7975Z" fill="#283760"/>
<path d="M104.853 43.305V47.7825H105.439V48.6005H104.853C104.832 49.562 104.489 50.2795 103.832 50.7531C103.304 51.1478 102.619 51.3415 101.783 51.3415C101.655 51.3415 101.49 51.3415 101.291 51.3272L100.912 50.8536V50.4876C101.133 50.5163 101.376 50.5307 101.633 50.5307C103.133 50.5307 103.882 49.8418 103.882 48.457V43.2979H104.853V43.305Z" fill="#283760"/>
<path d="M107.482 47.7822V48.6002H105.361V47.7822H107.482Z" fill="#283760"/>
<path d="M109.519 47.7822V48.6002H107.398V47.7822H109.519Z" fill="#283760"/>
<path d="M111.558 47.7822V48.6002H109.438V47.7822H111.558Z" fill="#283760"/>
<path d="M114.516 43.3037V47.5085C114.516 47.6018 114.502 47.6951 114.48 47.7812H115.087V48.5992H114.637L114.302 48.1974H114.266C114.059 48.4628 113.795 48.5992 113.467 48.5992H111.475V47.7812H113.102C113.224 47.7812 113.324 47.7453 113.402 47.6664C113.495 47.5803 113.538 47.4726 113.538 47.3435V43.3037H114.509H114.516ZM112.56 49.7975C112.71 49.7975 112.845 49.8549 112.953 49.9625C113.06 50.0701 113.117 50.2065 113.117 50.3572C113.117 50.515 113.06 50.6514 112.953 50.7662C112.838 50.8738 112.71 50.9312 112.56 50.9312C112.41 50.9312 112.274 50.8738 112.167 50.7662C112.06 50.6585 112.003 50.515 112.003 50.3572C112.003 50.1993 112.06 50.0701 112.167 49.9625C112.274 49.8477 112.41 49.7975 112.56 49.7975ZM113.945 49.7975C114.102 49.7975 114.238 49.8549 114.352 49.9625C114.466 50.0701 114.516 50.2065 114.516 50.3572C114.516 50.515 114.459 50.6514 114.352 50.7662C114.238 50.8738 114.102 50.9312 113.945 50.9312C113.788 50.9312 113.659 50.8738 113.552 50.7662C113.445 50.6585 113.388 50.515 113.388 50.3572C113.388 50.1993 113.445 50.0701 113.552 49.9625C113.659 49.8477 113.795 49.7975 113.945 49.7975Z" fill="#283760"/>
<path d="M117.13 47.7822V48.6002H115.01V47.7822H117.13Z" fill="#283760"/>
<path d="M127.942 43.305V47.5098C127.942 47.8112 127.842 48.0695 127.635 48.2848C127.435 48.5 127.192 48.6077 126.907 48.6077H124.693L124.329 48.2059H124.294C124.079 48.4713 123.815 48.6077 123.494 48.6077H121.295L120.917 48.2059H120.881C120.667 48.4713 120.403 48.6077 120.081 48.6077H117.047V47.7897H119.703C119.996 47.7897 120.138 47.6462 120.138 47.352V44.6325H121.109V47.5098C121.109 47.6103 121.102 47.7036 121.088 47.7825H123.116C123.408 47.7825 123.551 47.639 123.551 47.3448V43.958H124.522V47.5027C124.522 47.6031 124.508 47.6964 124.486 47.7753H126.528C126.821 47.7753 126.964 47.6318 126.964 47.3376V43.2979H127.935L127.942 43.305Z" fill="#283760"/>
</svg>
