<svg width="302" height="296" viewBox="0 0 302 296" fill="none" xmlns="http://www.w3.org/2000/svg">
<g style="mix-blend-mode:color-burn" opacity="0.25" filter="url(#filter0_f_1_16033)">
<path fill-rule="evenodd" clip-rule="evenodd" d="M246.004 183.498C247.837 180.339 250.806 177.999 254.306 176.955C257.805 175.912 261.571 176.243 264.835 177.882C268.098 179.521 270.613 182.344 271.865 185.775C273.118 189.205 273.014 192.984 271.575 196.34L270.829 197.831L266.028 206.144C268.889 209.506 271.219 213.286 272.936 217.353L273.882 219.775H283.5C287.153 219.779 290.667 221.178 293.324 223.686C295.98 226.194 297.579 229.622 297.793 233.269C298.007 236.916 296.82 240.507 294.476 243.308C292.131 246.11 288.805 247.91 285.177 248.342L283.5 248.442H273.882C272.479 252.418 270.499 256.165 268.006 259.565L266.028 262.059L270.829 270.386C272.672 273.554 273.232 277.307 272.394 280.874C271.555 284.442 269.383 287.552 266.322 289.567C263.261 291.582 259.544 292.348 255.936 291.708C252.328 291.067 249.102 289.069 246.921 286.124L246.004 284.72L241.202 276.406C237.003 277.18 232.746 277.309 228.589 276.836L225.479 276.378L220.663 284.72C218.83 287.878 215.861 290.218 212.361 291.262C208.861 292.306 205.095 291.974 201.832 290.335C198.569 288.696 196.054 285.873 194.801 282.443C193.549 279.012 193.653 275.233 195.092 271.877L195.837 270.386L200.639 262.059C197.782 258.705 195.452 254.935 193.73 250.879L192.784 248.442H183.167C179.513 248.438 176 247.039 173.343 244.531C170.687 242.023 169.088 238.596 168.874 234.949C168.66 231.302 169.846 227.711 172.191 224.909C174.536 222.108 177.862 220.307 181.49 219.876L183.167 219.775H192.799C194.202 215.8 196.182 212.052 198.675 208.653L200.639 206.159L195.837 197.831C193.994 194.664 193.435 190.911 194.273 187.343C195.111 183.776 197.284 180.665 200.345 178.65C203.406 176.635 207.122 175.869 210.731 176.51C214.339 177.15 217.565 179.148 219.745 182.093L220.663 183.498L225.464 191.811C229.664 191.037 233.921 190.908 238.078 191.381L241.188 191.825L246.004 183.498ZM133 162.442C139.407 162.442 145.714 162.786 151.863 163.445C155.643 163.846 159.11 165.733 161.499 168.69C163.889 171.647 165.006 175.432 164.605 179.212C164.204 182.993 162.318 186.459 159.361 188.849C156.404 191.238 152.619 192.355 148.838 191.954C143.678 191.395 138.375 191.109 133 191.109C104.004 191.109 77.917 199.565 59.384 210.874C50.1103 216.522 43.1157 222.656 38.6007 228.39C33.9567 234.266 32.6667 238.71 32.6667 241.275C32.6667 243.024 33.197 244.873 36.3217 247.381C39.8907 250.248 46.097 253.215 55.5857 255.723C74.477 260.74 101.624 262.775 133 262.775L142.431 262.704C146.233 262.652 149.899 264.113 152.623 266.765C155.348 269.417 156.907 273.042 156.958 276.844C157.009 280.645 155.549 284.311 152.897 287.035C150.245 289.76 146.62 291.319 142.818 291.37L133 291.442C101.051 291.442 70.865 289.435 48.247 283.444C36.9953 280.463 26.403 276.191 18.3763 269.741C9.87667 262.919 4 253.387 4 241.275C4 229.995 9.13133 219.446 16.0973 210.616C23.178 201.658 32.9677 193.416 44.4487 186.393C67.425 172.404 98.6717 162.442 133 162.442ZM233.333 219.775C229.532 219.775 225.886 221.286 223.198 223.974C220.51 226.662 219 230.307 219 234.109C219 237.91 220.51 241.556 223.198 244.244C225.886 246.932 229.532 248.442 233.333 248.442C237.135 248.442 240.781 246.932 243.469 244.244C246.157 241.556 247.667 237.91 247.667 234.109C247.667 230.307 246.157 226.662 243.469 223.974C240.781 221.286 237.135 219.775 233.333 219.775ZM133 4.77539C152.007 4.77539 170.236 12.326 183.676 25.7661C197.116 39.2062 204.667 57.4349 204.667 76.4421C204.667 95.4492 197.116 113.678 183.676 127.118C170.236 140.558 152.007 148.109 133 148.109C113.993 148.109 95.7641 140.558 82.324 127.118C68.8839 113.678 61.3333 95.4492 61.3333 76.4421C61.3333 57.4349 68.8839 39.2062 82.324 25.7661C95.7641 12.326 113.993 4.77539 133 4.77539ZM133 33.4421C127.353 33.4421 121.762 34.5543 116.545 36.7152C111.328 38.8762 106.587 42.0435 102.594 46.0365C98.6015 50.0294 95.4341 54.7697 93.2732 59.9867C91.1122 65.2037 90 70.7952 90 76.4421C90 82.0889 91.1122 87.6804 93.2732 92.8974C95.4341 98.1144 98.6015 102.855 102.594 106.848C106.587 110.841 111.328 114.008 116.545 116.169C121.762 118.33 127.353 119.442 133 119.442C144.404 119.442 155.342 114.912 163.406 106.848C171.47 98.7836 176 87.8464 176 76.4421C176 65.0378 171.47 54.1005 163.406 46.0365C155.342 37.9724 144.404 33.4421 133 33.4421Z" fill="#F1F1F1"/>
</g>
<defs>
<filter id="filter0_f_1_16033" x="0" y="0.775391" width="301.818" height="295.153" filterUnits="userSpaceOnUse" color-interpolation-filters="sRGB">
<feFlood flood-opacity="0" result="BackgroundImageFix"/>
<feBlend mode="normal" in="SourceGraphic" in2="BackgroundImageFix" result="shape"/>
<feGaussianBlur stdDeviation="2" result="effect1_foregroundBlur_1_16033"/>
</filter>
</defs>
</svg>
