<svg width="66" height="67" viewBox="0 0 66 67" fill="none" xmlns="http://www.w3.org/2000/svg">
<path d="M66 4.97965V54.6024C66 57.2872 63.3284 59.4632 60.0324 59.4632H53.8698C49.5978 62.1405 41.8486 63.9303 32.9992 63.9303C24.1498 63.9303 16.4022 62.1405 12.1302 59.4632H5.9661C2.67155 59.4632 0 57.2872 0 54.6024V4.97965C0 2.29616 2.67155 0.120117 5.9661 0.120117H60.0324C63.33 0.120117 66 2.29491 66 4.97965Z" fill="#153D1F"/>
<path d="M54.6069 17.2158C54.6069 17.2158 52.5691 19.2744 56.4283 21.9066C60.2876 24.5389 61.0119 26.7887 59.5633 28.6397C59.5633 28.6397 60.5822 26.5649 58.7792 24.6026C58.7792 24.6026 61.4047 27.9536 56.4682 31.9744C53.255 34.3992 49.1426 31.272 49.1426 31.272C49.1426 31.272 52.1011 31.9419 55.5874 30.857C59.0738 29.7721 58.4477 27.4111 57.4687 26.4687C56.4897 25.5275 52.9635 22.8628 52.8254 20.6767C52.8254 20.6767 53.4913 22.2091 54.4964 22.8678C54.4964 22.8703 51.0607 19.5294 54.6069 17.2158Z" fill="#132818"/>
<path d="M48.462 21.7104C45.8243 20.2631 47.437 19.2744 47.437 19.2744C47.437 19.2744 44.3619 19.6044 46.7127 22.6466C46.7127 22.6466 45.9869 22.5766 45.5956 21.0767C45.5956 21.0767 45.3209 22.4179 46.4181 23.0878C46.4181 23.0878 45.0401 24.1989 44.4141 26.3687C43.7865 28.5398 47.4171 28.8585 47.4171 28.8585C47.4171 28.8585 46.2156 30.0071 43.8386 29.5397C42.3502 29.2197 41.1226 27.2837 40.7835 26.4975C40.4443 25.7101 39.0848 23.859 36.3165 23.4978C33.5483 23.1353 27.4364 26.625 25.3465 27.7736C23.258 28.9223 16.6628 32.3257 9.9632 31.0495C5.94743 30.1246 6.08401 27.0612 6.1239 26.5187C6.16227 25.975 7.5341 20.1993 17.3671 22.5291L17.4976 22.0404C17.4976 22.0404 11.378 19.6144 6.97708 23.0016C6.13157 23.6527 5.49936 24.4627 5.1541 25.3676C4.6155 26.7775 4.27331 29.1222 6.59346 31.177C10.1335 34.3105 16.1656 32.2744 16.382 32.2007C16.2807 32.2594 14.7723 33.0969 11.7647 33.2193C11.7647 33.2193 17.7722 34.3042 26.6002 30.0071C33.5744 26.3075 35.7426 26.1563 35.7426 26.1563C35.7426 26.1563 37.7789 25.7526 39.4254 28.1136C41.0704 30.4746 42.677 31.752 44.988 31.3258C47.3004 30.9008 48.436 29.5184 48.6968 29.071L52.0927 29.5397C52.0927 29.5397 53.1376 28.3048 53.4246 25.9863C53.4768 23.689 51.0998 23.1565 48.462 21.7104ZM48.6186 26.7312C48.6186 26.7312 46.4242 26.51 45.5434 25.7925C45.4805 25.7413 45.4391 25.6763 45.4161 25.6063C45.3501 25.4113 45.4514 25.2051 45.6647 25.1026C46.1235 24.8826 47.1224 24.5877 47.7961 24.8901C48.7889 25.3376 48.6186 26.7312 48.6186 26.7312ZM49.6375 27.0187L50.0426 25.1039C50.0426 25.1039 52.2753 26.0288 52.3152 27.4536L49.6375 27.0187Z" fill="#132818"/>
<path d="M34.344 6.94564C34.344 6.94564 34.3179 5.70076 35.6375 4.89209C36.9572 4.08341 37.2764 5.8145 36.2513 6.71691C36.2513 6.71691 36.6565 5.36579 36.2053 5.11582C35.7542 4.86584 34.9839 5.92449 35.6007 7.09438C36.2176 8.26427 37.5956 9.72163 38.9275 10.6903C40.2594 11.6589 43.0676 13.9287 44.0266 16.1635C44.4517 17.0197 44.6082 17.8071 44.5299 18.4346C44.5299 18.4346 43.9161 16.3073 42.8972 15.2861C42.8972 15.2861 44.7125 18.2533 44.4379 20.3606C44.1632 22.4667 41.7939 24.1903 38.9137 23.5041C36.0334 22.8179 35.1266 18.7383 39.084 16.8722C39.084 16.8722 34.6647 20.9156 39.0303 23.0541C39.8973 23.4791 41.0144 23.4303 41.7801 22.8929C43.1074 21.9617 44.2522 19.8182 41.6957 16.4147C41.6957 16.4147 39.6579 13.67 36.4201 11.2877C33.1808 8.90545 34.1153 6.38444 34.1153 6.38444C34.1153 6.38444 33.9788 8.50174 35.0222 9.57539C35.0222 9.57289 34.3056 8.10928 34.344 6.94564Z" fill="#132818"/>
<path d="M37.6387 6.27827C37.6586 6.13953 37.7139 6.00579 37.7998 5.88455C38.0115 5.58833 38.4259 5.09963 38.59 5.51209C38.8156 6.07829 38.2663 6.24577 38.0023 6.422C37.8458 6.54199 37.7568 7.0357 38.3261 6.76447C38.8939 6.49325 40.0601 6.38201 39.1686 7.88186C38.4335 9.16674 37.4453 8.77553 37.4453 8.77553C37.4453 8.77553 38.4535 8.37682 38.7773 7.69063C38.7773 7.69063 37.41 8.13684 37.5527 6.9407C37.5911 6.62573 37.6202 6.41325 37.6387 6.27827Z" fill="#132818"/>
<path d="M28.6863 16.1998C21.9576 23.8415 20.6778 17.7908 20.6778 17.7908L20.6579 17.4396L20.4032 17.3921C20.3387 17.4109 20.2758 17.4309 20.2144 17.4509C18.8012 17.9146 17.8881 19.0457 17.8574 20.2856L17.8375 21.0568C17.1715 28.3598 8.12109 28.1299 8.12109 28.1299C9.76607 28.8161 12.7246 27.9061 12.7246 27.9061C11.6673 28.5448 10.0929 28.6886 10.0929 28.6886C19.1817 29.2848 18.6999 23.6628 18.8564 21.7317C19.0129 19.8007 20.7177 19.3707 20.7177 19.3707C20.7177 19.3707 21.8932 22.5454 24.8701 21.3655C30.5707 18.4133 30.2178 15.941 29.67 14.5837C29.4474 14.0325 28.8551 13.815 28.2321 13.7512C26.9723 13.6225 25.7539 14.1524 25.1002 15.0399C24.0138 16.511 23.1008 19.0807 24.1074 21.573C25.5974 25.2601 31.8796 20.9031 31.8796 20.9031L38.9552 15.5661L37.1046 16.2197L38.9552 15.2148V14.3712C37.5971 14.8386 36.3435 14.3287 36.1348 14.2862C35.9261 14.2437 33.6535 12.6688 32.765 13.775C31.5113 15.2423 31.9548 18.0721 31.9548 18.0721L32.765 23.0828L32.9998 22.7854L32.6868 18.0308C32.6868 18.0308 32.4842 16.2123 33.4479 15.4623C33.8913 15.0636 35.7818 15.9973 35.7818 15.9973C35.7818 15.9973 28.3242 22.7754 25.1386 21.5417C25.1386 21.5417 23.2834 19.7119 25.2951 16.8397C26.4767 15.3298 27.9038 15.5086 28.4761 15.6611C28.6311 15.7023 28.7431 15.8135 28.7646 15.946C28.7784 16.0335 28.7508 16.126 28.6863 16.1998Z" fill="#132818"/>
<path d="M19.1797 22.4893C19.1797 22.4893 23.6757 24.2528 25.0077 26.9488C25.0077 26.9488 22.8333 24.6828 19.1797 23.0392V22.4893Z" fill="#132818"/>
<path d="M21.5483 14.656C20.9023 15.4222 20.1105 16.2746 19.5228 15.7321C18.6896 14.8297 18.0527 15.1172 18.0527 15.1172C18.3796 14.7172 18.7739 14.331 19.1545 14.0885C19.934 14.2848 20.4481 14.706 20.488 14.7397C20.0752 14.216 19.5903 14.0535 19.2972 13.9923C19.7146 13.7848 20.1657 13.7648 20.3944 14.1598C20.8516 14.951 21.513 14.671 21.5483 14.656Z" fill="#132818"/>
<path d="M33.2495 11.029C32.6035 11.7952 31.8117 12.6476 31.2239 12.1052C30.3907 11.2028 29.7539 11.4902 29.7539 11.4902C30.0808 11.0903 30.4751 10.7041 30.8557 10.4616C31.6352 10.6578 32.1492 11.079 32.1891 11.1128C31.7764 10.5891 31.2915 10.4266 30.9984 10.3653C31.4158 10.1579 31.8669 10.1379 32.0955 10.5328C32.5528 11.324 33.2142 11.044 33.2495 11.029Z" fill="#132818"/>
<path d="M36.7879 32.1663C36.7342 32.1538 35.6171 31.8876 34.2222 32.8213C32.7936 33.7787 31.833 33.5237 31.1379 32.9488C31.1333 32.945 31.1287 32.9413 31.1226 32.9363C32.809 32.9525 33.9691 31.8164 33.9691 31.8164C31.8545 33.0488 30.6285 32.5151 30.2172 32.2476C30.1666 32.2088 30.1144 32.1688 30.0622 32.1288C30.0607 32.1276 30.0607 32.1276 30.0607 32.1276C29.2413 31.4939 28.3359 30.7052 28.3359 30.109C28.3359 30.109 29.2382 31.4414 30.8249 30.5315C32.4116 29.6228 33.9875 28.8242 35.212 29.9328C36.4089 31.0177 36.7726 32.1151 36.7879 32.1663Z" fill="#132818"/>
<path d="M50.4922 14.6475C50.4922 14.6475 47.5889 18.0396 49.5577 19.0083C51.2456 19.8382 51.2426 17.0835 51.2426 17.0835C51.2426 17.0835 50.8052 18.1421 49.7863 17.8547C48.769 17.5672 50.4922 14.6475 50.4922 14.6475Z" fill="#132818"/>
<path d="M8.19727 16.8899H8.79572V18.1973H9.25147V16.8899H9.85145V16.5449H8.19727V16.8899Z" fill="#132818"/>
<path d="M11.7549 16.5449L11.1472 17.5073L10.5365 16.5449H10.0547V18.1973H10.4874V17.2186L11.003 18.0373H11.29L11.8009 17.2199L11.8025 18.1973H12.2352V16.5449H11.7549Z" fill="#132818"/>
<path d="M54.3042 16.9707C54.3042 16.9707 52.2664 19.0293 56.1256 21.6615C59.9849 24.2938 60.7091 26.5435 59.2606 28.3946C59.2606 28.3946 60.2795 26.3198 58.4765 24.3575C58.4765 24.3575 61.102 27.7084 56.1655 31.7293C52.9523 34.1541 48.8398 31.0269 48.8398 31.0269C48.8398 31.0269 51.7983 31.6968 55.2847 30.6119C58.7711 29.527 58.145 27.166 57.166 26.2236C56.187 25.2812 52.6607 22.6177 52.5226 20.4316C52.5226 20.4316 53.1886 21.964 54.1937 22.6227C54.1937 22.6252 50.758 19.2855 54.3042 16.9707Z" fill="url(#paint0_linear_1_15476)"/>
<path d="M48.1593 21.4653C45.5215 20.018 47.1343 19.0293 47.1343 19.0293C47.1343 19.0293 44.0592 19.3593 46.41 22.4015C46.41 22.4015 45.6842 22.3315 45.2929 20.8316C45.2929 20.8316 45.0182 22.1728 46.1154 22.8427C46.1154 22.8427 44.7374 23.9538 44.1113 26.1236C43.4837 28.2947 47.1143 28.6134 47.1143 28.6134C47.1143 28.6134 45.9128 29.762 43.5359 29.2946C42.0474 28.9746 40.8198 27.0385 40.4807 26.2524C40.1416 25.4649 38.782 23.6139 36.0138 23.2526C33.2456 22.8902 27.1337 26.3799 25.0437 27.5285C22.9553 28.6771 16.3601 32.0806 9.66046 30.8044C5.6447 29.8795 5.78127 26.8161 5.82117 26.2736C5.85953 25.7299 7.23136 19.9542 17.0644 22.284L17.1948 21.7953C17.1948 21.7953 11.0753 19.3693 6.67435 22.7564C5.82884 23.4076 5.19663 24.2176 4.85137 25.1225C4.31276 26.5323 3.97057 28.8771 6.29072 30.9319C9.83079 34.0654 15.8629 32.0293 16.0792 31.9556C15.978 32.0143 14.4696 32.8517 11.462 32.9742C11.462 32.9742 17.4695 34.0591 26.2974 29.762C33.2717 26.0624 35.4399 25.9111 35.4399 25.9111C35.4399 25.9111 37.4762 25.5074 39.1227 27.8685C40.7677 30.2295 42.3743 31.5069 44.6852 31.0807C46.9977 30.6557 48.1332 29.2733 48.3941 28.8259L51.7899 29.2946C51.7899 29.2946 52.8349 28.0597 53.1219 25.7412C53.1756 23.4451 50.7971 22.9114 48.1593 21.4653ZM48.3174 26.4861C48.3174 26.4861 46.1231 26.2649 45.2423 25.5474C45.1793 25.4962 45.1379 25.4312 45.1149 25.3612C45.0489 25.1662 45.1502 24.96 45.3635 24.8575C45.8223 24.6375 46.8212 24.3425 47.4949 24.645C48.4862 25.0937 48.3174 26.4861 48.3174 26.4861ZM49.3363 26.7748L49.7414 24.86C49.7414 24.86 51.9741 25.7849 52.014 27.2098L49.3363 26.7748Z" fill="url(#paint1_linear_1_15476)"/>
<path d="M34.0432 6.70052C34.0432 6.70052 34.0171 5.45564 35.3368 4.64697C36.6564 3.8383 36.9756 5.56938 35.9506 6.47179C35.9506 6.47179 36.3557 5.12067 35.9045 4.87069C35.4534 4.62072 34.6831 5.67937 35.2999 6.84926C35.9168 8.01915 37.2948 9.47651 38.6267 10.4452C39.9587 11.4126 42.7668 13.6836 43.7258 15.9184C44.1509 16.7746 44.3074 17.562 44.2291 18.1894C44.2291 18.1894 43.6153 16.0621 42.5964 15.041C42.5964 15.041 44.4117 18.0082 44.1371 20.1155C43.8624 22.2216 41.4931 23.9451 38.6129 23.259C35.7327 22.5728 34.8258 18.4932 38.7832 16.6271C38.7832 16.6271 34.3639 20.6705 38.7295 22.809C39.5965 23.234 40.7136 23.1852 41.4793 22.6478C42.8067 21.7166 43.9514 19.5731 41.3949 16.1696C41.3949 16.1696 39.3571 13.4249 36.1194 11.0426C32.88 8.66034 33.8145 6.13933 33.8145 6.13933C33.8145 6.13933 33.678 8.25663 34.7214 9.33028C34.7214 9.32903 34.0048 7.86416 34.0432 6.70052Z" fill="url(#paint2_linear_1_15476)"/>
<path d="M37.3379 6.03315C37.3578 5.89441 37.4131 5.76068 37.499 5.63944C37.7108 5.34322 38.1251 4.85451 38.2893 5.26697C38.5148 5.83317 37.9655 6.00065 37.7016 6.17689C37.545 6.29687 37.456 6.79058 38.0253 6.51935C38.5931 6.24813 39.7593 6.13689 38.8678 7.63675C38.1327 8.92162 37.1445 8.53041 37.1445 8.53041C37.1445 8.53041 38.1527 8.1317 38.4765 7.44551C38.4765 7.44551 37.1092 7.89172 37.2519 6.69559C37.2903 6.38062 37.3179 6.16814 37.3379 6.03315Z" fill="url(#paint3_linear_1_15476)"/>
<path d="M28.3856 15.9553C21.6568 23.5971 20.3771 17.5464 20.3771 17.5464L20.3571 17.1952L20.1024 17.1477C20.0379 17.1665 19.975 17.1865 19.9136 17.2065C18.5004 17.6702 17.5874 18.8013 17.5567 20.0412L17.5367 20.8124C16.8707 28.1154 7.82031 27.8855 7.82031 27.8855C9.46529 28.5716 12.4238 27.6617 12.4238 27.6617C11.3665 28.3004 9.79213 28.4442 9.79213 28.4442C18.8809 29.0404 18.3991 23.4184 18.5556 21.4873C18.7121 19.5562 20.417 19.1263 20.417 19.1263C20.417 19.1263 21.5924 22.301 24.5693 21.1211C30.2699 18.1689 29.917 15.6966 29.3692 14.3392C29.1467 13.788 28.5544 13.5706 27.9314 13.5068C26.6715 13.3781 25.4531 13.908 24.7995 14.7955C23.713 16.2666 22.8 18.8363 23.8066 21.3286C25.2966 25.0157 31.5788 20.6586 31.5788 20.6586L38.6544 15.3216L36.8038 15.9753L38.6544 14.9704V14.128C37.2964 14.5955 36.0427 14.0855 35.834 14.043C35.6253 14.0005 33.3527 12.4257 32.4642 13.5318C31.2106 14.9992 31.654 17.8289 31.654 17.8289L32.4642 22.8397L32.699 22.5422L32.386 17.7877C32.386 17.7877 32.1834 15.9691 33.1471 15.2192C33.5906 14.8204 35.481 15.7541 35.481 15.7541C35.481 15.7541 28.0234 22.5322 24.8378 21.2986C24.8378 21.2986 22.9826 19.4688 24.9943 16.5965C26.1759 15.0867 27.603 15.2654 28.1753 15.4179C28.3303 15.4591 28.4423 15.5704 28.4638 15.7016C28.4792 15.7891 28.45 15.8816 28.3856 15.9553Z" fill="url(#paint4_linear_1_15476)"/>
<path d="M18.8789 22.2451C18.8789 22.2451 23.375 24.0087 24.7069 26.7047C24.7069 26.7047 22.5325 24.4387 18.8789 22.7951V22.2451Z" fill="url(#paint5_linear_1_15476)"/>
<path d="M21.2475 14.4109C20.6015 15.177 19.8097 16.0295 19.222 15.487C18.3888 14.5846 17.752 14.8721 17.752 14.8721C18.0788 14.4721 18.4732 14.0859 18.8537 13.8434C19.6332 14.0396 20.1473 14.4609 20.1872 14.4946C19.7744 13.9709 19.2895 13.8084 18.9964 13.7472C19.4138 13.5397 19.8649 13.5197 20.0936 13.9147C20.5493 14.7058 21.2107 14.4259 21.2475 14.4109Z" fill="url(#paint6_linear_1_15476)"/>
<path d="M32.9487 10.7839C32.3027 11.5501 31.5109 12.4025 30.9232 11.8601C30.0899 10.9576 29.4531 11.2451 29.4531 11.2451C29.78 10.8452 30.1743 10.4589 30.5549 10.2165C31.3344 10.4127 31.8485 10.8339 31.8884 10.8677C31.4756 10.344 30.9907 10.1815 30.6976 10.1202C31.115 9.91274 31.5661 9.89274 31.7948 10.2877C32.252 11.0789 32.9134 10.7989 32.9487 10.7839Z" fill="url(#paint7_linear_1_15476)"/>
<path d="M36.4871 31.9222C36.4334 31.9097 35.3163 31.6435 33.9215 32.5771C32.4929 33.5345 31.5323 33.2796 30.8371 32.7046C30.8325 32.7009 30.8279 32.6971 30.8218 32.6921C32.5082 32.7084 33.6683 31.5722 33.6683 31.5722C31.5537 32.8046 30.3277 32.2709 29.9164 32.0034C29.8658 31.9647 29.8136 31.9247 29.7615 31.8847C29.7599 31.8835 29.7599 31.8834 29.7599 31.8834C28.9405 31.2498 28.0352 30.4611 28.0352 29.8649C28.0352 29.8649 28.9374 31.1973 30.5241 30.2874C32.1108 29.3787 33.6867 28.58 34.9112 29.6887C36.1081 30.7723 36.4718 31.8709 36.4871 31.9222Z" fill="url(#paint8_linear_1_15476)"/>
<path d="M50.1914 14.4023C50.1914 14.4023 47.2882 17.7945 49.2569 18.7632C50.9448 19.5931 50.9418 16.8384 50.9418 16.8384C50.9418 16.8384 50.5044 17.897 49.4855 17.6095C48.4682 17.3221 50.1914 14.4023 50.1914 14.4023Z" fill="url(#paint9_linear_1_15476)"/>
<path d="M7.89453 16.646H8.49145V17.9521H8.94873V16.646H9.54871V16.2998H7.89453V16.646Z" fill="url(#paint10_linear_1_15476)"/>
<path d="M11.4506 16.2998L10.8445 17.2622L10.2338 16.2998H9.75195V17.9521H10.1847V16.9747L10.7003 17.7922H10.9872L11.4982 16.9747L11.4997 17.9521H11.9325V16.2998H11.4506Z" fill="url(#paint11_linear_1_15476)"/>
<path d="M13.1572 39.8124C12.9592 39.6549 12.726 39.5324 12.4575 39.4437C12.1889 39.3549 11.9219 39.3099 11.6565 39.3099C11.4109 39.3099 11.1854 39.3474 10.9767 39.4212C10.768 39.4949 10.5854 39.5986 10.4304 39.7299C10.2739 39.8611 10.1527 40.0149 10.0667 40.1886C9.9808 40.3623 9.93783 40.5511 9.93783 40.7548C9.93783 40.9585 9.98233 41.1485 10.0713 41.3247C10.1603 41.501 10.2831 41.6559 10.4381 41.7897C10.5946 41.9234 10.7772 42.0272 10.9844 42.1022C11.193 42.1759 11.4186 42.2134 11.6641 42.2134C11.8882 42.2134 12.1306 42.1734 12.3915 42.0922C12.6523 42.0122 12.8887 41.9034 13.102 41.7672L13.8048 42.4734C13.6114 42.5834 13.392 42.6834 13.1449 42.7721C12.8979 42.8608 12.6385 42.9308 12.3669 42.9821C12.0953 43.0333 11.836 43.0583 11.5859 43.0583C11.1685 43.0583 10.7849 42.9996 10.4335 42.8833C10.0821 42.7671 9.77364 42.6046 9.50817 42.3959C9.24271 42.1884 9.03709 41.9434 8.89131 41.661C8.74553 41.3785 8.67188 41.076 8.67188 40.7535C8.67188 40.4311 8.74707 40.1311 8.89898 39.8524C9.04936 39.5749 9.25959 39.3312 9.52812 39.1237C9.79666 38.9162 10.1128 38.755 10.478 38.64C10.8432 38.525 11.236 38.4688 11.658 38.4688C11.9296 38.4688 12.1966 38.495 12.4636 38.5487C12.7291 38.6012 12.9823 38.6775 13.2216 38.775C13.461 38.8725 13.6728 38.9887 13.8554 39.1249L13.1572 39.8124ZM12.7352 40.7473H13.8063V42.4721H12.7352V40.7473Z" fill="white"/>
<path d="M16.8379 38.5332C17.5514 38.5332 18.1054 38.6682 18.4982 38.9369C18.891 39.2069 19.0874 39.5856 19.0874 40.0731C19.0874 40.5868 18.891 40.9867 18.4982 41.2729C18.1054 41.5592 17.5514 41.7029 16.8379 41.7029H15.6962V42.989H14.4609V38.5332H16.8379ZM16.8379 40.888C17.177 40.888 17.4409 40.823 17.6312 40.6942C17.8215 40.5643 17.9166 40.368 17.9166 40.1056C17.9166 39.8506 17.8215 39.6606 17.6312 39.5331C17.4409 39.4056 17.177 39.3419 16.8379 39.3419H15.6962V40.8892H16.8379V40.888ZM16.689 41.3279H17.8921L19.2209 42.989H17.8215L16.689 41.3279Z" fill="white"/>
<path d="M19.6992 38.5322H23.8638V39.3409H20.9329V40.3471H23.5661V41.1557H20.9329V42.1806H23.9498V42.9893H19.6992V38.5322Z" fill="white"/>
<path d="M24.4961 38.5322H28.6607V39.3409H25.7298V40.3471H28.363V41.1557H25.7298V42.1806H28.7466V42.9893H24.4961V38.5322Z" fill="white"/>
<path d="M34.2402 38.5332V42.989L31.2786 40.9667L30.4745 40.418V42.989H29.293V38.5332L32.2638 40.5605L33.077 41.1155V38.5332H34.2402Z" fill="white"/>
<path d="M41.3471 39.8124C41.1491 39.6549 40.9159 39.5324 40.6473 39.4437C40.3788 39.3549 40.1118 39.3099 39.8463 39.3099C39.6008 39.3099 39.3752 39.3474 39.1666 39.4212C38.9579 39.4949 38.7753 39.5986 38.6203 39.7299C38.4638 39.8611 38.3425 40.0149 38.2566 40.1886C38.1707 40.3623 38.1277 40.5511 38.1277 40.7548C38.1277 40.9585 38.1722 41.1485 38.2612 41.3247C38.3502 41.501 38.473 41.6559 38.6279 41.7897C38.7845 41.9234 38.9671 42.0272 39.1758 42.1022C39.3845 42.1759 39.61 42.2134 39.8555 42.2134C40.0796 42.2134 40.322 42.1734 40.5829 42.0922C40.8438 42.0122 41.0801 41.9034 41.2934 41.7672L41.9962 42.4734C41.8028 42.5834 41.5834 42.6834 41.3363 42.7721C41.0893 42.8608 40.8299 42.9308 40.5583 42.9821C40.2867 43.0333 40.0274 43.0583 39.7773 43.0583C39.3599 43.0583 38.9763 42.9996 38.6249 42.8833C38.2735 42.7671 37.965 42.6046 37.6996 42.3959C37.4341 42.1884 37.2285 41.9434 37.0827 41.661C36.9369 41.3785 36.8633 41.076 36.8633 40.7535C36.8633 40.4311 36.9385 40.1311 37.0904 39.8524C37.2408 39.5749 37.451 39.3312 37.7195 39.1237C37.9881 38.9162 38.3042 38.755 38.6694 38.64C39.0346 38.525 39.4274 38.4688 39.8494 38.4688C40.121 38.4688 40.388 38.495 40.655 38.5487C40.9205 38.6012 41.1737 38.6775 41.4131 38.775C41.6524 38.8725 41.8642 38.9887 42.0468 39.1249L41.3471 39.8124ZM40.9251 40.7473H41.9962V42.4721H40.9251V40.7473Z" fill="white"/>
<path d="M45.2003 38.4688C45.6177 38.4688 46.0043 38.5262 46.3603 38.64C46.7164 38.755 47.0278 38.9162 47.2948 39.1237C47.5603 39.3312 47.7675 39.5736 47.9163 39.8499C48.0652 40.1261 48.1388 40.4273 48.1388 40.7535C48.1388 41.076 48.0652 41.3772 47.9163 41.6572C47.7675 41.9372 47.5603 42.1822 47.2948 42.3921C47.0294 42.6021 46.7179 42.7658 46.3603 42.8821C46.0028 42.9983 45.6161 43.0571 45.2003 43.0571C44.7829 43.0571 44.3962 42.9983 44.0402 42.8821C43.6827 42.7658 43.3727 42.6021 43.1057 42.3921C42.8402 42.1822 42.6331 41.9372 42.4842 41.6572C42.3354 41.3772 42.2617 41.076 42.2617 40.7535C42.2617 40.4273 42.3354 40.1248 42.4842 39.8461C42.6331 39.5686 42.8402 39.3262 43.1057 39.1199C43.3712 38.9137 43.6827 38.7537 44.0402 38.6387C44.3962 38.5262 44.7829 38.4688 45.2003 38.4688ZM45.2156 39.3149C44.987 39.3149 44.7691 39.3512 44.5635 39.4237C44.3578 39.4962 44.1783 39.5974 44.0248 39.7286C43.8714 39.8599 43.7502 40.0136 43.6612 40.1873C43.5722 40.3611 43.5277 40.5498 43.5277 40.7535C43.5277 40.9573 43.5722 41.1472 43.6612 41.3235C43.7502 41.4997 43.8729 41.6547 44.0279 41.7884C44.1844 41.9222 44.364 42.0259 44.5665 42.1009C44.7691 42.1759 44.9854 42.2121 45.2156 42.2121C45.4443 42.2121 45.6591 42.1746 45.8601 42.1009C46.0611 42.0272 46.2361 41.9222 46.388 41.7884C46.5383 41.6547 46.658 41.4997 46.744 41.3235C46.8299 41.1472 46.8729 40.9573 46.8729 40.7535C46.8729 40.5498 46.8299 40.3611 46.744 40.1873C46.658 40.0136 46.5399 39.8611 46.388 39.7286C46.2361 39.5974 46.0611 39.4949 45.8601 39.4237C45.6591 39.3512 45.4443 39.3149 45.2156 39.3149Z" fill="white"/>
<path d="M48.5293 38.5332H49.7646V42.1429H52.1016V42.989H48.5293V38.5332Z" fill="white"/>
<path d="M54.7339 38.5332C55.1605 38.5332 55.5503 38.5869 55.9017 38.6957C56.2531 38.8044 56.5569 38.9569 56.8116 39.1544C57.0664 39.3519 57.2643 39.5856 57.4055 39.8581C57.5467 40.1293 57.6172 40.4305 57.6172 40.7617C57.6172 41.088 57.5467 41.3879 57.4055 41.6592C57.2643 41.9304 57.0648 42.1666 56.804 42.3653C56.5431 42.5653 56.2347 42.7191 55.8787 42.8265C55.5211 42.9353 55.1268 42.989 54.694 42.989H52.4199V38.5332H54.7339ZM54.7646 42.1679C54.9994 42.1679 55.2127 42.1341 55.406 42.0666C55.5994 41.9991 55.7666 41.9029 55.9109 41.7766C56.0536 41.6517 56.1641 41.5042 56.2423 41.3342C56.3206 41.1642 56.359 40.9755 56.359 40.768C56.359 40.5605 56.3175 40.3705 56.2347 40.198C56.1518 40.0268 56.0367 39.8756 55.8909 39.7456C55.7452 39.6156 55.5718 39.5181 55.3707 39.4494C55.1697 39.3819 54.9503 39.3481 54.7109 39.3481H53.6567V42.1679H54.7646Z" fill="white"/>
<path d="M13.4863 45.4082H13.8408L14.9487 46.6343L14.8505 46.6618V45.4082H15.2142V47.0031H14.8566L13.7549 45.7794L13.8531 45.7519V47.0031H13.4863V45.4082Z" fill="url(#paint12_linear_1_15476)"/>
<path d="M16.2686 45.4082H16.6523L17.4993 47.0031H17.0988L16.4466 45.7157L15.7975 47.0031H15.4062L16.2686 45.4082ZM15.8574 46.4069H17.0236V46.6556H15.8574V46.4069Z" fill="url(#paint13_linear_1_15476)"/>
<path d="M17.2793 45.4082H18.8767V45.6657H18.2675V47.0031H17.89V45.6657H17.2808V45.4082H17.2793Z" fill="url(#paint14_linear_1_15476)"/>
<path d="M19.4354 46.3469C19.4354 46.4781 19.4799 46.5806 19.5673 46.6543C19.6548 46.7293 19.773 46.7656 19.9203 46.7656C20.0661 46.7656 20.1811 46.7293 20.2671 46.6556C20.353 46.5818 20.396 46.4794 20.396 46.3469V45.4082H20.7704V46.3469C20.7704 46.4869 20.7366 46.6068 20.6676 46.7081C20.5985 46.8093 20.5019 46.8868 20.3745 46.9418C20.2471 46.9968 20.0952 47.0243 19.9203 47.0243C19.7438 47.0243 19.5904 46.9968 19.4615 46.9418C19.3326 46.8868 19.2344 46.8093 19.1653 46.7081C19.0963 46.6068 19.0625 46.4869 19.0625 46.3469V45.4082H19.4369V46.3469H19.4354Z" fill="url(#paint15_linear_1_15476)"/>
<path d="M21.9843 45.4082C22.2375 45.4082 22.4339 45.4557 22.572 45.5519C22.7101 45.6482 22.7792 45.7819 22.7792 45.9557C22.7792 46.1369 22.7101 46.2769 22.572 46.3769C22.4339 46.4769 22.2375 46.5268 21.9843 46.5268H21.5424V47.0031H21.168V45.4082H21.9843ZM21.9843 46.2744C22.124 46.2744 22.2329 46.2481 22.3081 46.1969C22.3848 46.1456 22.4232 46.0669 22.4232 45.9619C22.4232 45.8619 22.3848 45.7869 22.3081 45.7382C22.2314 45.6882 22.124 45.6644 21.9843 45.6644H21.5424V46.2744H21.9843ZM21.9705 46.4106H22.3373L22.8191 47.0031H22.394L21.9705 46.4106Z" fill="url(#paint16_linear_1_15476)"/>
<path d="M23.7628 45.4082H24.1464L24.9934 47.0031H24.5929L23.9408 45.7157L23.2917 47.0031H22.9004L23.7628 45.4082ZM23.3515 46.4069H24.5177V46.6556H23.3515V46.4069Z" fill="url(#paint17_linear_1_15476)"/>
<path d="M25.189 45.4082H25.5635V46.7431H26.4074V47.0031H25.1875V45.4082H25.189Z" fill="url(#paint18_linear_1_15476)"/>
<path d="M27.3691 45.4082H27.7436V46.0956H28.7195V45.4082H29.097V47.0031H28.7195V46.3494H27.7436V47.0031H27.3691V45.4082Z" fill="url(#paint19_linear_1_15476)"/>
<path d="M29.5312 45.4082H30.966V45.6632H29.9057V46.0756H30.857V46.3281H29.9057V46.7468H30.9998V47.0018H29.5312V45.4082Z" fill="url(#paint20_linear_1_15476)"/>
<path d="M32.1542 45.4082C32.4074 45.4082 32.6038 45.4557 32.742 45.5519C32.8801 45.6482 32.9491 45.7819 32.9491 45.9557C32.9491 46.1369 32.8801 46.2769 32.742 46.3769C32.6038 46.4769 32.4074 46.5268 32.1542 46.5268H31.7123V47.0031H31.3379V45.4082H32.1542ZM32.1542 46.2744C32.2939 46.2744 32.4028 46.2481 32.478 46.1969C32.5548 46.1456 32.5931 46.0669 32.5931 45.9619C32.5931 45.8619 32.5548 45.7869 32.478 45.7382C32.4013 45.6882 32.2939 45.6644 32.1542 45.6644H31.7123V46.2744H32.1542ZM32.1404 46.4106H32.5072L32.989 47.0031H32.564L32.1404 46.4106Z" fill="url(#paint21_linear_1_15476)"/>
<path d="M34.1849 45.4088C34.3246 45.4088 34.4458 45.425 34.5455 45.4562C34.6468 45.4887 34.7235 45.5337 34.7772 45.5925C34.831 45.6512 34.8586 45.7237 34.8586 45.8062C34.8586 45.895 34.8279 45.9699 34.768 46.0337C34.7067 46.0974 34.6238 46.1387 34.5179 46.1587C34.6468 46.1787 34.7481 46.2237 34.8233 46.2949C34.8985 46.3662 34.9353 46.4549 34.9353 46.5611C34.9353 46.6524 34.9061 46.7311 34.8463 46.7974C34.7865 46.8636 34.7036 46.9136 34.5962 46.9486C34.4888 46.9836 34.3614 47.0011 34.211 47.0011H33.3164V45.4062H34.1849V45.4088ZM34.165 46.0649C34.2617 46.0649 34.3384 46.0462 34.3936 46.0099C34.4489 45.9737 34.4765 45.9224 34.4765 45.8575C34.4765 45.795 34.4489 45.7462 34.3936 45.7112C34.3384 45.6762 34.2632 45.66 34.165 45.6612H33.6893V46.0649H34.165ZM34.165 46.7511C34.2847 46.7524 34.3783 46.7336 34.4443 46.6936C34.5118 46.6536 34.5455 46.5986 34.5455 46.5274C34.5455 46.4612 34.5118 46.4074 34.4443 46.3687C34.3767 46.3299 34.2847 46.3112 34.165 46.3112H33.6893V46.7511H34.165Z" fill="url(#paint22_linear_1_15476)"/>
<path d="M36.482 45.8019C36.413 45.767 36.3424 45.7382 36.2703 45.7157C36.1982 45.6932 36.1306 45.677 36.0677 45.667C36.0048 45.657 35.9465 45.652 35.8943 45.652C35.8069 45.652 35.7363 45.6657 35.6826 45.6932C35.6289 45.7207 35.6028 45.7607 35.6028 45.8145C35.6028 45.8632 35.6212 45.9032 35.6596 45.9332C35.6979 45.9632 35.7486 45.9882 35.8099 46.0082C35.8729 46.0282 35.9404 46.0469 36.0156 46.0657C36.0907 46.0844 36.1644 46.1044 36.2396 46.1257C36.3148 46.1482 36.3823 46.1757 36.4452 46.2107C36.5081 46.2457 36.5572 46.2907 36.5941 46.3457C36.6309 46.4006 36.6493 46.4681 36.6493 46.5506C36.6493 46.6494 36.6171 46.7331 36.5511 46.8031C36.4851 46.8731 36.3961 46.9268 36.2841 46.9643C36.1705 47.0018 36.0432 47.0218 35.8989 47.0218C35.7946 47.0218 35.6918 47.0106 35.592 46.9893C35.4923 46.9668 35.3987 46.9368 35.3097 46.8993C35.2207 46.8619 35.1409 46.8169 35.0703 46.7669L35.2268 46.5181C35.2944 46.5681 35.3665 46.6119 35.4447 46.6469C35.523 46.6831 35.6012 46.7094 35.681 46.7294C35.7608 46.7481 35.8345 46.7581 35.9035 46.7581C36.0094 46.7581 36.0923 46.7419 36.1506 46.7081C36.2089 46.6744 36.2381 46.6281 36.2381 46.5669C36.2381 46.5169 36.2196 46.4769 36.1813 46.4456C36.1429 46.4156 36.0938 46.3894 36.0309 46.3694C35.968 46.3494 35.9005 46.3307 35.8253 46.3144C35.7501 46.2982 35.6749 46.2794 35.5997 46.2569C35.5245 46.2344 35.457 46.2069 35.3941 46.1732C35.3312 46.1394 35.2805 46.0957 35.2437 46.0419C35.2053 45.9894 35.1869 45.9207 35.1869 45.8394C35.1869 45.747 35.2176 45.667 35.279 45.5995C35.3404 45.532 35.4263 45.4795 35.5353 45.442C35.6442 45.4045 35.7731 45.3857 35.9204 45.3857C36.0508 45.3857 36.1782 45.4007 36.3025 45.4307C36.4268 45.4607 36.5358 45.502 36.6278 45.552L36.482 45.8019Z" fill="url(#paint23_linear_1_15476)"/>
<path d="M38.4753 45.4085C38.7238 45.4085 38.9157 45.456 39.0507 45.5522C39.1873 45.6485 39.2548 45.7822 39.2548 45.9559C39.2548 46.1372 39.1873 46.2771 39.0507 46.3771C38.9141 46.4771 38.7223 46.5271 38.4753 46.5271H37.8845L38.0502 46.3921V47.0021H37.6758V45.4072H38.4753V45.4085ZM38.4584 46.2746C38.598 46.2746 38.7054 46.2484 38.7822 46.1972C38.8589 46.1459 38.8957 46.0672 38.8957 45.9622C38.8957 45.8622 38.8573 45.7872 38.7822 45.7384C38.707 45.6885 38.5996 45.6647 38.4584 45.6647H37.8845L38.0502 45.5297V46.4096L37.8845 46.2746H38.4584Z" fill="url(#paint24_linear_1_15476)"/>
<path d="M40.3359 45.4082C40.5891 45.4082 40.7855 45.4557 40.9236 45.5519C41.0617 45.6482 41.1307 45.7819 41.1307 45.9557C41.1307 46.1369 41.0617 46.2769 40.9236 46.3769C40.7855 46.4769 40.5906 46.5268 40.3359 46.5268H39.8939V47.0031H39.5195V45.4082H40.3359ZM40.3359 46.2744C40.4755 46.2744 40.5845 46.2481 40.6612 46.1969C40.7379 46.1456 40.7763 46.0669 40.7763 45.9619C40.7763 45.8619 40.7379 45.7869 40.6612 45.7382C40.5845 45.6882 40.4771 45.6644 40.3359 45.6644H39.8939V46.2744H40.3359ZM40.3221 46.4106H40.6888L41.1706 47.0031H40.7456L40.3221 46.4106Z" fill="url(#paint25_linear_1_15476)"/>
<path d="M42.3852 45.3906C42.5326 45.3906 42.6691 45.4106 42.7965 45.4519C42.9239 45.4931 43.0343 45.5506 43.1279 45.6256C43.2216 45.6993 43.2952 45.7868 43.3489 45.8843C43.4026 45.9818 43.4287 46.0893 43.4287 46.2043C43.4287 46.318 43.4026 46.4255 43.3489 46.5255C43.2952 46.6255 43.2216 46.713 43.1279 46.788C43.0343 46.863 42.9239 46.9205 42.7965 46.9617C42.6691 47.003 42.5326 47.0242 42.3852 47.0242C42.2379 47.0242 42.1014 47.003 41.9755 46.9617C41.8497 46.9205 41.7392 46.8617 41.6441 46.788C41.549 46.713 41.4753 46.6268 41.4216 46.5268C41.3679 46.4268 41.3418 46.3193 41.3418 46.2043C41.3418 46.0893 41.3679 45.9818 41.4216 45.8831C41.4753 45.7843 41.549 45.6981 41.6441 45.6244C41.7392 45.5506 41.8497 45.4931 41.9755 45.4519C42.1014 45.4106 42.2379 45.3906 42.3852 45.3906ZM42.3914 45.6481C42.2993 45.6481 42.2149 45.6619 42.1336 45.6906C42.0538 45.7181 41.9832 45.7581 41.9203 45.8093C41.8589 45.8606 41.8114 45.9193 41.7761 45.9856C41.7423 46.0518 41.7239 46.1256 41.7239 46.2043C41.7239 46.283 41.7423 46.3568 41.7776 46.4243C41.8129 46.4918 41.862 46.5518 41.9234 46.603C41.9848 46.6543 42.0553 46.6955 42.1367 46.7242C42.2165 46.753 42.3024 46.768 42.3914 46.768C42.4804 46.768 42.5648 46.753 42.6446 46.7242C42.7244 46.6955 42.7934 46.6555 42.8533 46.603C42.9131 46.5518 42.9607 46.4918 42.9944 46.4243C43.0282 46.3568 43.0466 46.283 43.0466 46.2043C43.0466 46.1256 43.0297 46.0518 42.9944 45.9856C42.9607 45.9181 42.9131 45.8593 42.8533 45.8093C42.7934 45.7581 42.7244 45.7193 42.6446 45.6906C42.5648 45.6619 42.4804 45.6481 42.3914 45.6481Z" fill="url(#paint26_linear_1_15476)"/>
<path d="M44.5281 45.4088C44.677 45.4088 44.8135 45.4288 44.9378 45.4662C45.0621 45.505 45.1695 45.56 45.2601 45.6312C45.3506 45.7025 45.4212 45.7875 45.4718 45.8837C45.5225 45.9812 45.547 46.0874 45.547 46.2049C45.547 46.3199 45.5225 46.4262 45.4718 46.5236C45.4212 46.6211 45.3506 46.7049 45.2585 46.7761C45.168 46.8474 45.0575 46.9024 44.9317 46.9424C44.8043 46.9824 44.6662 47.0011 44.5174 47.0011H43.7148V45.4062H44.5281V45.4088ZM44.5373 46.7486C44.6263 46.7486 44.7092 46.7349 44.7859 46.7086C44.8626 46.6824 44.9286 46.6449 44.9854 46.5974C45.0422 46.5499 45.0867 46.4924 45.1204 46.4262C45.1527 46.3599 45.1695 46.2874 45.1695 46.2087C45.1695 46.1287 45.1527 46.0549 45.1189 45.9887C45.0851 45.9225 45.0391 45.865 44.9823 45.815C44.924 45.7662 44.8565 45.7275 44.7782 45.7025C44.7 45.6762 44.6141 45.6637 44.5205 45.6637H44.0893V46.7486H44.5373Z" fill="url(#paint27_linear_1_15476)"/>
<path d="M46.1698 46.3469C46.1698 46.4781 46.2143 46.5806 46.3017 46.6543C46.3892 46.7293 46.5073 46.7656 46.6547 46.7656C46.8004 46.7656 46.9155 46.7293 47.0014 46.6556C47.0874 46.5818 47.1303 46.4794 47.1303 46.3469V45.4082H47.5048V46.3469C47.5048 46.4869 47.471 46.6068 47.4019 46.7081C47.3344 46.8093 47.2362 46.8868 47.1089 46.9418C46.9815 46.9968 46.8296 47.0243 46.6547 47.0243C46.4766 47.0243 46.3247 46.9968 46.1958 46.9418C46.0669 46.8868 45.9687 46.8093 45.8997 46.7081C45.8306 46.6068 45.7969 46.4869 45.7969 46.3469V45.4082H46.1713V46.3469H46.1698Z" fill="url(#paint28_linear_1_15476)"/>
<path d="M49.3174 45.8531C49.2484 45.7893 49.167 45.7393 49.0719 45.7018C48.9768 45.6643 48.8816 45.6456 48.7865 45.6456C48.6944 45.6456 48.61 45.6594 48.5302 45.6881C48.4504 45.7168 48.3814 45.7556 48.32 45.8068C48.2602 45.8581 48.2126 45.9168 48.1788 45.9831C48.1451 46.0506 48.1282 46.1218 48.1282 46.1993C48.1282 46.2768 48.1451 46.3493 48.1788 46.4168C48.2126 46.4843 48.2602 46.543 48.32 46.593C48.3814 46.643 48.4504 46.683 48.5302 46.7118C48.61 46.7405 48.6944 46.7555 48.7865 46.7555C48.8816 46.7555 48.9752 46.738 49.0688 46.7043C49.1624 46.6705 49.2453 46.623 49.3174 46.5643L49.5384 46.753C49.4724 46.808 49.3972 46.8555 49.3128 46.8967C49.2284 46.938 49.1394 46.9692 49.0473 46.9917C48.9553 47.0142 48.8617 47.0242 48.7665 47.0242C48.6223 47.0242 48.4888 47.003 48.3645 46.9617C48.2402 46.9205 48.1328 46.8617 48.0407 46.788C47.9487 46.7142 47.8765 46.6268 47.8244 46.5255C47.7722 46.4255 47.7461 46.318 47.7461 46.2043C47.7461 46.0893 47.7722 45.9818 47.8244 45.8843C47.8765 45.7868 47.9502 45.7006 48.0453 45.6256C48.1405 45.5506 48.2494 45.4931 48.3737 45.4519C48.498 45.4106 48.633 45.3906 48.7803 45.3906C48.8755 45.3906 48.9676 45.4006 49.0581 45.4219C49.1486 45.4419 49.2346 45.4719 49.3174 45.5081C49.4003 45.5456 49.4724 45.5906 49.5353 45.6431L49.3174 45.8531Z" fill="url(#paint29_linear_1_15476)"/>
<path d="M49.5859 45.4082H51.1833V45.6657H50.5742V47.0031H50.1967V45.6657H49.5875V45.4082H49.5859Z" fill="url(#paint30_linear_1_15476)"/>
<path d="M52.6344 45.8019C52.5653 45.767 52.4948 45.7382 52.4226 45.7157C52.3505 45.6932 52.283 45.677 52.2201 45.667C52.1572 45.657 52.0989 45.652 52.0467 45.652C51.9592 45.652 51.8886 45.6657 51.8349 45.6932C51.7812 45.7207 51.7551 45.7607 51.7551 45.8145C51.7551 45.8632 51.7735 45.9032 51.8119 45.9332C51.8503 45.9632 51.9009 45.9882 51.9623 46.0082C52.0252 46.0282 52.0927 46.0469 52.1679 46.0657C52.2431 46.0844 52.3167 46.1044 52.3919 46.1257C52.4671 46.1482 52.5346 46.1757 52.5976 46.2107C52.6605 46.2457 52.7096 46.2907 52.7464 46.3457C52.7832 46.4006 52.8016 46.4681 52.8016 46.5506C52.8016 46.6494 52.7694 46.7331 52.7034 46.8031C52.6375 46.8731 52.5485 46.9268 52.4364 46.9643C52.3229 47.0018 52.1955 47.0218 52.0513 47.0218C51.9469 47.0218 51.8441 47.0106 51.7444 46.9893C51.6446 46.9668 51.551 46.9368 51.462 46.8993C51.373 46.8619 51.2932 46.8169 51.2227 46.7669L51.3792 46.5181C51.4467 46.5681 51.5188 46.6119 51.5971 46.6469C51.6753 46.6831 51.7536 46.7094 51.8334 46.7294C51.9132 46.7481 51.9868 46.7581 52.0559 46.7581C52.1618 46.7581 52.2446 46.7419 52.3029 46.7081C52.3612 46.6744 52.3904 46.6281 52.3904 46.5669C52.3904 46.5169 52.372 46.4769 52.3336 46.4456C52.2953 46.4156 52.2462 46.3894 52.1832 46.3694C52.1203 46.3494 52.0528 46.3307 51.9776 46.3144C51.9024 46.2982 51.8272 46.2794 51.7521 46.2569C51.6769 46.2344 51.6093 46.2069 51.5464 46.1732C51.4835 46.1394 51.4329 46.0957 51.3961 46.0419C51.3577 45.9894 51.3393 45.9207 51.3393 45.8394C51.3393 45.747 51.37 45.667 51.4313 45.5995C51.4927 45.532 51.5787 45.4795 51.6876 45.442C51.7966 45.4045 51.9254 45.3857 52.0728 45.3857C52.2032 45.3857 52.3306 45.4007 52.4549 45.4307C52.5792 45.4607 52.6881 45.502 52.7802 45.552L52.6344 45.8019Z" fill="url(#paint31_linear_1_15476)"/>
<path d="M54.6439 46.6497C54.9456 46.6497 55.1902 46.4505 55.1902 46.2047C55.1902 45.959 54.9456 45.7598 54.6439 45.7598C54.3422 45.7598 54.0977 45.959 54.0977 46.2047C54.0977 46.4505 54.3422 46.6497 54.6439 46.6497Z" fill="url(#paint32_linear_1_15476)"/>
<path d="M11.6478 46.6497C11.9495 46.6497 12.1941 46.4505 12.1941 46.2047C12.1941 45.959 11.9495 45.7598 11.6478 45.7598C11.3461 45.7598 11.1016 45.959 11.1016 46.2047C11.1016 46.4505 11.3461 46.6497 11.6478 46.6497Z" fill="url(#paint33_linear_1_15476)"/>
<path d="M66 54.6028V56.7926C66 59.4773 63.3284 61.6533 60.0324 61.6533H53.8698C49.5978 64.3306 41.8486 66.1204 32.9992 66.1204C24.1498 66.1204 16.4022 64.3306 12.1302 61.6533H5.9661C2.67155 61.6533 0 59.4773 0 56.7926V54.6028C0 57.2875 2.67155 59.4636 5.9661 59.4636H12.1302C16.4022 62.1408 24.1498 63.9306 32.9992 63.9306C41.3714 63.9306 48.7585 62.3283 53.1486 59.8885H53.0965C37.2176 49.2708 18.4507 58.0749 18.084 58.2487C40.3372 46.2773 55.8908 59.3998 55.8908 59.3998V59.4636H60.0324C63.33 59.4636 66 57.2863 66 54.6028Z" fill="url(#paint34_linear_1_15476)"/>
<defs>
<linearGradient id="paint0_linear_1_15476" x1="21.009" y1="-0.0279387" x2="53.588" y2="38.5784" gradientUnits="userSpaceOnUse">
<stop stop-color="#CE9F41"/>
<stop offset="0.1229" stop-color="#D3AB43"/>
<stop offset="0.2514" stop-color="#F6ECDF"/>
<stop offset="0.3547" stop-color="#D3AB43"/>
<stop offset="0.5168" stop-color="#CE9F41"/>
<stop offset="0.6844" stop-color="#F6ECDF"/>
<stop offset="0.8464" stop-color="#CE9F41"/>
<stop offset="0.9888" stop-color="#CE9F41"/>
</linearGradient>
<linearGradient id="paint1_linear_1_15476" x1="8.41424" y1="10.6012" x2="40.9932" y2="49.2075" gradientUnits="userSpaceOnUse">
<stop stop-color="#CE9F41"/>
<stop offset="0.1229" stop-color="#D3AB43"/>
<stop offset="0.2514" stop-color="#F6ECDF"/>
<stop offset="0.3547" stop-color="#D3AB43"/>
<stop offset="0.5168" stop-color="#CE9F41"/>
<stop offset="0.6844" stop-color="#F6ECDF"/>
<stop offset="0.8464" stop-color="#CE9F41"/>
<stop offset="0.9888" stop-color="#CE9F41"/>
</linearGradient>
<linearGradient id="paint2_linear_1_15476" x1="20.2736" y1="0.593178" x2="52.8525" y2="39.1995" gradientUnits="userSpaceOnUse">
<stop stop-color="#CE9F41"/>
<stop offset="0.1229" stop-color="#D3AB43"/>
<stop offset="0.2514" stop-color="#F6ECDF"/>
<stop offset="0.3547" stop-color="#D3AB43"/>
<stop offset="0.5168" stop-color="#CE9F41"/>
<stop offset="0.6844" stop-color="#F6ECDF"/>
<stop offset="0.8464" stop-color="#CE9F41"/>
<stop offset="0.9888" stop-color="#CE9F41"/>
</linearGradient>
<linearGradient id="paint3_linear_1_15476" x1="24.8363" y1="-3.257" x2="57.4153" y2="35.3493" gradientUnits="userSpaceOnUse">
<stop stop-color="#CE9F41"/>
<stop offset="0.1229" stop-color="#D3AB43"/>
<stop offset="0.2514" stop-color="#F6ECDF"/>
<stop offset="0.3547" stop-color="#D3AB43"/>
<stop offset="0.5168" stop-color="#CE9F41"/>
<stop offset="0.6844" stop-color="#F6ECDF"/>
<stop offset="0.8464" stop-color="#CE9F41"/>
<stop offset="0.9888" stop-color="#CE9F41"/>
</linearGradient>
<linearGradient id="paint4_linear_1_15476" x1="9.18147" y1="9.95557" x2="41.7605" y2="48.5619" gradientUnits="userSpaceOnUse">
<stop stop-color="#CE9F41"/>
<stop offset="0.1229" stop-color="#D3AB43"/>
<stop offset="0.2514" stop-color="#F6ECDF"/>
<stop offset="0.3547" stop-color="#D3AB43"/>
<stop offset="0.5168" stop-color="#CE9F41"/>
<stop offset="0.6844" stop-color="#F6ECDF"/>
<stop offset="0.8464" stop-color="#CE9F41"/>
<stop offset="0.9888" stop-color="#CE9F41"/>
</linearGradient>
<linearGradient id="paint5_linear_1_15476" x1="6.40268" y1="12.2992" x2="38.9817" y2="50.9056" gradientUnits="userSpaceOnUse">
<stop stop-color="#CE9F41"/>
<stop offset="0.1229" stop-color="#D3AB43"/>
<stop offset="0.2514" stop-color="#F6ECDF"/>
<stop offset="0.3547" stop-color="#D3AB43"/>
<stop offset="0.5168" stop-color="#CE9F41"/>
<stop offset="0.6844" stop-color="#F6ECDF"/>
<stop offset="0.8464" stop-color="#CE9F41"/>
<stop offset="0.9888" stop-color="#CE9F41"/>
</linearGradient>
<linearGradient id="paint6_linear_1_15476" x1="11.2815" y1="8.18158" x2="43.8605" y2="46.7879" gradientUnits="userSpaceOnUse">
<stop stop-color="#CE9F41"/>
<stop offset="0.1229" stop-color="#D3AB43"/>
<stop offset="0.2514" stop-color="#F6ECDF"/>
<stop offset="0.3547" stop-color="#D3AB43"/>
<stop offset="0.5168" stop-color="#CE9F41"/>
<stop offset="0.6844" stop-color="#F6ECDF"/>
<stop offset="0.8464" stop-color="#CE9F41"/>
<stop offset="0.9888" stop-color="#CE9F41"/>
</linearGradient>
<linearGradient id="paint7_linear_1_15476" x1="19.1513" y1="1.5412" x2="51.7303" y2="40.1475" gradientUnits="userSpaceOnUse">
<stop stop-color="#CE9F41"/>
<stop offset="0.1229" stop-color="#D3AB43"/>
<stop offset="0.2514" stop-color="#F6ECDF"/>
<stop offset="0.3547" stop-color="#D3AB43"/>
<stop offset="0.5168" stop-color="#CE9F41"/>
<stop offset="0.6844" stop-color="#F6ECDF"/>
<stop offset="0.8464" stop-color="#CE9F41"/>
<stop offset="0.9888" stop-color="#CE9F41"/>
</linearGradient>
<linearGradient id="paint8_linear_1_15476" x1="7.57213" y1="11.3128" x2="40.1511" y2="49.9191" gradientUnits="userSpaceOnUse">
<stop stop-color="#CE9F41"/>
<stop offset="0.1229" stop-color="#D3AB43"/>
<stop offset="0.2514" stop-color="#F6ECDF"/>
<stop offset="0.3547" stop-color="#D3AB43"/>
<stop offset="0.5168" stop-color="#CE9F41"/>
<stop offset="0.6844" stop-color="#F6ECDF"/>
<stop offset="0.8464" stop-color="#CE9F41"/>
<stop offset="0.9888" stop-color="#CE9F41"/>
</linearGradient>
<linearGradient id="paint9_linear_1_15476" x1="24.6563" y1="-3.10457" x2="57.2353" y2="35.5017" gradientUnits="userSpaceOnUse">
<stop stop-color="#CE9F41"/>
<stop offset="0.1229" stop-color="#D3AB43"/>
<stop offset="0.2514" stop-color="#F6ECDF"/>
<stop offset="0.3547" stop-color="#D3AB43"/>
<stop offset="0.5168" stop-color="#CE9F41"/>
<stop offset="0.6844" stop-color="#F6ECDF"/>
<stop offset="0.8464" stop-color="#CE9F41"/>
<stop offset="0.9888" stop-color="#CE9F41"/>
</linearGradient>
<linearGradient id="paint10_linear_1_15476" x1="4.70328" y1="13.732" x2="37.2823" y2="52.3383" gradientUnits="userSpaceOnUse">
<stop stop-color="#CE9F41"/>
<stop offset="0.1229" stop-color="#D3AB43"/>
<stop offset="0.2514" stop-color="#F6ECDF"/>
<stop offset="0.3547" stop-color="#D3AB43"/>
<stop offset="0.5168" stop-color="#CE9F41"/>
<stop offset="0.6844" stop-color="#F6ECDF"/>
<stop offset="0.8464" stop-color="#CE9F41"/>
<stop offset="0.9888" stop-color="#CE9F41"/>
</linearGradient>
<linearGradient id="paint11_linear_1_15476" x1="5.5823" y1="12.9908" x2="38.1613" y2="51.5971" gradientUnits="userSpaceOnUse">
<stop stop-color="#CE9F41"/>
<stop offset="0.1229" stop-color="#D3AB43"/>
<stop offset="0.2514" stop-color="#F6ECDF"/>
<stop offset="0.3547" stop-color="#D3AB43"/>
<stop offset="0.5168" stop-color="#CE9F41"/>
<stop offset="0.6844" stop-color="#F6ECDF"/>
<stop offset="0.8464" stop-color="#CE9F41"/>
<stop offset="0.9888" stop-color="#CE9F41"/>
</linearGradient>
<linearGradient id="paint12_linear_1_15476" x1="11.0611" y1="46.2199" x2="55.4889" y2="45.9313" gradientUnits="userSpaceOnUse">
<stop stop-color="#CE9F41"/>
<stop offset="0.1229" stop-color="#D3AB43"/>
<stop offset="0.2514" stop-color="#F6ECDF"/>
<stop offset="0.3547" stop-color="#D3AB43"/>
<stop offset="0.5168" stop-color="#CE9F41"/>
<stop offset="0.6844" stop-color="#F6ECDF"/>
<stop offset="0.8464" stop-color="#CE9F41"/>
<stop offset="0.9888" stop-color="#CE9F41"/>
</linearGradient>
<linearGradient id="paint13_linear_1_15476" x1="11.0599" y1="46.2308" x2="55.4876" y2="45.9422" gradientUnits="userSpaceOnUse">
<stop stop-color="#CE9F41"/>
<stop offset="0.1229" stop-color="#D3AB43"/>
<stop offset="0.2514" stop-color="#F6ECDF"/>
<stop offset="0.3547" stop-color="#D3AB43"/>
<stop offset="0.5168" stop-color="#CE9F41"/>
<stop offset="0.6844" stop-color="#F6ECDF"/>
<stop offset="0.8464" stop-color="#CE9F41"/>
<stop offset="0.9888" stop-color="#CE9F41"/>
</linearGradient>
<linearGradient id="paint14_linear_1_15476" x1="11.0609" y1="46.2347" x2="55.4887" y2="45.9461" gradientUnits="userSpaceOnUse">
<stop stop-color="#CE9F41"/>
<stop offset="0.1229" stop-color="#D3AB43"/>
<stop offset="0.2514" stop-color="#F6ECDF"/>
<stop offset="0.3547" stop-color="#D3AB43"/>
<stop offset="0.5168" stop-color="#CE9F41"/>
<stop offset="0.6844" stop-color="#F6ECDF"/>
<stop offset="0.8464" stop-color="#CE9F41"/>
<stop offset="0.9888" stop-color="#CE9F41"/>
</linearGradient>
<linearGradient id="paint15_linear_1_15476" x1="11.0611" y1="46.2523" x2="55.4888" y2="45.9637" gradientUnits="userSpaceOnUse">
<stop stop-color="#CE9F41"/>
<stop offset="0.1229" stop-color="#D3AB43"/>
<stop offset="0.2514" stop-color="#F6ECDF"/>
<stop offset="0.3547" stop-color="#D3AB43"/>
<stop offset="0.5168" stop-color="#CE9F41"/>
<stop offset="0.6844" stop-color="#F6ECDF"/>
<stop offset="0.8464" stop-color="#CE9F41"/>
<stop offset="0.9888" stop-color="#CE9F41"/>
</linearGradient>
<linearGradient id="paint16_linear_1_15476" x1="11.0613" y1="46.2528" x2="55.489" y2="45.9643" gradientUnits="userSpaceOnUse">
<stop stop-color="#CE9F41"/>
<stop offset="0.1229" stop-color="#D3AB43"/>
<stop offset="0.2514" stop-color="#F6ECDF"/>
<stop offset="0.3547" stop-color="#D3AB43"/>
<stop offset="0.5168" stop-color="#CE9F41"/>
<stop offset="0.6844" stop-color="#F6ECDF"/>
<stop offset="0.8464" stop-color="#CE9F41"/>
<stop offset="0.9888" stop-color="#CE9F41"/>
</linearGradient>
<linearGradient id="paint17_linear_1_15476" x1="11.0613" y1="46.2631" x2="55.4891" y2="45.9745" gradientUnits="userSpaceOnUse">
<stop stop-color="#CE9F41"/>
<stop offset="0.1229" stop-color="#D3AB43"/>
<stop offset="0.2514" stop-color="#F6ECDF"/>
<stop offset="0.3547" stop-color="#D3AB43"/>
<stop offset="0.5168" stop-color="#CE9F41"/>
<stop offset="0.6844" stop-color="#F6ECDF"/>
<stop offset="0.8464" stop-color="#CE9F41"/>
<stop offset="0.9888" stop-color="#CE9F41"/>
</linearGradient>
<linearGradient id="paint18_linear_1_15476" x1="11.0605" y1="46.2693" x2="55.4884" y2="45.9807" gradientUnits="userSpaceOnUse">
<stop stop-color="#CE9F41"/>
<stop offset="0.1229" stop-color="#D3AB43"/>
<stop offset="0.2514" stop-color="#F6ECDF"/>
<stop offset="0.3547" stop-color="#D3AB43"/>
<stop offset="0.5168" stop-color="#CE9F41"/>
<stop offset="0.6844" stop-color="#F6ECDF"/>
<stop offset="0.8464" stop-color="#CE9F41"/>
<stop offset="0.9888" stop-color="#CE9F41"/>
</linearGradient>
<linearGradient id="paint19_linear_1_15476" x1="11.0617" y1="46.2797" x2="55.4896" y2="45.9911" gradientUnits="userSpaceOnUse">
<stop stop-color="#CE9F41"/>
<stop offset="0.1229" stop-color="#D3AB43"/>
<stop offset="0.2514" stop-color="#F6ECDF"/>
<stop offset="0.3547" stop-color="#D3AB43"/>
<stop offset="0.5168" stop-color="#CE9F41"/>
<stop offset="0.6844" stop-color="#F6ECDF"/>
<stop offset="0.8464" stop-color="#CE9F41"/>
<stop offset="0.9888" stop-color="#CE9F41"/>
</linearGradient>
<linearGradient id="paint20_linear_1_15476" x1="11.0604" y1="46.2885" x2="55.4879" y2="45.9999" gradientUnits="userSpaceOnUse">
<stop stop-color="#CE9F41"/>
<stop offset="0.1229" stop-color="#D3AB43"/>
<stop offset="0.2514" stop-color="#F6ECDF"/>
<stop offset="0.3547" stop-color="#D3AB43"/>
<stop offset="0.5168" stop-color="#CE9F41"/>
<stop offset="0.6844" stop-color="#F6ECDF"/>
<stop offset="0.8464" stop-color="#CE9F41"/>
<stop offset="0.9888" stop-color="#CE9F41"/>
</linearGradient>
<linearGradient id="paint21_linear_1_15476" x1="11.0624" y1="46.2967" x2="55.4902" y2="46.0081" gradientUnits="userSpaceOnUse">
<stop stop-color="#CE9F41"/>
<stop offset="0.1229" stop-color="#D3AB43"/>
<stop offset="0.2514" stop-color="#F6ECDF"/>
<stop offset="0.3547" stop-color="#D3AB43"/>
<stop offset="0.5168" stop-color="#CE9F41"/>
<stop offset="0.6844" stop-color="#F6ECDF"/>
<stop offset="0.8464" stop-color="#CE9F41"/>
<stop offset="0.9888" stop-color="#CE9F41"/>
</linearGradient>
<linearGradient id="paint22_linear_1_15476" x1="11.0615" y1="46.3041" x2="55.4892" y2="46.0155" gradientUnits="userSpaceOnUse">
<stop stop-color="#CE9F41"/>
<stop offset="0.1229" stop-color="#D3AB43"/>
<stop offset="0.2514" stop-color="#F6ECDF"/>
<stop offset="0.3547" stop-color="#D3AB43"/>
<stop offset="0.5168" stop-color="#CE9F41"/>
<stop offset="0.6844" stop-color="#F6ECDF"/>
<stop offset="0.8464" stop-color="#CE9F41"/>
<stop offset="0.9888" stop-color="#CE9F41"/>
</linearGradient>
<linearGradient id="paint23_linear_1_15476" x1="11.06" y1="46.3106" x2="55.4877" y2="46.022" gradientUnits="userSpaceOnUse">
<stop stop-color="#CE9F41"/>
<stop offset="0.1229" stop-color="#D3AB43"/>
<stop offset="0.2514" stop-color="#F6ECDF"/>
<stop offset="0.3547" stop-color="#D3AB43"/>
<stop offset="0.5168" stop-color="#CE9F41"/>
<stop offset="0.6844" stop-color="#F6ECDF"/>
<stop offset="0.8464" stop-color="#CE9F41"/>
<stop offset="0.9888" stop-color="#CE9F41"/>
</linearGradient>
<linearGradient id="paint24_linear_1_15476" x1="11.0614" y1="46.3215" x2="55.4893" y2="46.0329" gradientUnits="userSpaceOnUse">
<stop stop-color="#CE9F41"/>
<stop offset="0.1229" stop-color="#D3AB43"/>
<stop offset="0.2514" stop-color="#F6ECDF"/>
<stop offset="0.3547" stop-color="#D3AB43"/>
<stop offset="0.5168" stop-color="#CE9F41"/>
<stop offset="0.6844" stop-color="#F6ECDF"/>
<stop offset="0.8464" stop-color="#CE9F41"/>
<stop offset="0.9888" stop-color="#CE9F41"/>
</linearGradient>
<linearGradient id="paint25_linear_1_15476" x1="11.0623" y1="46.3319" x2="55.4902" y2="46.0433" gradientUnits="userSpaceOnUse">
<stop stop-color="#CE9F41"/>
<stop offset="0.1229" stop-color="#D3AB43"/>
<stop offset="0.2514" stop-color="#F6ECDF"/>
<stop offset="0.3547" stop-color="#D3AB43"/>
<stop offset="0.5168" stop-color="#CE9F41"/>
<stop offset="0.6844" stop-color="#F6ECDF"/>
<stop offset="0.8464" stop-color="#CE9F41"/>
<stop offset="0.9888" stop-color="#CE9F41"/>
</linearGradient>
<linearGradient id="paint26_linear_1_15476" x1="11.0616" y1="46.3418" x2="55.4896" y2="46.0532" gradientUnits="userSpaceOnUse">
<stop stop-color="#CE9F41"/>
<stop offset="0.1229" stop-color="#D3AB43"/>
<stop offset="0.2514" stop-color="#F6ECDF"/>
<stop offset="0.3547" stop-color="#D3AB43"/>
<stop offset="0.5168" stop-color="#CE9F41"/>
<stop offset="0.6844" stop-color="#F6ECDF"/>
<stop offset="0.8464" stop-color="#CE9F41"/>
<stop offset="0.9888" stop-color="#CE9F41"/>
</linearGradient>
<linearGradient id="paint27_linear_1_15476" x1="11.0625" y1="46.3487" x2="55.4903" y2="46.0602" gradientUnits="userSpaceOnUse">
<stop stop-color="#CE9F41"/>
<stop offset="0.1229" stop-color="#D3AB43"/>
<stop offset="0.2514" stop-color="#F6ECDF"/>
<stop offset="0.3546" stop-color="#D5AE4A"/>
<stop offset="0.3547" stop-color="#D3AB43"/>
<stop offset="0.5168" stop-color="#CE9F41"/>
<stop offset="0.6844" stop-color="#F6ECDF"/>
<stop offset="0.8464" stop-color="#CE9F41"/>
<stop offset="0.9888" stop-color="#CE9F41"/>
</linearGradient>
<linearGradient id="paint28_linear_1_15476" x1="11.0623" y1="46.3675" x2="55.4901" y2="46.0789" gradientUnits="userSpaceOnUse">
<stop stop-color="#CE9F41"/>
<stop offset="0.1229" stop-color="#D3AB43"/>
<stop offset="0.2514" stop-color="#F6ECDF"/>
<stop offset="0.3547" stop-color="#D3AB43"/>
<stop offset="0.5168" stop-color="#CE9F41"/>
<stop offset="0.6844" stop-color="#F6ECDF"/>
<stop offset="0.8464" stop-color="#CE9F41"/>
<stop offset="0.9888" stop-color="#CE9F41"/>
</linearGradient>
<linearGradient id="paint29_linear_1_15476" x1="11.0611" y1="46.3694" x2="55.4891" y2="46.0807" gradientUnits="userSpaceOnUse">
<stop stop-color="#CE9F41"/>
<stop offset="0.1229" stop-color="#D3AB43"/>
<stop offset="0.2514" stop-color="#F6ECDF"/>
<stop offset="0.3547" stop-color="#D3AB43"/>
<stop offset="0.5168" stop-color="#CE9F41"/>
<stop offset="0.6844" stop-color="#F6ECDF"/>
<stop offset="0.8464" stop-color="#CE9F41"/>
<stop offset="0.9888" stop-color="#CE9F41"/>
</linearGradient>
<linearGradient id="paint30_linear_1_15476" x1="11.0629" y1="46.3739" x2="55.4905" y2="46.0853" gradientUnits="userSpaceOnUse">
<stop stop-color="#CE9F41"/>
<stop offset="0.1229" stop-color="#D3AB43"/>
<stop offset="0.2514" stop-color="#F6ECDF"/>
<stop offset="0.3547" stop-color="#D3AB43"/>
<stop offset="0.5168" stop-color="#CE9F41"/>
<stop offset="0.6844" stop-color="#F6ECDF"/>
<stop offset="0.8464" stop-color="#CE9F41"/>
<stop offset="0.9888" stop-color="#CE9F41"/>
</linearGradient>
<linearGradient id="paint31_linear_1_15476" x1="11.0623" y1="46.3802" x2="55.49" y2="46.0916" gradientUnits="userSpaceOnUse">
<stop stop-color="#CE9F41"/>
<stop offset="0.1229" stop-color="#D3AB43"/>
<stop offset="0.2514" stop-color="#F6ECDF"/>
<stop offset="0.3547" stop-color="#D3AB43"/>
<stop offset="0.5168" stop-color="#CE9F41"/>
<stop offset="0.6844" stop-color="#F6ECDF"/>
<stop offset="0.8464" stop-color="#CE9F41"/>
<stop offset="0.9888" stop-color="#CE9F41"/>
</linearGradient>
<linearGradient id="paint32_linear_1_15476" x1="11.6759" y1="46.3902" x2="56.1036" y2="46.1016" gradientUnits="userSpaceOnUse">
<stop stop-color="#CE9F41"/>
<stop offset="0.1229" stop-color="#D3AB43"/>
<stop offset="0.2514" stop-color="#F6ECDF"/>
<stop offset="0.3547" stop-color="#D3AB43"/>
<stop offset="0.5168" stop-color="#CE9F41"/>
<stop offset="0.6844" stop-color="#F6ECDF"/>
<stop offset="0.8464" stop-color="#CE9F41"/>
<stop offset="0.9888" stop-color="#CE9F41"/>
</linearGradient>
<linearGradient id="paint33_linear_1_15476" x1="10.4482" y1="46.2102" x2="54.876" y2="45.9216" gradientUnits="userSpaceOnUse">
<stop stop-color="#CE9F41"/>
<stop offset="0.1229" stop-color="#D3AB43"/>
<stop offset="0.2514" stop-color="#F6ECDF"/>
<stop offset="0.3547" stop-color="#D3AB43"/>
<stop offset="0.5168" stop-color="#CE9F41"/>
<stop offset="0.6844" stop-color="#F6ECDF"/>
<stop offset="0.8464" stop-color="#CE9F41"/>
<stop offset="0.9888" stop-color="#CE9F41"/>
</linearGradient>
<linearGradient id="paint34_linear_1_15476" x1="2.21762" y1="59.665" x2="81.3582" y2="59.665" gradientUnits="userSpaceOnUse">
<stop stop-color="#CE9F41"/>
<stop offset="0.1229" stop-color="#D3AB43"/>
<stop offset="0.2407" stop-color="#F6ECDF"/>
<stop offset="0.3209" stop-color="#D3AB43"/>
<stop offset="0.3863" stop-color="#AE782B"/>
<stop offset="0.5168" stop-color="#CE9F41"/>
<stop offset="0.6844" stop-color="#F6ECDF"/>
<stop offset="0.8464" stop-color="#CE9F41"/>
<stop offset="0.9888" stop-color="#CE9F41"/>
</linearGradient>
</defs>
</svg>
